<?xml version="1.0" encoding="utf-8" standalone="no"?>
<!DOCTYPE svg PUBLIC "-//W3C//DTD SVG 1.1//EN"
  "http://www.w3.org/Graphics/SVG/1.1/DTD/svg11.dtd">
<svg xmlns:xlink="http://www.w3.org/1999/xlink" width="50.4pt" height="540pt" viewBox="0 0 50.4 540" xmlns="http://www.w3.org/2000/svg" version="1.1">
 <metadata>
  <rdf:RDF xmlns:dc="http://purl.org/dc/elements/1.1/" xmlns:cc="http://creativecommons.org/ns#" xmlns:rdf="http://www.w3.org/1999/02/22-rdf-syntax-ns#">
   <cc:Work>
    <dc:type rdf:resource="http://purl.org/dc/dcmitype/StillImage"/>
    <dc:date>2026-02-02T16:27:54.098140</dc:date>
    <dc:format>image/svg+xml</dc:format>
    <dc:creator>
     <cc:Agent>
      <dc:title>Matplotlib v3.10.0, https://matplotlib.org/</dc:title>
     </cc:Agent>
    </dc:creator>
   </cc:Work>
  </rdf:RDF>
 </metadata>
 <defs>
  <style type="text/css">*{stroke-linejoin: round; stroke-linecap: butt}</style>
 </defs>
 <g id="figure_1">
  <g id="patch_1">
   <path d="M 0 540 
L 50.4 540 
L 50.4 0 
L 0 0 
z
" style="fill: #ffffff"/>
  </g>
  <g id="axes_1">
   <g id="patch_2">
    <path d="M 6.3 253.8 
L 45.36 253.8 
L 45.36 64.8 
L 6.3 64.8 
z
" style="fill: #ffffff"/>
   </g>
   <g id="FillBetweenPolyCollection_1">
    <defs>
     <path id="mb4de7fdf9a" d="M 25.889249 -300.643383 
L 25.770751 -300.643383 
L 25.746725 -302.221459 
L 25.715476 -303.799535 
L 25.675767 -305.37761 
L 25.626406 -306.955686 
L 25.566301 -308.533762 
L 25.494488 -310.111837 
L 25.410146 -311.689913 
L 25.31258 -313.267989 
L 25.201189 -314.846064 
L 25.075433 -316.42414 
L 24.934816 -318.002216 
L 24.778889 -319.580291 
L 24.607313 -321.158367 
L 24.419945 -322.736443 
L 24.216966 -324.314518 
L 23.999002 -325.892594 
L 23.76722 -327.47067 
L 23.523346 -329.048745 
L 23.269611 -330.626821 
L 23.008576 -332.204896 
L 22.742883 -333.782972 
L 22.474935 -335.361048 
L 22.206554 -336.939123 
L 21.938674 -338.517199 
L 21.671084 -340.095275 
L 21.402267 -341.67335 
L 21.129333 -343.251426 
L 20.848045 -344.829502 
L 20.552927 -346.407577 
L 20.237455 -347.985653 
L 19.894334 -349.563729 
L 19.515895 -351.141804 
L 19.094635 -352.71988 
L 18.623926 -354.297956 
L 18.098879 -355.876031 
L 17.517309 -357.454107 
L 16.88067 -359.032183 
L 16.194823 -360.610258 
L 15.470431 -362.188334 
L 14.722846 -363.76641 
L 13.971396 -365.344485 
L 13.238085 -366.922561 
L 12.545855 -368.500637 
L 11.916651 -370.078712 
L 11.369573 -371.656788 
L 10.919428 -373.234864 
L 10.575881 -374.812939 
L 10.343322 -376.391015 
L 10.221393 -377.969091 
L 10.206 -379.547166 
L 10.290573 -381.125242 
L 10.467281 -382.703318 
L 10.72801 -384.281393 
L 11.064946 -385.859469 
L 11.470765 -387.437545 
L 11.938505 -389.01562 
L 12.46123 -390.593696 
L 13.031663 -392.171772 
L 13.641877 -393.749847 
L 14.283139 -395.327923 
L 14.945902 -396.905999 
L 15.619968 -398.484074 
L 16.294758 -400.06215 
L 16.959682 -401.640226 
L 17.604576 -403.218301 
L 18.220179 -404.796377 
L 18.798605 -406.374453 
L 19.333778 -407.952528 
L 19.82174 -409.530604 
L 20.260789 -411.10868 
L 20.65141 -412.686755 
L 20.995991 -414.264831 
L 21.298385 -415.842907 
L 21.563402 -417.420982 
L 21.796333 -418.999058 
L 22.002594 -420.577134 
L 22.187534 -422.155209 
L 22.356388 -423.733285 
L 22.51432 -425.311361 
L 22.666465 -426.889436 
L 22.81787 -428.467512 
L 22.973292 -430.045588 
L 23.136856 -431.623663 
L 23.311621 -433.201739 
L 23.499159 -434.779815 
L 23.699266 -436.35789 
L 23.909877 -437.935966 
L 24.127237 -439.514042 
L 24.346326 -441.092117 
L 24.56144 -442.670193 
L 24.766861 -444.248269 
L 24.957482 -445.826344 
L 25.129297 -447.40442 
L 25.2797 -448.982496 
L 25.407573 -450.560571 
L 25.51318 -452.138647 
L 25.597921 -453.716723 
L 25.664001 -455.294798 
L 25.71409 -456.872874 
L 25.94591 -456.872874 
L 25.94591 -456.872874 
L 25.995999 -455.294798 
L 26.062079 -453.716723 
L 26.14682 -452.138647 
L 26.252427 -450.560571 
L 26.3803 -448.982496 
L 26.530703 -447.40442 
L 26.702518 -445.826344 
L 26.893139 -444.248269 
L 27.09856 -442.670193 
L 27.313674 -441.092117 
L 27.532763 -439.514042 
L 27.750123 -437.935966 
L 27.960734 -436.35789 
L 28.160841 -434.779815 
L 28.348379 -433.201739 
L 28.523144 -431.623663 
L 28.686708 -430.045588 
L 28.84213 -428.467512 
L 28.993535 -426.889436 
L 29.14568 -425.311361 
L 29.303612 -423.733285 
L 29.472466 -422.155209 
L 29.657406 -420.577134 
L 29.863667 -418.999058 
L 30.096598 -417.420982 
L 30.361615 -415.842907 
L 30.664009 -414.264831 
L 31.00859 -412.686755 
L 31.399211 -411.10868 
L 31.83826 -409.530604 
L 32.326222 -407.952528 
L 32.861395 -406.374453 
L 33.439821 -404.796377 
L 34.055424 -403.218301 
L 34.700318 -401.640226 
L 35.365242 -400.06215 
L 36.040032 -398.484074 
L 36.714098 -396.905999 
L 37.376861 -395.327923 
L 38.018123 -393.749847 
L 38.628337 -392.171772 
L 39.19877 -390.593696 
L 39.721495 -389.01562 
L 40.189235 -387.437545 
L 40.595054 -385.859469 
L 40.93199 -384.281393 
L 41.192719 -382.703318 
L 41.369427 -381.125242 
L 41.454 -379.547166 
L 41.438607 -377.969091 
L 41.316678 -376.391015 
L 41.084119 -374.812939 
L 40.740572 -373.234864 
L 40.290427 -371.656788 
L 39.743349 -370.078712 
L 39.114145 -368.500637 
L 38.421915 -366.922561 
L 37.688604 -365.344485 
L 36.937154 -363.76641 
L 36.189569 -362.188334 
L 35.465177 -360.610258 
L 34.77933 -359.032183 
L 34.142691 -357.454107 
L 33.561121 -355.876031 
L 33.036074 -354.297956 
L 32.565365 -352.71988 
L 32.144105 -351.141804 
L 31.765666 -349.563729 
L 31.422545 -347.985653 
L 31.107073 -346.407577 
L 30.811955 -344.829502 
L 30.530667 -343.251426 
L 30.257733 -341.67335 
L 29.988916 -340.095275 
L 29.721326 -338.517199 
L 29.453446 -336.939123 
L 29.185065 -335.361048 
L 28.917117 -333.782972 
L 28.651424 -332.204896 
L 28.390389 -330.626821 
L 28.136654 -329.048745 
L 27.89278 -327.47067 
L 27.660998 -325.892594 
L 27.443034 -324.314518 
L 27.240055 -322.736443 
L 27.052687 -321.158367 
L 26.881111 -319.580291 
L 26.725184 -318.002216 
L 26.584567 -316.42414 
L 26.458811 -314.846064 
L 26.34742 -313.267989 
L 26.249854 -311.689913 
L 26.165512 -310.111837 
L 26.093699 -308.533762 
L 26.033594 -306.955686 
L 25.984233 -305.37761 
L 25.944524 -303.799535 
L 25.913275 -302.221459 
L 25.889249 -300.643383 
z
" style="stroke: #3f3f3f; stroke-width: 1.25"/>
    </defs>
    <g clip-path="url(#p4e09965d31)">
     <use xlink:href="#mb4de7fdf9a" x="0" y="540" style="fill: #3274a1; stroke: #3f3f3f; stroke-width: 1.25"/>
    </g>
   </g>
   <g id="FillBetweenPolyCollection_2">
    <defs>
     <path id="m81850b44d4" d="M 25.83038 -283.968052 
L 25.82962 -283.968052 
L 25.828591 -284.018526 
L 25.826912 -284.069 
L 25.824867 -284.119474 
L 25.821707 -284.169947 
L 25.818064 -284.220421 
L 25.814327 -284.270895 
L 25.806568 -284.321369 
L 25.793109 -284.371842 
L 25.777623 -284.422316 
L 25.761055 -284.47279 
L 25.737988 -284.523263 
L 25.70065 -284.573737 
L 25.644642 -284.624211 
L 25.569003 -284.674685 
L 25.470488 -284.725158 
L 25.344533 -284.775632 
L 25.1821 -284.826106 
L 24.982587 -284.87658 
L 24.761028 -284.927053 
L 24.513558 -284.977527 
L 24.202612 -285.028001 
L 23.803629 -285.078475 
L 23.345781 -285.128948 
L 22.879478 -285.179422 
L 22.394369 -285.229896 
L 21.806398 -285.28037 
L 21.074633 -285.330843 
L 20.274151 -285.381317 
L 19.460421 -285.431791 
L 18.656149 -285.482265 
L 17.880177 -285.532738 
L 17.093922 -285.583212 
L 16.258825 -285.633686 
L 15.350136 -285.68416 
L 14.388964 -285.734633 
L 13.448734 -285.785107 
L 12.568885 -285.835581 
L 11.790198 -285.886055 
L 11.179393 -285.936528 
L 10.744463 -285.987002 
L 10.447131 -286.037476 
L 10.270725 -286.087949 
L 10.206 -286.138423 
L 10.244014 -286.188897 
L 10.359487 -286.239371 
L 10.586747 -286.289844 
L 10.945924 -286.340318 
L 11.363649 -286.390792 
L 11.858793 -286.441266 
L 12.486928 -286.491739 
L 13.17564 -286.542213 
L 13.819112 -286.592687 
L 14.451997 -286.643161 
L 15.181529 -286.693634 
L 16.015306 -286.744108 
L 16.893283 -286.794582 
L 17.784681 -286.845056 
L 18.675108 -286.895529 
L 19.508336 -286.946003 
L 20.233967 -286.996477 
L 20.880043 -287.046951 
L 21.491553 -287.097424 
L 22.066856 -287.147898 
L 22.588369 -287.198372 
L 23.054167 -287.248846 
L 23.467604 -287.299319 
L 23.81722 -287.349793 
L 24.103373 -287.400267 
L 24.348776 -287.45074 
L 24.598424 -287.501214 
L 24.872606 -287.551688 
L 25.124629 -287.602162 
L 25.305683 -287.652635 
L 25.416564 -287.703109 
L 25.486076 -287.753583 
L 25.545223 -287.804057 
L 25.612518 -287.85453 
L 25.681893 -287.905004 
L 25.736623 -287.955478 
L 25.770742 -288.005952 
L 25.790308 -288.056425 
L 25.803813 -288.106899 
L 25.812883 -288.157373 
L 25.816801 -288.207847 
L 25.818089 -288.25832 
L 25.819609 -288.308794 
L 25.821799 -288.359268 
L 25.824894 -288.409742 
L 25.827975 -288.460215 
L 25.829547 -288.510689 
L 25.829945 -288.561163 
L 25.829992 -288.611637 
L 25.829942 -288.66211 
L 25.829614 -288.712584 
L 25.828629 -288.763058 
L 25.827423 -288.813532 
L 25.827435 -288.864005 
L 25.828649 -288.914479 
L 25.829623 -288.964953 
L 25.830377 -288.964953 
L 25.830377 -288.964953 
L 25.831351 -288.914479 
L 25.832565 -288.864005 
L 25.832577 -288.813532 
L 25.831371 -288.763058 
L 25.830386 -288.712584 
L 25.830058 -288.66211 
L 25.830008 -288.611637 
L 25.830055 -288.561163 
L 25.830453 -288.510689 
L 25.832025 -288.460215 
L 25.835106 -288.409742 
L 25.838201 -288.359268 
L 25.840391 -288.308794 
L 25.841911 -288.25832 
L 25.843199 -288.207847 
L 25.847117 -288.157373 
L 25.856187 -288.106899 
L 25.869692 -288.056425 
L 25.889258 -288.005952 
L 25.923377 -287.955478 
L 25.978107 -287.905004 
L 26.047482 -287.85453 
L 26.114777 -287.804057 
L 26.173924 -287.753583 
L 26.243436 -287.703109 
L 26.354317 -287.652635 
L 26.535371 -287.602162 
L 26.787394 -287.551688 
L 27.061576 -287.501214 
L 27.311224 -287.45074 
L 27.556627 -287.400267 
L 27.84278 -287.349793 
L 28.192396 -287.299319 
L 28.605833 -287.248846 
L 29.071631 -287.198372 
L 29.593144 -287.147898 
L 30.168447 -287.097424 
L 30.779957 -287.046951 
L 31.426033 -286.996477 
L 32.151664 -286.946003 
L 32.984892 -286.895529 
L 33.875319 -286.845056 
L 34.766717 -286.794582 
L 35.644694 -286.744108 
L 36.478471 -286.693634 
L 37.208003 -286.643161 
L 37.840888 -286.592687 
L 38.48436 -286.542213 
L 39.173072 -286.491739 
L 39.801207 -286.441266 
L 40.296351 -286.390792 
L 40.714076 -286.340318 
L 41.073253 -286.289844 
L 41.300513 -286.239371 
L 41.415986 -286.188897 
L 41.454 -286.138423 
L 41.389275 -286.087949 
L 41.212869 -286.037476 
L 40.915537 -285.987002 
L 40.480607 -285.936528 
L 39.869802 -285.886055 
L 39.091115 -285.835581 
L 38.211266 -285.785107 
L 37.271036 -285.734633 
L 36.309864 -285.68416 
L 35.401175 -285.633686 
L 34.566078 -285.583212 
L 33.779823 -285.532738 
L 33.003851 -285.482265 
L 32.199579 -285.431791 
L 31.385849 -285.381317 
L 30.585367 -285.330843 
L 29.853602 -285.28037 
L 29.265631 -285.229896 
L 28.780522 -285.179422 
L 28.314219 -285.128948 
L 27.856371 -285.078475 
L 27.457388 -285.028001 
L 27.146442 -284.977527 
L 26.898972 -284.927053 
L 26.677413 -284.87658 
L 26.4779 -284.826106 
L 26.315467 -284.775632 
L 26.189512 -284.725158 
L 26.090997 -284.674685 
L 26.015358 -284.624211 
L 25.95935 -284.573737 
L 25.922012 -284.523263 
L 25.898945 -284.47279 
L 25.882377 -284.422316 
L 25.866891 -284.371842 
L 25.853432 -284.321369 
L 25.845673 -284.270895 
L 25.841936 -284.220421 
L 25.838293 -284.169947 
L 25.835133 -284.119474 
L 25.833088 -284.069 
L 25.831409 -284.018526 
L 25.83038 -283.968052 
z
" style="stroke: #4d4d4d; stroke-width: 1.25"/>
    </defs>
    <g>
     <use xlink:href="#m81850b44d4" x="0" y="540" style="fill: #808080; stroke: #4d4d4d; stroke-width: 1.25"/>
    </g>
   </g>
   <g id="matplotlib.axis_1"/>
   <g id="matplotlib.axis_2">
    <g id="ytick_1">
     <g id="line2d_1">
      <defs>
       <path id="m43f4bd602e" d="M 0 0 
L -3.5 0 
" style="stroke: #000000; stroke-width: 0.8"/>
      </defs>
      <g>
       <use xlink:href="#m43f4bd602e" x="6.3" y="253.8" style="stroke: #000000; stroke-width: 0.8"/>
      </g>
     </g>
     <g id="text_1">
      <text style="font-size: 10px; font-family: 'DejaVu Sans', 'Bitstream Vera Sans', 'Computer Modern Sans Serif', 'Lucida Grande', 'Verdana', 'Geneva', 'Lucid', 'Arial', 'Helvetica', 'Avant Garde', sans-serif; text-anchor: end" x="-0.7" y="257.599219" transform="rotate(-0 -0.7 257.599219)">0</text>
     </g>
    </g>
    <g id="ytick_2">
     <g id="line2d_2">
      <g>
       <use xlink:href="#m43f4bd602e" x="6.3" y="159.3" style="stroke: #000000; stroke-width: 0.8"/>
      </g>
     </g>
    </g>
    <g id="ytick_3">
     <g id="line2d_3">
      <g>
       <use xlink:href="#m43f4bd602e" x="6.3" y="64.8" style="stroke: #000000; stroke-width: 0.8"/>
      </g>
     </g>
     <g id="text_2">
      <text style="font-size: 10px; font-family: 'DejaVu Sans', 'Bitstream Vera Sans', 'Computer Modern Sans Serif', 'Lucida Grande', 'Verdana', 'Geneva', 'Lucid', 'Arial', 'Helvetica', 'Avant Garde', sans-serif; text-anchor: end" x="-0.7" y="68.599219" transform="rotate(-0 -0.7 68.599219)">.25</text>
     </g>
    </g>
    <g id="text_3">
     <text style="font-size: 10px; font-family: 'DejaVu Sans', 'Bitstream Vera Sans', 'Computer Modern Sans Serif', 'Lucida Grande', 'Verdana', 'Geneva', 'Lucid', 'Arial', 'Helvetica', 'Avant Garde', sans-serif; text-anchor: middle" x="-22.682813" y="159.3" transform="rotate(-90 -22.682813 159.3)">r</text>
    </g>
   </g>
   <g id="line2d_4">
    <path d="M 25.83 208.309586 
L 25.83 108.627007 
" clip-path="url(#p4e09965d31)" style="fill: none; stroke: #3f3f3f; stroke-width: 1.875; stroke-linecap: square"/>
   </g>
   <g id="line2d_5">
    <path d="M 25.83 171.829587 
L 25.83 146.012486 
" clip-path="url(#p4e09965d31)" style="fill: none; stroke: #3f3f3f; stroke-width: 5.625; stroke-linecap: square"/>
   </g>
   <g id="line2d_6">
    <path d="M 25.83 160.8866 
" clip-path="url(#p4e09965d31)" style="fill: none; stroke: #3f3f3f; stroke-width: 1.5; stroke-linecap: square"/>
    <defs>
     <path id="mc5402abba4" d="M 2.34375 0 
L -2.34375 -0 
" style="stroke: #ffffff; stroke-width: 1.125"/>
    </defs>
    <g clip-path="url(#p4e09965d31)">
     <use xlink:href="#mc5402abba4" x="25.83" y="160.8866" style="fill: #ffffff; stroke: #ffffff; stroke-width: 1.125"/>
    </g>
   </g>
   <g id="line2d_7">
    <path d="M 25.83 255.300859 
L 25.83 252.297924 
" clip-path="url(#p4e09965d31)" style="fill: none; stroke: #4d4d4d; stroke-width: 1.875; stroke-linecap: square"/>
   </g>
   <g id="line2d_8">
    <path d="M 25.83 254.175749 
L 25.83 253.424246 
" clip-path="url(#p4e09965d31)" style="fill: none; stroke: #4d4d4d; stroke-width: 5.625; stroke-linecap: square"/>
   </g>
   <g id="line2d_9">
    <path d="M 25.83 253.809039 
" clip-path="url(#p4e09965d31)" style="fill: none; stroke: #4d4d4d; stroke-width: 1.5; stroke-linecap: square"/>
    <g clip-path="url(#p4e09965d31)">
     <use xlink:href="#mc5402abba4" x="25.83" y="253.809039" style="fill: #ffffff; stroke: #ffffff; stroke-width: 1.125"/>
    </g>
   </g>
   <g id="patch_3">
    <path d="M 6.3 253.8 
L 6.3 64.8 
" style="fill: none; stroke: #000000; stroke-width: 0.8; stroke-linejoin: miter; stroke-linecap: square"/>
   </g>
   <g id="text_4">
    <text style="font-size: 12px; font-family: 'DejaVu Sans', 'Bitstream Vera Sans', 'Computer Modern Sans Serif', 'Lucida Grande', 'Verdana', 'Geneva', 'Lucid', 'Arial', 'Helvetica', 'Avant Garde', sans-serif" transform="translate(-32.5125 45.362625)">pearson correlation</text>
    <text style="font-size: 12px; font-family: 'DejaVu Sans', 'Bitstream Vera Sans', 'Computer Modern Sans Serif', 'Lucida Grande', 'Verdana', 'Geneva', 'Lucid', 'Arial', 'Helvetica', 'Avant Garde', sans-serif" transform="translate(-2.154375 58.8)">(all folds)</text>
   </g>
  </g>
  <g id="axes_2">
   <g id="patch_4">
    <path d="M 6.3 480.6 
L 45.36 480.6 
L 45.36 291.6 
L 6.3 291.6 
z
" style="fill: #ffffff"/>
   </g>
   <g id="matplotlib.axis_3">
    <g id="xtick_1">
     <g id="line2d_10">
      <defs>
       <path id="m401f7fbc92" d="M 0 0 
L 0 3.5 
" style="stroke: #000000; stroke-width: 0.8"/>
      </defs>
      <g>
       <use xlink:href="#m401f7fbc92" x="6.3" y="480.6" style="stroke: #000000; stroke-width: 0.8"/>
      </g>
     </g>
     <g id="text_5">
      <text style="font-size: 10px; font-family: 'DejaVu Sans', 'Bitstream Vera Sans', 'Computer Modern Sans Serif', 'Lucida Grande', 'Verdana', 'Geneva', 'Lucid', 'Arial', 'Helvetica', 'Avant Garde', sans-serif; text-anchor: middle" x="6.3" y="495.198438" transform="rotate(-0 6.3 495.198438)">0</text>
     </g>
    </g>
    <g id="xtick_2">
     <g id="line2d_11">
      <g>
       <use xlink:href="#m401f7fbc92" x="45.36" y="480.6" style="stroke: #000000; stroke-width: 0.8"/>
      </g>
     </g>
     <g id="text_6">
      <text style="font-size: 10px; font-family: 'DejaVu Sans', 'Bitstream Vera Sans', 'Computer Modern Sans Serif', 'Lucida Grande', 'Verdana', 'Geneva', 'Lucid', 'Arial', 'Helvetica', 'Avant Garde', sans-serif; text-anchor: middle" x="45.36" y="495.198438" transform="rotate(-0 45.36 495.198438)">1</text>
     </g>
    </g>
   </g>
   <g id="matplotlib.axis_4">
    <g id="ytick_4">
     <g id="line2d_12">
      <g>
       <use xlink:href="#m43f4bd602e" x="6.3" y="480.6" style="stroke: #000000; stroke-width: 0.8"/>
      </g>
     </g>
     <g id="text_7">
      <text style="font-size: 10px; font-family: 'DejaVu Sans', 'Bitstream Vera Sans', 'Computer Modern Sans Serif', 'Lucida Grande', 'Verdana', 'Geneva', 'Lucid', 'Arial', 'Helvetica', 'Avant Garde', sans-serif; text-anchor: end" x="-0.7" y="484.399219" transform="rotate(-0 -0.7 484.399219)">0.0</text>
     </g>
    </g>
    <g id="ytick_5">
     <g id="line2d_13">
      <g>
       <use xlink:href="#m43f4bd602e" x="6.3" y="442.8" style="stroke: #000000; stroke-width: 0.8"/>
      </g>
     </g>
     <g id="text_8">
      <text style="font-size: 10px; font-family: 'DejaVu Sans', 'Bitstream Vera Sans', 'Computer Modern Sans Serif', 'Lucida Grande', 'Verdana', 'Geneva', 'Lucid', 'Arial', 'Helvetica', 'Avant Garde', sans-serif; text-anchor: end" x="-0.7" y="446.599219" transform="rotate(-0 -0.7 446.599219)">0.2</text>
     </g>
    </g>
    <g id="ytick_6">
     <g id="line2d_14">
      <g>
       <use xlink:href="#m43f4bd602e" x="6.3" y="405" style="stroke: #000000; stroke-width: 0.8"/>
      </g>
     </g>
     <g id="text_9">
      <text style="font-size: 10px; font-family: 'DejaVu Sans', 'Bitstream Vera Sans', 'Computer Modern Sans Serif', 'Lucida Grande', 'Verdana', 'Geneva', 'Lucid', 'Arial', 'Helvetica', 'Avant Garde', sans-serif; text-anchor: end" x="-0.7" y="408.799219" transform="rotate(-0 -0.7 408.799219)">0.4</text>
     </g>
    </g>
    <g id="ytick_7">
     <g id="line2d_15">
      <g>
       <use xlink:href="#m43f4bd602e" x="6.3" y="367.2" style="stroke: #000000; stroke-width: 0.8"/>
      </g>
     </g>
     <g id="text_10">
      <text style="font-size: 10px; font-family: 'DejaVu Sans', 'Bitstream Vera Sans', 'Computer Modern Sans Serif', 'Lucida Grande', 'Verdana', 'Geneva', 'Lucid', 'Arial', 'Helvetica', 'Avant Garde', sans-serif; text-anchor: end" x="-0.7" y="370.999219" transform="rotate(-0 -0.7 370.999219)">0.6</text>
     </g>
    </g>
    <g id="ytick_8">
     <g id="line2d_16">
      <g>
       <use xlink:href="#m43f4bd602e" x="6.3" y="329.4" style="stroke: #000000; stroke-width: 0.8"/>
      </g>
     </g>
     <g id="text_11">
      <text style="font-size: 10px; font-family: 'DejaVu Sans', 'Bitstream Vera Sans', 'Computer Modern Sans Serif', 'Lucida Grande', 'Verdana', 'Geneva', 'Lucid', 'Arial', 'Helvetica', 'Avant Garde', sans-serif; text-anchor: end" x="-0.7" y="333.199219" transform="rotate(-0 -0.7 333.199219)">0.8</text>
     </g>
    </g>
    <g id="ytick_9">
     <g id="line2d_17">
      <g>
       <use xlink:href="#m43f4bd602e" x="6.3" y="291.6" style="stroke: #000000; stroke-width: 0.8"/>
      </g>
     </g>
     <g id="text_12">
      <text style="font-size: 10px; font-family: 'DejaVu Sans', 'Bitstream Vera Sans', 'Computer Modern Sans Serif', 'Lucida Grande', 'Verdana', 'Geneva', 'Lucid', 'Arial', 'Helvetica', 'Avant Garde', sans-serif; text-anchor: end" x="-0.7" y="295.399219" transform="rotate(-0 -0.7 295.399219)">1.0</text>
     </g>
    </g>
   </g>
   <g id="patch_5">
    <path d="M 6.3 480.6 
L 6.3 291.6 
" style="fill: none; stroke: #000000; stroke-width: 0.8; stroke-linejoin: miter; stroke-linecap: square"/>
   </g>
  </g>
 </g>
 <defs>
  <clipPath id="p4e09965d31">
   <rect x="6.3" y="64.8" width="39.06" height="189"/>
  </clipPath>
 </defs>
</svg>
