<?xml version="1.0" encoding="utf-8" standalone="no"?>
<!DOCTYPE svg PUBLIC "-//W3C//DTD SVG 1.1//EN"
  "http://www.w3.org/Graphics/SVG/1.1/DTD/svg11.dtd">
<svg xmlns:xlink="http://www.w3.org/1999/xlink" width="432pt" height="360pt" viewBox="0 0 432 360" xmlns="http://www.w3.org/2000/svg" version="1.1">
 <metadata>
  <rdf:RDF xmlns:dc="http://purl.org/dc/elements/1.1/" xmlns:cc="http://creativecommons.org/ns#" xmlns:rdf="http://www.w3.org/1999/02/22-rdf-syntax-ns#">
   <cc:Work>
    <dc:type rdf:resource="http://purl.org/dc/dcmitype/StillImage"/>
    <dc:date>2026-05-11T14:22:02.785920</dc:date>
    <dc:format>image/svg+xml</dc:format>
    <dc:creator>
     <cc:Agent>
      <dc:title>Matplotlib v3.10.0, https://matplotlib.org/</dc:title>
     </cc:Agent>
    </dc:creator>
   </cc:Work>
  </rdf:RDF>
 </metadata>
 <defs>
  <style type="text/css">*{stroke-linejoin: round; stroke-linecap: butt}</style>
 </defs>
 <g id="figure_1">
  <g id="patch_1">
   <path d="M 0 360 
L 432 360 
L 432 0 
L 0 0 
z
" style="fill: #ffffff"/>
  </g>
  <g id="axes_1">
   <g id="patch_2">
    <path d="M 59.294 159.02 
L 421.2 159.02 
L 421.2 26.88 
L 59.294 26.88 
z
" style="fill: #ffffff"/>
   </g>
   <g id="FillBetweenPolyCollection_1">
    <defs>
     <path id="m9f720309d7" d="M 89.733155 -240.590494 
L 89.172512 -240.590494 
L 89.073205 -241.279621 
L 88.947791 -241.968749 
L 88.792629 -242.657876 
L 88.604545 -243.347003 
L 88.381122 -244.03613 
L 88.120967 -244.725257 
L 87.823916 -245.414385 
L 87.491137 -246.103512 
L 87.125104 -246.792639 
L 86.729439 -247.481766 
L 86.308608 -248.170894 
L 85.867525 -248.860021 
L 85.411092 -249.549148 
L 84.94375 -250.238275 
L 84.469088 -250.927402 
L 83.989576 -251.61653 
L 83.506429 -252.305657 
L 83.019617 -252.994784 
L 82.527986 -253.683911 
L 82.02944 -254.373038 
L 81.521131 -255.062166 
L 80.999611 -255.751293 
L 80.460916 -256.44042 
L 79.900611 -257.129547 
L 79.313822 -257.818675 
L 78.695349 -258.507802 
L 78.039917 -259.196929 
L 77.342643 -259.886056 
L 76.59972 -260.575183 
L 75.809287 -261.264311 
L 74.972362 -261.953438 
L 74.093691 -262.642565 
L 73.182322 -263.331692 
L 72.251729 -264.02082 
L 71.319359 -264.709947 
L 70.405572 -265.399074 
L 69.532039 -266.088201 
L 68.719774 -266.777328 
L 67.987055 -267.466456 
L 67.347547 -268.155583 
L 66.808931 -268.84471 
L 66.372262 -269.533837 
L 66.032221 -270.222965 
L 65.778232 -270.912092 
L 65.59634 -271.601219 
L 65.471568 -272.290346 
L 65.390428 -272.979473 
L 65.343219 -273.668601 
L 65.325767 -274.357728 
L 65.340365 -275.046855 
L 65.395766 -275.735982 
L 65.506235 -276.42511 
L 65.689802 -277.114237 
L 65.965955 -277.803364 
L 66.353085 -278.492491 
L 66.866012 -279.181618 
L 67.513903 -279.870746 
L 68.298809 -280.559873 
L 69.214979 -281.249 
L 70.248982 -281.938127 
L 71.38059 -282.627255 
L 72.584279 -283.316382 
L 73.831154 -284.005509 
L 75.091075 -284.694636 
L 76.334756 -285.383763 
L 77.535632 -286.072891 
L 78.671341 -286.762018 
L 79.724724 -287.451145 
L 80.684293 -288.140272 
L 81.544201 -288.8294 
L 82.303786 -289.518527 
L 82.966791 -290.207654 
L 83.540393 -290.896781 
L 84.034168 -291.585908 
L 84.459088 -292.275036 
L 84.826646 -292.964163 
L 85.148142 -293.65329 
L 85.434141 -294.342417 
L 85.694111 -295.031544 
L 85.936185 -295.720672 
L 86.167037 -296.409799 
L 86.391833 -297.098926 
L 86.614232 -297.788053 
L 86.836441 -298.477181 
L 87.059308 -299.166308 
L 87.282465 -299.855435 
L 87.50452 -300.544562 
L 87.723296 -301.233689 
L 87.936103 -301.922817 
L 88.140032 -302.611944 
L 88.33224 -303.301071 
L 88.510204 -303.990198 
L 88.671929 -304.679326 
L 88.81608 -305.368453 
L 88.942041 -306.05758 
L 89.049908 -306.746707 
L 89.14041 -307.435834 
L 89.21479 -308.124962 
L 89.274666 -308.814089 
L 89.631001 -308.814089 
L 89.631001 -308.814089 
L 89.690876 -308.124962 
L 89.765257 -307.435834 
L 89.855758 -306.746707 
L 89.963625 -306.05758 
L 90.089587 -305.368453 
L 90.233737 -304.679326 
L 90.395462 -303.990198 
L 90.573427 -303.301071 
L 90.765635 -302.611944 
L 90.969563 -301.922817 
L 91.182371 -301.233689 
L 91.401146 -300.544562 
L 91.623201 -299.855435 
L 91.846358 -299.166308 
L 92.069225 -298.477181 
L 92.291435 -297.788053 
L 92.513834 -297.098926 
L 92.73863 -296.409799 
L 92.969482 -295.720672 
L 93.211556 -295.031544 
L 93.471526 -294.342417 
L 93.757525 -293.65329 
L 94.07902 -292.964163 
L 94.446579 -292.275036 
L 94.871499 -291.585908 
L 95.365274 -290.896781 
L 95.938876 -290.207654 
L 96.60188 -289.518527 
L 97.361465 -288.8294 
L 98.221374 -288.140272 
L 99.180943 -287.451145 
L 100.234326 -286.762018 
L 101.370035 -286.072891 
L 102.57091 -285.383763 
L 103.814591 -284.694636 
L 105.074513 -284.005509 
L 106.321387 -283.316382 
L 107.525076 -282.627255 
L 108.656685 -281.938127 
L 109.690688 -281.249 
L 110.606858 -280.559873 
L 111.391764 -279.870746 
L 112.039655 -279.181618 
L 112.552582 -278.492491 
L 112.939712 -277.803364 
L 113.215865 -277.114237 
L 113.399432 -276.42511 
L 113.509901 -275.735982 
L 113.565301 -275.046855 
L 113.5799 -274.357728 
L 113.562448 -273.668601 
L 113.515238 -272.979473 
L 113.434098 -272.290346 
L 113.309326 -271.601219 
L 113.127435 -270.912092 
L 112.873446 -270.222965 
L 112.533405 -269.533837 
L 112.096736 -268.84471 
L 111.558119 -268.155583 
L 110.918612 -267.466456 
L 110.185892 -266.777328 
L 109.373627 -266.088201 
L 108.500095 -265.399074 
L 107.586308 -264.709947 
L 106.653937 -264.02082 
L 105.723344 -263.331692 
L 104.811976 -262.642565 
L 103.933305 -261.953438 
L 103.09638 -261.264311 
L 102.305947 -260.575183 
L 101.563024 -259.886056 
L 100.86575 -259.196929 
L 100.210317 -258.507802 
L 99.591844 -257.818675 
L 99.005056 -257.129547 
L 98.444751 -256.44042 
L 97.906056 -255.751293 
L 97.384536 -255.062166 
L 96.876227 -254.373038 
L 96.377681 -253.683911 
L 95.88605 -252.994784 
L 95.399238 -252.305657 
L 94.916091 -251.61653 
L 94.436579 -250.927402 
L 93.961917 -250.238275 
L 93.494574 -249.549148 
L 93.038141 -248.860021 
L 92.597059 -248.170894 
L 92.176228 -247.481766 
L 91.780563 -246.792639 
L 91.41453 -246.103512 
L 91.08175 -245.414385 
L 90.784699 -244.725257 
L 90.524545 -244.03613 
L 90.301122 -243.347003 
L 90.113038 -242.657876 
L 89.957876 -241.968749 
L 89.832462 -241.279621 
L 89.733155 -240.590494 
z
" style="stroke: #333333"/>
    </defs>
    <g clip-path="url(#p927b55dd5c)">
     <use xlink:href="#m9f720309d7" x="0" y="360" style="fill: #5875a4; stroke: #333333"/>
    </g>
   </g>
   <g id="FillBetweenPolyCollection_2">
    <defs>
     <path id="m8c67fcb87e" d="M 149.906397 -209.959829 
L 149.634603 -209.959829 
L 149.581661 -210.992679 
L 149.515733 -212.02553 
L 149.436795 -213.058381 
L 149.346124 -214.091231 
L 149.246527 -215.124082 
L 149.14239 -216.156933 
L 149.039475 -217.189783 
L 148.944466 -218.222634 
L 148.86428 -219.255485 
L 148.805249 -220.288335 
L 148.772296 -221.321186 
L 148.768253 -222.354037 
L 148.79345 -223.386887 
L 148.845662 -224.419738 
L 148.920405 -225.452589 
L 149.011533 -226.485439 
L 149.111999 -227.51829 
L 149.214639 -228.55114 
L 149.31284 -229.583991 
L 149.400965 -230.616842 
L 149.474506 -231.649692 
L 149.529968 -232.682543 
L 149.564546 -233.715394 
L 149.575683 -234.748244 
L 149.560629 -235.781095 
L 149.516092 -236.813946 
L 149.438032 -237.846796 
L 149.321659 -238.879647 
L 149.161582 -239.912498 
L 148.952071 -240.945348 
L 148.687342 -241.978199 
L 148.361751 -243.01105 
L 147.969832 -244.0439 
L 147.506139 -245.076751 
L 146.964931 -246.109602 
L 146.339825 -247.142452 
L 145.623579 -248.175303 
L 144.808216 -249.208153 
L 143.885642 -250.241004 
L 142.848817 -251.273855 
L 141.693426 -252.306705 
L 140.419839 -253.339556 
L 139.035056 -254.372407 
L 137.554283 -255.405257 
L 136.001804 -256.438108 
L 134.41093 -257.470959 
L 132.822918 -258.503809 
L 131.284902 -259.53666 
L 129.847023 -260.569511 
L 128.559007 -261.602361 
L 127.466537 -262.635212 
L 126.607749 -263.668063 
L 126.01019 -264.700913 
L 125.688559 -265.733764 
L 125.643433 -266.766614 
L 125.861139 -267.799465 
L 126.31478 -268.832316 
L 126.966325 -269.865166 
L 127.76958 -270.898017 
L 128.673762 -271.930868 
L 129.627398 -272.963718 
L 130.58225 -273.996569 
L 131.496972 -275.02942 
L 132.340229 -276.06227 
L 133.092973 -277.095121 
L 133.749651 -278.127972 
L 134.318091 -279.160822 
L 134.817987 -280.193673 
L 135.278036 -281.226524 
L 135.731963 -282.259374 
L 136.213921 -283.292225 
L 136.75386 -284.325075 
L 137.373527 -285.357926 
L 138.083673 -286.390777 
L 138.88288 -287.423627 
L 139.758112 -288.456478 
L 140.686837 -289.489329 
L 141.640304 -290.522179 
L 142.587403 -291.55503 
L 143.498482 -292.587881 
L 144.348571 -293.620731 
L 145.119615 -294.653582 
L 145.801508 -295.686433 
L 146.391937 -296.719283 
L 146.895237 -297.752134 
L 147.320572 -298.784985 
L 147.679811 -299.817835 
L 147.985484 -300.850686 
L 148.249112 -301.883536 
L 148.480087 -302.916387 
L 148.685179 -303.949238 
L 148.868598 -304.982088 
L 149.032472 -306.014939 
L 149.177544 -307.04779 
L 149.303902 -308.08064 
L 149.411603 -309.113491 
L 149.501085 -310.146342 
L 149.573363 -311.179192 
L 149.630026 -312.212043 
L 149.910974 -312.212043 
L 149.910974 -312.212043 
L 149.967637 -311.179192 
L 150.039915 -310.146342 
L 150.129397 -309.113491 
L 150.237098 -308.08064 
L 150.363456 -307.04779 
L 150.508528 -306.014939 
L 150.672402 -304.982088 
L 150.855821 -303.949238 
L 151.060913 -302.916387 
L 151.291888 -301.883536 
L 151.555516 -300.850686 
L 151.861189 -299.817835 
L 152.220428 -298.784985 
L 152.645763 -297.752134 
L 153.149063 -296.719283 
L 153.739492 -295.686433 
L 154.421385 -294.653582 
L 155.192429 -293.620731 
L 156.042518 -292.587881 
L 156.953597 -291.55503 
L 157.900696 -290.522179 
L 158.854163 -289.489329 
L 159.782888 -288.456478 
L 160.65812 -287.423627 
L 161.457327 -286.390777 
L 162.167473 -285.357926 
L 162.78714 -284.325075 
L 163.327079 -283.292225 
L 163.809037 -282.259374 
L 164.262964 -281.226524 
L 164.723013 -280.193673 
L 165.222909 -279.160822 
L 165.791349 -278.127972 
L 166.448027 -277.095121 
L 167.200771 -276.06227 
L 168.044028 -275.02942 
L 168.95875 -273.996569 
L 169.913602 -272.963718 
L 170.867238 -271.930868 
L 171.77142 -270.898017 
L 172.574675 -269.865166 
L 173.22622 -268.832316 
L 173.679861 -267.799465 
L 173.897567 -266.766614 
L 173.852441 -265.733764 
L 173.53081 -264.700913 
L 172.933251 -263.668063 
L 172.074463 -262.635212 
L 170.981993 -261.602361 
L 169.693977 -260.569511 
L 168.256098 -259.53666 
L 166.718082 -258.503809 
L 165.13007 -257.470959 
L 163.539196 -256.438108 
L 161.986717 -255.405257 
L 160.505944 -254.372407 
L 159.121161 -253.339556 
L 157.847574 -252.306705 
L 156.692183 -251.273855 
L 155.655358 -250.241004 
L 154.732784 -249.208153 
L 153.917421 -248.175303 
L 153.201175 -247.142452 
L 152.576069 -246.109602 
L 152.034861 -245.076751 
L 151.571168 -244.0439 
L 151.179249 -243.01105 
L 150.853658 -241.978199 
L 150.588929 -240.945348 
L 150.379418 -239.912498 
L 150.219341 -238.879647 
L 150.102968 -237.846796 
L 150.024908 -236.813946 
L 149.980371 -235.781095 
L 149.965317 -234.748244 
L 149.976454 -233.715394 
L 150.011032 -232.682543 
L 150.066494 -231.649692 
L 150.140035 -230.616842 
L 150.22816 -229.583991 
L 150.326361 -228.55114 
L 150.429001 -227.51829 
L 150.529467 -226.485439 
L 150.620595 -225.452589 
L 150.695338 -224.419738 
L 150.74755 -223.386887 
L 150.772747 -222.354037 
L 150.768704 -221.321186 
L 150.735751 -220.288335 
L 150.67672 -219.255485 
L 150.596534 -218.222634 
L 150.501525 -217.189783 
L 150.39861 -216.156933 
L 150.294473 -215.124082 
L 150.194876 -214.091231 
L 150.104205 -213.058381 
L 150.025267 -212.02553 
L 149.959339 -210.992679 
L 149.906397 -209.959829 
z
" style="stroke: #333333"/>
    </defs>
    <g clip-path="url(#p927b55dd5c)">
     <use xlink:href="#m8c67fcb87e" x="0" y="360" style="fill: #179292; stroke: #333333"/>
    </g>
   </g>
   <g id="FillBetweenPolyCollection_3">
    <defs>
     <path id="m1c7e58ffdc" d="M 210.47633 -223.93402 
L 209.700004 -223.93402 
L 209.567942 -224.866908 
L 209.400142 -225.799797 
L 209.190133 -226.732685 
L 208.931263 -227.665574 
L 208.617003 -228.598462 
L 208.241323 -229.531351 
L 207.799122 -230.464239 
L 207.286688 -231.397127 
L 206.702159 -232.330016 
L 206.045941 -233.262904 
L 205.321048 -234.195793 
L 204.533316 -235.128681 
L 203.691454 -236.06157 
L 202.806914 -236.994458 
L 201.893557 -237.927347 
L 200.967124 -238.860235 
L 200.044542 -239.793124 
L 199.143094 -240.726012 
L 198.27951 -241.658901 
L 197.469061 -242.591789 
L 196.724693 -243.524678 
L 196.056302 -244.457566 
L 195.47017 -245.390455 
L 194.968636 -246.323343 
L 194.549992 -247.256232 
L 194.20864 -248.18912 
L 193.935461 -249.122009 
L 193.718396 -250.054897 
L 193.543165 -250.987786 
L 193.39411 -251.920674 
L 193.255067 -252.853563 
L 193.11026 -253.786451 
L 192.945138 -254.71934 
L 192.747132 -255.652228 
L 192.506287 -256.585117 
L 192.21576 -257.518005 
L 191.872141 -258.450894 
L 191.475595 -259.383782 
L 191.029825 -260.316671 
L 190.541836 -261.249559 
L 190.021533 -262.182448 
L 189.48117 -263.115336 
L 188.93467 -264.048225 
L 188.396883 -264.981113 
L 187.882825 -265.914002 
L 187.406945 -266.84689 
L 186.98249 -267.779778 
L 186.620999 -268.712667 
L 186.331958 -269.645555 
L 186.122628 -270.578444 
L 185.998037 -271.511332 
L 185.9611 -272.444221 
L 186.012841 -273.377109 
L 186.152653 -274.309998 
L 186.378564 -275.242886 
L 186.687463 -276.175775 
L 187.075266 -277.108663 
L 187.537026 -278.041552 
L 188.066976 -278.97444 
L 188.658562 -279.907329 
L 189.304471 -280.840217 
L 189.996701 -281.773106 
L 190.726705 -282.705994 
L 191.485604 -283.638883 
L 192.26449 -284.571771 
L 193.054777 -285.50466 
L 193.848578 -286.437548 
L 194.639067 -287.370437 
L 195.420764 -288.303325 
L 196.189722 -289.236214 
L 196.943571 -290.169102 
L 197.681423 -291.101991 
L 198.403623 -292.034879 
L 199.111407 -292.967768 
L 199.806471 -293.900656 
L 200.490533 -294.833545 
L 201.164914 -295.766433 
L 201.830208 -296.699322 
L 202.486053 -297.63221 
L 203.13104 -298.565099 
L 203.762746 -299.497987 
L 204.377892 -300.430876 
L 204.972584 -301.363764 
L 205.542618 -302.296653 
L 206.083802 -303.229541 
L 206.592258 -304.162429 
L 207.064692 -305.095318 
L 207.498589 -306.028206 
L 207.892343 -306.961095 
L 208.24531 -307.893983 
L 208.557786 -308.826872 
L 208.830937 -309.75976 
L 209.066674 -310.692649 
L 209.26751 -311.625537 
L 209.436394 -312.558426 
L 209.576553 -313.491314 
L 209.691338 -314.424203 
L 209.784088 -315.357091 
L 209.858026 -316.28998 
L 210.318308 -316.28998 
L 210.318308 -316.28998 
L 210.392245 -315.357091 
L 210.484996 -314.424203 
L 210.59978 -313.491314 
L 210.739939 -312.558426 
L 210.908824 -311.625537 
L 211.109659 -310.692649 
L 211.345396 -309.75976 
L 211.618547 -308.826872 
L 211.931023 -307.893983 
L 212.28399 -306.961095 
L 212.677745 -306.028206 
L 213.111642 -305.095318 
L 213.584075 -304.162429 
L 214.092532 -303.229541 
L 214.633715 -302.296653 
L 215.20375 -301.363764 
L 215.798441 -300.430876 
L 216.413587 -299.497987 
L 217.045293 -298.565099 
L 217.69028 -297.63221 
L 218.346126 -296.699322 
L 219.01142 -295.766433 
L 219.685801 -294.833545 
L 220.369862 -293.900656 
L 221.064926 -292.967768 
L 221.77271 -292.034879 
L 222.494911 -291.101991 
L 223.232762 -290.169102 
L 223.986612 -289.236214 
L 224.75557 -288.303325 
L 225.537267 -287.370437 
L 226.327755 -286.437548 
L 227.121557 -285.50466 
L 227.911843 -284.571771 
L 228.690729 -283.638883 
L 229.449629 -282.705994 
L 230.179632 -281.773106 
L 230.871862 -280.840217 
L 231.517771 -279.907329 
L 232.109357 -278.97444 
L 232.639308 -278.041552 
L 233.101067 -277.108663 
L 233.48887 -276.175775 
L 233.797769 -275.242886 
L 234.02368 -274.309998 
L 234.163492 -273.377109 
L 234.215233 -272.444221 
L 234.178297 -271.511332 
L 234.053705 -270.578444 
L 233.844375 -269.645555 
L 233.555334 -268.712667 
L 233.193843 -267.779778 
L 232.769388 -266.84689 
L 232.293508 -265.914002 
L 231.77945 -264.981113 
L 231.241664 -264.048225 
L 230.695163 -263.115336 
L 230.1548 -262.182448 
L 229.634498 -261.249559 
L 229.146508 -260.316671 
L 228.700738 -259.383782 
L 228.304192 -258.450894 
L 227.960573 -257.518005 
L 227.670046 -256.585117 
L 227.429202 -255.652228 
L 227.231195 -254.71934 
L 227.066073 -253.786451 
L 226.921267 -252.853563 
L 226.782224 -251.920674 
L 226.633168 -250.987786 
L 226.457938 -250.054897 
L 226.240872 -249.122009 
L 225.967693 -248.18912 
L 225.626341 -247.256232 
L 225.207698 -246.323343 
L 224.706163 -245.390455 
L 224.120032 -244.457566 
L 223.45164 -243.524678 
L 222.707273 -242.591789 
L 221.896823 -241.658901 
L 221.033239 -240.726012 
L 220.131791 -239.793124 
L 219.209209 -238.860235 
L 218.282777 -237.927347 
L 217.369419 -236.994458 
L 216.484879 -236.06157 
L 215.643017 -235.128681 
L 214.855285 -234.195793 
L 214.130393 -233.262904 
L 213.474175 -232.330016 
L 212.889645 -231.397127 
L 212.377211 -230.464239 
L 211.93501 -229.531351 
L 211.559331 -228.598462 
L 211.245071 -227.665574 
L 210.9862 -226.732685 
L 210.776191 -225.799797 
L 210.608391 -224.866908 
L 210.47633 -223.93402 
z
" style="stroke: #333333"/>
    </defs>
    <g clip-path="url(#p927b55dd5c)">
     <use xlink:href="#m1c7e58ffdc" x="0" y="360" style="fill: #8bc85f; stroke: #333333"/>
    </g>
   </g>
   <g id="FillBetweenPolyCollection_4">
    <defs>
     <path id="mce1b9960e2" d="M 270.532713 -224.440966 
L 270.278954 -224.440966 
L 270.232376 -225.679928 
L 270.174784 -226.918889 
L 270.105924 -228.157851 
L 270.026388 -229.396813 
L 269.937757 -230.635775 
L 269.842605 -231.874736 
L 269.744347 -233.113698 
L 269.646902 -234.35266 
L 269.554201 -235.591622 
L 269.469587 -236.830583 
L 269.395202 -238.069545 
L 269.33147 -239.308507 
L 269.276766 -240.547469 
L 269.227376 -241.78643 
L 269.177749 -243.025392 
L 269.121048 -244.264354 
L 269.04989 -245.503316 
L 268.95716 -246.742277 
L 268.836734 -247.981239 
L 268.683963 -249.220201 
L 268.495787 -250.459162 
L 268.270421 -251.698124 
L 268.006611 -252.937086 
L 267.702561 -254.176048 
L 267.354681 -255.415009 
L 266.9564 -256.653971 
L 266.497292 -257.892933 
L 265.962789 -259.131895 
L 265.334674 -260.370856 
L 264.592499 -261.609818 
L 263.715884 -262.84878 
L 262.687572 -264.087742 
L 261.496876 -265.326703 
L 260.143124 -266.565665 
L 258.638539 -267.804627 
L 257.010085 -269.043589 
L 255.299829 -270.28255 
L 253.563589 -271.521512 
L 251.867812 -272.760474 
L 250.284926 -273.999436 
L 248.887595 -275.238397 
L 247.742492 -276.477359 
L 246.904317 -277.716321 
L 246.410727 -278.955283 
L 246.278767 -280.194244 
L 246.50319 -281.433206 
L 247.056831 -282.672168 
L 247.89295 -283.911129 
L 248.949293 -285.150091 
L 250.153421 -286.389053 
L 251.428801 -287.628015 
L 252.70109 -288.866976 
L 253.90404 -290.105938 
L 254.984509 -291.3449 
L 255.906137 -292.583862 
L 256.651322 -293.822823 
L 257.221346 -295.061785 
L 257.634643 -296.300747 
L 257.923416 -297.539709 
L 258.129053 -298.77867 
L 258.296877 -300.017632 
L 258.470923 -301.256594 
L 258.689362 -302.495556 
L 258.981081 -303.734517 
L 259.363759 -304.973479 
L 259.843493 -306.212441 
L 260.415805 -307.451403 
L 261.067691 -308.690364 
L 261.780244 -309.929326 
L 262.53138 -311.168288 
L 263.298294 -312.40725 
L 264.059375 -313.646211 
L 264.795495 -314.885173 
L 265.490724 -316.124135 
L 266.132577 -317.363097 
L 266.712013 -318.602058 
L 267.223297 -319.84102 
L 267.663858 -321.079982 
L 268.034157 -322.318943 
L 268.337532 -323.557905 
L 268.579957 -324.796867 
L 268.76964 -326.035829 
L 268.916431 -327.27479 
L 269.031047 -328.513752 
L 269.12418 -329.752714 
L 269.205607 -330.991676 
L 269.283412 -332.230637 
L 269.363441 -333.469599 
L 269.449061 -334.708561 
L 269.541238 -335.947523 
L 269.638907 -337.186484 
L 269.739533 -338.425446 
L 269.839777 -339.664408 
L 269.936136 -340.90337 
L 270.025482 -342.142331 
L 270.10543 -343.381293 
L 270.174522 -344.620255 
L 270.23224 -345.859217 
L 270.278886 -347.098178 
L 270.532781 -347.098178 
L 270.532781 -347.098178 
L 270.579427 -345.859217 
L 270.637144 -344.620255 
L 270.706236 -343.381293 
L 270.786185 -342.142331 
L 270.875531 -340.90337 
L 270.97189 -339.664408 
L 271.072133 -338.425446 
L 271.17276 -337.186484 
L 271.270428 -335.947523 
L 271.362606 -334.708561 
L 271.448226 -333.469599 
L 271.528254 -332.230637 
L 271.606059 -330.991676 
L 271.687487 -329.752714 
L 271.78062 -328.513752 
L 271.895235 -327.27479 
L 272.042026 -326.035829 
L 272.231709 -324.796867 
L 272.474134 -323.557905 
L 272.77751 -322.318943 
L 273.147809 -321.079982 
L 273.58837 -319.84102 
L 274.099654 -318.602058 
L 274.679089 -317.363097 
L 275.320943 -316.124135 
L 276.016171 -314.885173 
L 276.752292 -313.646211 
L 277.513372 -312.40725 
L 278.280286 -311.168288 
L 279.031423 -309.929326 
L 279.743976 -308.690364 
L 280.395862 -307.451403 
L 280.968174 -306.212441 
L 281.447907 -304.973479 
L 281.830586 -303.734517 
L 282.122305 -302.495556 
L 282.340743 -301.256594 
L 282.51479 -300.017632 
L 282.682614 -298.77867 
L 282.88825 -297.539709 
L 283.177024 -296.300747 
L 283.59032 -295.061785 
L 284.160345 -293.822823 
L 284.90553 -292.583862 
L 285.827157 -291.3449 
L 286.907627 -290.105938 
L 288.110576 -288.866976 
L 289.382865 -287.628015 
L 290.658246 -286.389053 
L 291.862374 -285.150091 
L 292.918717 -283.911129 
L 293.754836 -282.672168 
L 294.308476 -281.433206 
L 294.5329 -280.194244 
L 294.40094 -278.955283 
L 293.90735 -277.716321 
L 293.069175 -276.477359 
L 291.924072 -275.238397 
L 290.52674 -273.999436 
L 288.943855 -272.760474 
L 287.248078 -271.521512 
L 285.511838 -270.28255 
L 283.801582 -269.043589 
L 282.173128 -267.804627 
L 280.668543 -266.565665 
L 279.31479 -265.326703 
L 278.124095 -264.087742 
L 277.095782 -262.84878 
L 276.219168 -261.609818 
L 275.476992 -260.370856 
L 274.848878 -259.131895 
L 274.314374 -257.892933 
L 273.855267 -256.653971 
L 273.456985 -255.415009 
L 273.109106 -254.176048 
L 272.805056 -252.937086 
L 272.541246 -251.698124 
L 272.31588 -250.459162 
L 272.127704 -249.220201 
L 271.974933 -247.981239 
L 271.854507 -246.742277 
L 271.761777 -245.503316 
L 271.690619 -244.264354 
L 271.633918 -243.025392 
L 271.584291 -241.78643 
L 271.5349 -240.547469 
L 271.480197 -239.308507 
L 271.416464 -238.069545 
L 271.34208 -236.830583 
L 271.257465 -235.591622 
L 271.164764 -234.35266 
L 271.067319 -233.113698 
L 270.969061 -231.874736 
L 270.87391 -230.635775 
L 270.785279 -229.396813 
L 270.705743 -228.157851 
L 270.636882 -226.918889 
L 270.579291 -225.679928 
L 270.532713 -224.440966 
z
" style="stroke: #333333"/>
    </defs>
    <g clip-path="url(#p927b55dd5c)">
     <use xlink:href="#mce1b9960e2" x="0" y="360" style="fill: #8bc85f; stroke: #333333"/>
    </g>
   </g>
   <g id="FillBetweenPolyCollection_5">
    <defs>
     <path id="m89c8bcf36c" d="M 331.129197 -213.63068 
L 330.317803 -213.63068 
L 330.193478 -214.281608 
L 330.038707 -214.932536 
L 329.848348 -215.583464 
L 329.616998 -216.234392 
L 329.33911 -216.88532 
L 329.00916 -217.536248 
L 328.621825 -218.187176 
L 328.172181 -218.838104 
L 327.655925 -219.489032 
L 327.069585 -220.13996 
L 326.410744 -220.790888 
L 325.678247 -221.441817 
L 324.872391 -222.092745 
L 323.995091 -222.743673 
L 323.050016 -223.394601 
L 322.04268 -224.045529 
L 320.980483 -224.696457 
L 319.872689 -225.347385 
L 318.730344 -225.998313 
L 317.566106 -226.649241 
L 316.394 -227.300169 
L 315.229087 -227.951097 
L 314.087055 -228.602025 
L 312.983742 -229.252953 
L 311.934611 -229.903881 
L 310.954207 -230.55481 
L 310.05561 -231.205738 
L 309.249945 -231.856666 
L 308.545956 -232.507594 
L 307.949695 -233.158522 
L 307.464337 -233.80945 
L 307.090138 -234.460378 
L 306.824544 -235.111306 
L 306.662425 -235.762234 
L 306.596433 -236.413162 
L 306.617433 -237.06409 
L 306.714976 -237.715018 
L 306.877779 -238.365946 
L 307.094163 -239.016874 
L 307.35243 -239.667803 
L 307.641148 -240.318731 
L 307.949341 -240.969659 
L 308.266588 -241.620587 
L 308.583047 -242.271515 
L 308.889438 -242.922443 
L 309.177 -243.573371 
L 309.43748 -244.224299 
L 309.663156 -244.875227 
L 309.846944 -245.526155 
L 309.982567 -246.177083 
L 310.064806 -246.828011 
L 310.0898 -247.478939 
L 310.055369 -248.129868 
L 309.961324 -248.780796 
L 309.809728 -249.431724 
L 309.605062 -250.082652 
L 309.354283 -250.73358 
L 309.066737 -251.384508 
L 308.753951 -252.035436 
L 308.429286 -252.686364 
L 308.107496 -253.337292 
L 307.80421 -253.98822 
L 307.535377 -254.639148 
L 307.316709 -255.290076 
L 307.163147 -255.941004 
L 307.088379 -256.591932 
L 307.104426 -257.242861 
L 307.221289 -257.893789 
L 307.446681 -258.544717 
L 307.785821 -259.195645 
L 308.241292 -259.846573 
L 308.812958 -260.497501 
L 309.497951 -261.148429 
L 310.290703 -261.799357 
L 311.18306 -262.450285 
L 312.164462 -263.101213 
L 313.222202 -263.752141 
L 314.341762 -264.403069 
L 315.507236 -265.053997 
L 316.701801 -265.704925 
L 317.908254 -266.355854 
L 319.10956 -267.006782 
L 320.289401 -267.65771 
L 321.432691 -268.308638 
L 322.526027 -268.959566 
L 323.558053 -269.610494 
L 324.519715 -270.261422 
L 325.404406 -270.91235 
L 326.207982 -271.563278 
L 326.928675 -272.214206 
L 327.566904 -272.865134 
L 328.125007 -273.516062 
L 328.60692 -274.16699 
L 329.017824 -274.817919 
L 329.363786 -275.468847 
L 329.65141 -276.119775 
L 329.887526 -276.770703 
L 330.078916 -277.421631 
L 330.232093 -278.072559 
L 331.214907 -278.072559 
L 331.214907 -278.072559 
L 331.368084 -277.421631 
L 331.559474 -276.770703 
L 331.79559 -276.119775 
L 332.083214 -275.468847 
L 332.429176 -274.817919 
L 332.84008 -274.16699 
L 333.321993 -273.516062 
L 333.880096 -272.865134 
L 334.518325 -272.214206 
L 335.239018 -271.563278 
L 336.042594 -270.91235 
L 336.927285 -270.261422 
L 337.888947 -269.610494 
L 338.920973 -268.959566 
L 340.014309 -268.308638 
L 341.157599 -267.65771 
L 342.33744 -267.006782 
L 343.538746 -266.355854 
L 344.745199 -265.704925 
L 345.939764 -265.053997 
L 347.105238 -264.403069 
L 348.224798 -263.752141 
L 349.282538 -263.101213 
L 350.26394 -262.450285 
L 351.156297 -261.799357 
L 351.949049 -261.148429 
L 352.634042 -260.497501 
L 353.205708 -259.846573 
L 353.661179 -259.195645 
L 354.000319 -258.544717 
L 354.225711 -257.893789 
L 354.342574 -257.242861 
L 354.358621 -256.591932 
L 354.283853 -255.941004 
L 354.130291 -255.290076 
L 353.911623 -254.639148 
L 353.64279 -253.98822 
L 353.339504 -253.337292 
L 353.017714 -252.686364 
L 352.693049 -252.035436 
L 352.380263 -251.384508 
L 352.092717 -250.73358 
L 351.841938 -250.082652 
L 351.637272 -249.431724 
L 351.485676 -248.780796 
L 351.391631 -248.129868 
L 351.3572 -247.478939 
L 351.382194 -246.828011 
L 351.464433 -246.177083 
L 351.600056 -245.526155 
L 351.783844 -244.875227 
L 352.00952 -244.224299 
L 352.27 -243.573371 
L 352.557562 -242.922443 
L 352.863953 -242.271515 
L 353.180412 -241.620587 
L 353.497659 -240.969659 
L 353.805852 -240.318731 
L 354.09457 -239.667803 
L 354.352837 -239.016874 
L 354.569221 -238.365946 
L 354.732024 -237.715018 
L 354.829567 -237.06409 
L 354.850567 -236.413162 
L 354.784575 -235.762234 
L 354.622456 -235.111306 
L 354.356862 -234.460378 
L 353.982663 -233.80945 
L 353.497305 -233.158522 
L 352.901044 -232.507594 
L 352.197055 -231.856666 
L 351.39139 -231.205738 
L 350.492793 -230.55481 
L 349.512389 -229.903881 
L 348.463258 -229.252953 
L 347.359945 -228.602025 
L 346.217913 -227.951097 
L 345.053 -227.300169 
L 343.880894 -226.649241 
L 342.716656 -225.998313 
L 341.574311 -225.347385 
L 340.466517 -224.696457 
L 339.40432 -224.045529 
L 338.396984 -223.394601 
L 337.451909 -222.743673 
L 336.574609 -222.092745 
L 335.768753 -221.441817 
L 335.036256 -220.790888 
L 334.377415 -220.13996 
L 333.791075 -219.489032 
L 333.274819 -218.838104 
L 332.825175 -218.187176 
L 332.43784 -217.536248 
L 332.10789 -216.88532 
L 331.830002 -216.234392 
L 331.598652 -215.583464 
L 331.408293 -214.932536 
L 331.253522 -214.281608 
L 331.129197 -213.63068 
z
" style="stroke: #333333"/>
    </defs>
    <g clip-path="url(#p927b55dd5c)">
     <use xlink:href="#m89c8bcf36c" x="0" y="360" style="fill: #e59aa7; stroke: #333333"/>
    </g>
   </g>
   <g id="FillBetweenPolyCollection_6">
    <defs>
     <path id="m2c8edc9f02" d="M 391.184824 -250.613758 
L 390.897509 -250.613758 
L 390.849473 -251.70771 
L 390.790382 -252.801662 
L 390.719418 -253.895614 
L 390.636234 -254.989566 
L 390.541079 -256.083518 
L 390.434882 -257.17747 
L 390.319281 -258.271422 
L 390.196583 -259.365374 
L 390.069641 -260.459326 
L 389.941672 -261.553279 
L 389.816001 -262.647231 
L 389.695779 -263.741183 
L 389.583669 -264.835135 
L 389.481538 -265.929087 
L 389.390166 -267.023039 
L 389.308978 -268.116991 
L 389.235812 -269.210943 
L 389.166735 -270.304895 
L 389.095919 -271.398847 
L 389.015591 -272.492799 
L 388.916107 -273.586751 
L 388.786164 -274.680703 
L 388.613183 -275.774655 
L 388.383888 -276.868607 
L 388.085055 -277.96256 
L 387.704393 -279.056512 
L 387.231477 -280.150464 
L 386.658642 -281.244416 
L 385.981708 -282.338368 
L 385.200449 -283.43232 
L 384.318734 -284.526272 
L 383.344312 -285.620224 
L 382.288276 -286.714176 
L 381.164312 -287.808128 
L 379.987831 -288.90208 
L 378.775144 -289.996032 
L 377.542809 -291.089984 
L 376.307211 -292.183936 
L 375.084414 -293.277888 
L 373.890244 -294.37184 
L 372.74049 -295.465793 
L 371.651107 -296.559745 
L 370.638288 -297.653697 
L 369.718295 -298.747649 
L 368.907018 -299.841601 
L 368.219274 -300.935553 
L 367.667936 -302.029505 
L 367.26304 -303.123457 
L 367.011 -304.217409 
L 366.9141 -305.311361 
L 366.970335 -306.405313 
L 367.173647 -307.499265 
L 367.514513 -308.593217 
L 367.980782 -309.687169 
L 368.558621 -310.781121 
L 369.23343 -311.875074 
L 369.990584 -312.969026 
L 370.815924 -314.062978 
L 371.695975 -315.15693 
L 372.617916 -316.250882 
L 373.569373 -317.344834 
L 374.538155 -318.438786 
L 375.512016 -319.532738 
L 376.478546 -320.62669 
L 377.425225 -321.720642 
L 378.339672 -322.814594 
L 379.210058 -323.908546 
L 380.025628 -325.002498 
L 380.777277 -326.09645 
L 381.458098 -327.190402 
L 382.063848 -328.284354 
L 382.593277 -329.378307 
L 383.048279 -330.472259 
L 383.43386 -331.566211 
L 383.757905 -332.660163 
L 384.030762 -333.754115 
L 384.264666 -334.848067 
L 384.473022 -335.942019 
L 384.669595 -337.035971 
L 384.867662 -338.129923 
L 385.079156 -339.223875 
L 385.313898 -340.317827 
L 385.578953 -341.411779 
L 385.87819 -342.505731 
L 386.212085 -343.599683 
L 386.577794 -344.693635 
L 386.96951 -345.787588 
L 387.379058 -346.88154 
L 387.796682 -347.975492 
L 388.211927 -349.069444 
L 388.614534 -350.163396 
L 388.995244 -351.257348 
L 389.34644 -352.3513 
L 389.662561 -353.445252 
L 389.940287 -354.539204 
L 390.178482 -355.633156 
L 390.377962 -356.727108 
L 390.541114 -357.82106 
L 390.671459 -358.915012 
L 391.410874 -358.915012 
L 391.410874 -358.915012 
L 391.541219 -357.82106 
L 391.704372 -356.727108 
L 391.903851 -355.633156 
L 392.142047 -354.539204 
L 392.419772 -353.445252 
L 392.735894 -352.3513 
L 393.087089 -351.257348 
L 393.4678 -350.163396 
L 393.870406 -349.069444 
L 394.285651 -347.975492 
L 394.703275 -346.88154 
L 395.112824 -345.787588 
L 395.50454 -344.693635 
L 395.870248 -343.599683 
L 396.204143 -342.505731 
L 396.50338 -341.411779 
L 396.768435 -340.317827 
L 397.003177 -339.223875 
L 397.214671 -338.129923 
L 397.412738 -337.035971 
L 397.609312 -335.942019 
L 397.817667 -334.848067 
L 398.051571 -333.754115 
L 398.324429 -332.660163 
L 398.648473 -331.566211 
L 399.034054 -330.472259 
L 399.489056 -329.378307 
L 400.018485 -328.284354 
L 400.624235 -327.190402 
L 401.305056 -326.09645 
L 402.056705 -325.002498 
L 402.872276 -323.908546 
L 403.742662 -322.814594 
L 404.657109 -321.720642 
L 405.603787 -320.62669 
L 406.570317 -319.532738 
L 407.544179 -318.438786 
L 408.512961 -317.344834 
L 409.464417 -316.250882 
L 410.386358 -315.15693 
L 411.266409 -314.062978 
L 412.091749 -312.969026 
L 412.848903 -311.875074 
L 413.523712 -310.781121 
L 414.101551 -309.687169 
L 414.56782 -308.593217 
L 414.908687 -307.499265 
L 415.111999 -306.405313 
L 415.168233 -305.311361 
L 415.071333 -304.217409 
L 414.819293 -303.123457 
L 414.414397 -302.029505 
L 413.86306 -300.935553 
L 413.175315 -299.841601 
L 412.364038 -298.747649 
L 411.444045 -297.653697 
L 410.431226 -296.559745 
L 409.341843 -295.465793 
L 408.192089 -294.37184 
L 406.997919 -293.277888 
L 405.775123 -292.183936 
L 404.539524 -291.089984 
L 403.307189 -289.996032 
L 402.094503 -288.90208 
L 400.918021 -287.808128 
L 399.794057 -286.714176 
L 398.738022 -285.620224 
L 397.763599 -284.526272 
L 396.881884 -283.43232 
L 396.100626 -282.338368 
L 395.423691 -281.244416 
L 394.850856 -280.150464 
L 394.377941 -279.056512 
L 393.997278 -277.96256 
L 393.698445 -276.868607 
L 393.469151 -275.774655 
L 393.29617 -274.680703 
L 393.166226 -273.586751 
L 393.066743 -272.492799 
L 392.986415 -271.398847 
L 392.915598 -270.304895 
L 392.846521 -269.210943 
L 392.773355 -268.116991 
L 392.692167 -267.023039 
L 392.600795 -265.929087 
L 392.498665 -264.835135 
L 392.386554 -263.741183 
L 392.266332 -262.647231 
L 392.140661 -261.553279 
L 392.012692 -260.459326 
L 391.885751 -259.365374 
L 391.763052 -258.271422 
L 391.647452 -257.17747 
L 391.541254 -256.083518 
L 391.446099 -254.989566 
L 391.362915 -253.895614 
L 391.291951 -252.801662 
L 391.23286 -251.70771 
L 391.184824 -250.613758 
z
" style="stroke: #333333"/>
    </defs>
    <g clip-path="url(#p927b55dd5c)">
     <use xlink:href="#m2c8edc9f02" x="0" y="360" style="fill: #e59aa7; stroke: #333333"/>
    </g>
   </g>
   <g id="matplotlib.axis_1"/>
   <g id="matplotlib.axis_2">
    <g id="ytick_1">
     <g id="line2d_1">
      <defs>
       <path id="m557b60bf26" d="M 0 0 
L -3.5 0 
" style="stroke: #000000; stroke-width: 0.8"/>
      </defs>
      <g>
       <use xlink:href="#m557b60bf26" x="59.294" y="125.985" style="stroke: #000000; stroke-width: 0.8"/>
      </g>
     </g>
     <g id="text_1">
      <text style="font-size: 10px; font-family: 'DejaVu Sans', 'Bitstream Vera Sans', 'Computer Modern Sans Serif', 'Lucida Grande', 'Verdana', 'Geneva', 'Lucid', 'Arial', 'Helvetica', 'Avant Garde', sans-serif; text-anchor: end" x="52.294" y="129.784219" transform="rotate(-0 52.294 129.784219)">0.0</text>
     </g>
    </g>
    <g id="ytick_2">
     <g id="line2d_2">
      <g>
       <use xlink:href="#m557b60bf26" x="59.294" y="26.88" style="stroke: #000000; stroke-width: 0.8"/>
      </g>
     </g>
     <g id="text_2">
      <text style="font-size: 10px; font-family: 'DejaVu Sans', 'Bitstream Vera Sans', 'Computer Modern Sans Serif', 'Lucida Grande', 'Verdana', 'Geneva', 'Lucid', 'Arial', 'Helvetica', 'Avant Garde', sans-serif; text-anchor: end" x="52.294" y="30.679219" transform="rotate(-0 52.294 30.679219)">0.3</text>
     </g>
    </g>
    <g id="text_3">
     <text style="font-size: 10px; font-family: 'DejaVu Sans', 'Bitstream Vera Sans', 'Computer Modern Sans Serif', 'Lucida Grande', 'Verdana', 'Geneva', 'Lucid', 'Arial', 'Helvetica', 'Avant Garde', sans-serif" transform="translate(19.113375 115.208594) rotate(-90)">pearsonr</text>
     <text style="font-size: 10px; font-family: 'DejaVu Sans', 'Bitstream Vera Sans', 'Computer Modern Sans Serif', 'Lucida Grande', 'Verdana', 'Geneva', 'Lucid', 'Arial', 'Helvetica', 'Avant Garde', sans-serif" transform="translate(30.311188 119.776562) rotate(-90)">correlation</text>
    </g>
   </g>
   <g id="line2d_3">
    <path d="M 68.652708 93.159595 
L 110.252959 93.159595 
" clip-path="url(#p927b55dd5c)" style="fill: none; stroke-dasharray: 1.25,0.75; stroke-dashoffset: 0; stroke: #333333"/>
   </g>
   <g id="line2d_4">
    <path d="M 65.489502 87.8087 
L 113.416165 87.8087 
" clip-path="url(#p927b55dd5c)" style="fill: none; stroke-dasharray: 2.5,1; stroke-dashoffset: 0; stroke: #333333"/>
   </g>
   <g id="line2d_5">
    <path d="M 67.177212 80.487375 
L 111.728455 80.487375 
" clip-path="url(#p927b55dd5c)" style="fill: none; stroke-dasharray: 1.25,0.75; stroke-dashoffset: 0; stroke: #333333"/>
   </g>
   <g id="line2d_6">
    <path d="M 127.448522 97.343122 
L 172.092478 97.343122 
" clip-path="url(#p927b55dd5c)" style="fill: none; stroke-dasharray: 1.25,0.75; stroke-dashoffset: 0; stroke: #333333"/>
   </g>
   <g id="line2d_7">
    <path d="M 126.148133 91.547106 
L 173.392867 91.547106 
" clip-path="url(#p927b55dd5c)" style="fill: none; stroke-dasharray: 2.5,1; stroke-dashoffset: 0; stroke: #333333"/>
   </g>
   <g id="line2d_8">
    <path d="M 134.258234 80.947937 
L 165.282766 80.947937 
" clip-path="url(#p927b55dd5c)" style="fill: none; stroke-dasharray: 1.25,0.75; stroke-dashoffset: 0; stroke: #333333"/>
   </g>
   <g id="line2d_9">
    <path d="M 192.717693 104.233745 
L 227.45864 104.233745 
" clip-path="url(#p927b55dd5c)" style="fill: none; stroke-dasharray: 1.25,0.75; stroke-dashoffset: 0; stroke: #333333"/>
   </g>
   <g id="line2d_10">
    <path d="M 186.481692 90.837715 
L 233.694642 90.837715 
" clip-path="url(#p927b55dd5c)" style="fill: none; stroke-dasharray: 2.5,1; stroke-dashoffset: 0; stroke: #333333"/>
   </g>
   <g id="line2d_11">
    <path d="M 188.878667 79.774772 
L 231.297666 79.774772 
" clip-path="url(#p927b55dd5c)" style="fill: none; stroke-dasharray: 1.25,0.75; stroke-dashoffset: 0; stroke: #333333"/>
   </g>
   <g id="line2d_12">
    <path d="M 247.234284 82.771426 
L 293.577382 82.771426 
" clip-path="url(#p927b55dd5c)" style="fill: none; stroke-dasharray: 1.25,0.75; stroke-dashoffset: 0; stroke: #333333"/>
   </g>
   <g id="line2d_13">
    <path d="M 246.568115 78.421503 
L 294.243552 78.421503 
" clip-path="url(#p927b55dd5c)" style="fill: none; stroke-dasharray: 2.5,1; stroke-dashoffset: 0; stroke: #333333"/>
   </g>
   <g id="line2d_14">
    <path d="M 258.224217 60.518782 
L 282.58745 60.518782 
" clip-path="url(#p927b55dd5c)" style="fill: none; stroke-dasharray: 1.25,0.75; stroke-dashoffset: 0; stroke: #333333"/>
   </g>
   <g id="line2d_15">
    <path d="M 306.63413 123.95867 
L 354.81287 123.95867 
" clip-path="url(#p927b55dd5c)" style="fill: none; stroke-dasharray: 1.25,0.75; stroke-dashoffset: 0; stroke: #333333"/>
   </g>
   <g id="line2d_16">
    <path d="M 309.769792 114.747094 
L 351.677208 114.747094 
" clip-path="url(#p927b55dd5c)" style="fill: none; stroke-dasharray: 2.5,1; stroke-dashoffset: 0; stroke: #333333"/>
   </g>
   <g id="line2d_17">
    <path d="M 307.090902 103.305728 
L 354.356098 103.305728 
" clip-path="url(#p927b55dd5c)" style="fill: none; stroke-dasharray: 1.25,0.75; stroke-dashoffset: 0; stroke: #333333"/>
   </g>
   <g id="line2d_18">
    <path d="M 369.608593 61.104426 
L 412.47374 61.104426 
" clip-path="url(#p927b55dd5c)" style="fill: none; stroke-dasharray: 1.25,0.75; stroke-dashoffset: 0; stroke: #333333"/>
   </g>
   <g id="line2d_19">
    <path d="M 367.084734 52.979146 
L 414.9976 52.979146 
" clip-path="url(#p927b55dd5c)" style="fill: none; stroke-dasharray: 2.5,1; stroke-dashoffset: 0; stroke: #333333"/>
   </g>
   <g id="line2d_20">
    <path d="M 373.594525 42.626764 
L 408.487808 42.626764 
" clip-path="url(#p927b55dd5c)" style="fill: none; stroke-dasharray: 1.25,0.75; stroke-dashoffset: 0; stroke: #333333"/>
   </g>
   <g id="line2d_21">
    <path d="M 59.294 125.985 
L 421.2 125.985 
" clip-path="url(#p927b55dd5c)" style="fill: none; stroke: #000000; stroke-width: 0.8; stroke-linecap: square"/>
   </g>
   <g id="patch_3">
    <path d="M 59.294 159.02 
L 59.294 26.88 
" style="fill: none; stroke: #000000; stroke-width: 0.8; stroke-linejoin: miter; stroke-linecap: square"/>
   </g>
   <g id="text_4">
    <text style="font-size: 12px; font-family: 'DejaVu Sans', 'Bitstream Vera Sans', 'Computer Modern Sans Serif', 'Lucida Grande', 'Verdana', 'Geneva', 'Lucid', 'Arial', 'Helvetica', 'Avant Garde', sans-serif; text-anchor: middle" x="240.247" y="20.88" transform="rotate(-0 240.247 20.88)">distances correlation across folds</text>
   </g>
  </g>
  <g id="axes_2">
   <g id="patch_4">
    <path d="M 59.294 318.04 
L 421.2 318.04 
L 421.2 185.9 
L 59.294 185.9 
z
" style="fill: #ffffff"/>
   </g>
   <g id="FillBetweenPolyCollection_7">
    <defs>
     <path id="m27f9cdbab8" d="M 89.697331 -112.044392 
L 89.208336 -112.044392 
L 89.112306 -112.419239 
L 88.988278 -112.794086 
L 88.831695 -113.168933 
L 88.638307 -113.54378 
L 88.404431 -113.918627 
L 88.127145 -114.293474 
L 87.804405 -114.668321 
L 87.435035 -115.043168 
L 87.01862 -115.418016 
L 86.555312 -115.792863 
L 86.045596 -116.16771 
L 85.490088 -116.542557 
L 84.889402 -116.917404 
L 84.244138 -117.292251 
L 83.554987 -117.667098 
L 82.822926 -118.041945 
L 82.04947 -118.416792 
L 81.236904 -118.791639 
L 80.388452 -119.166486 
L 79.508353 -119.541333 
L 78.601824 -119.91618 
L 77.674923 -120.291028 
L 76.73434 -120.665875 
L 75.787136 -121.040722 
L 74.84046 -121.415569 
L 73.901276 -121.790416 
L 72.976124 -122.165263 
L 72.070975 -122.54011 
L 71.191222 -122.914957 
L 70.341859 -123.289804 
L 69.527887 -123.664651 
L 68.754905 -124.039498 
L 68.029827 -124.414345 
L 67.361566 -124.789193 
L 66.761517 -125.16404 
L 66.243653 -125.538887 
L 65.824112 -125.913734 
L 65.52023 -126.288581 
L 65.349089 -126.663428 
L 65.325767 -127.038275 
L 65.461537 -127.413122 
L 65.762295 -127.787969 
L 66.227459 -128.162816 
L 66.849528 -128.537663 
L 67.614345 -128.91251 
L 68.502048 -129.287358 
L 69.488554 -129.662205 
L 70.547395 -130.037052 
L 71.651664 -130.411899 
L 72.775853 -130.786746 
L 73.897378 -131.161593 
L 74.997667 -131.53644 
L 76.062697 -131.911287 
L 77.08301 -132.286134 
L 78.053246 -132.660981 
L 78.971333 -133.035828 
L 79.83749 -133.410675 
L 80.653235 -133.785522 
L 81.420534 -134.16037 
L 82.141221 -134.535217 
L 82.816724 -134.910064 
L 83.44806 -135.284911 
L 84.036034 -135.659758 
L 84.58151 -136.034605 
L 85.085649 -136.409452 
L 85.550019 -136.784299 
L 85.976538 -137.159146 
L 86.367265 -137.533993 
L 86.724098 -137.90884 
L 87.048462 -138.283687 
L 87.341069 -138.658535 
L 87.601836 -139.033382 
L 87.829988 -139.408229 
L 88.024343 -139.783076 
L 88.183744 -140.157923 
L 88.307565 -140.53277 
L 88.396205 -140.907617 
L 88.451482 -141.282464 
L 88.476863 -141.657311 
L 88.477471 -142.032158 
L 88.459859 -142.407005 
L 88.431571 -142.781852 
L 88.400535 -143.1567 
L 88.374373 -143.531547 
L 88.35972 -143.906394 
L 88.361633 -144.281241 
L 88.383196 -144.656088 
L 88.425339 -145.030935 
L 88.486923 -145.405782 
L 88.565043 -145.780629 
L 88.655506 -146.155476 
L 88.75341 -146.530323 
L 88.853725 -146.90517 
L 88.95181 -147.280017 
L 89.043811 -147.654864 
L 89.126892 -148.029712 
L 89.199313 -148.404559 
L 89.260367 -148.779406 
L 89.310222 -149.154253 
L 89.595445 -149.154253 
L 89.595445 -149.154253 
L 89.6453 -148.779406 
L 89.706354 -148.404559 
L 89.778775 -148.029712 
L 89.861856 -147.654864 
L 89.953857 -147.280017 
L 90.051942 -146.90517 
L 90.152256 -146.530323 
L 90.25016 -146.155476 
L 90.340624 -145.780629 
L 90.418744 -145.405782 
L 90.480328 -145.030935 
L 90.522471 -144.656088 
L 90.544033 -144.281241 
L 90.545947 -143.906394 
L 90.531293 -143.531547 
L 90.505132 -143.1567 
L 90.474095 -142.781852 
L 90.445807 -142.407005 
L 90.428196 -142.032158 
L 90.428804 -141.657311 
L 90.454185 -141.282464 
L 90.509462 -140.907617 
L 90.598101 -140.53277 
L 90.721922 -140.157923 
L 90.881323 -139.783076 
L 91.075678 -139.408229 
L 91.30383 -139.033382 
L 91.564598 -138.658535 
L 91.857205 -138.283687 
L 92.181568 -137.90884 
L 92.538402 -137.533993 
L 92.929129 -137.159146 
L 93.355647 -136.784299 
L 93.820017 -136.409452 
L 94.324157 -136.034605 
L 94.869633 -135.659758 
L 95.457607 -135.284911 
L 96.088942 -134.910064 
L 96.764445 -134.535217 
L 97.485133 -134.16037 
L 98.252432 -133.785522 
L 99.068176 -133.410675 
L 99.934334 -133.035828 
L 100.85242 -132.660981 
L 101.822656 -132.286134 
L 102.842969 -131.911287 
L 103.908 -131.53644 
L 105.008288 -131.161593 
L 106.129814 -130.786746 
L 107.254002 -130.411899 
L 108.358271 -130.037052 
L 109.417113 -129.662205 
L 110.403619 -129.287358 
L 111.291322 -128.91251 
L 112.056139 -128.537663 
L 112.678208 -128.162816 
L 113.143372 -127.787969 
L 113.44413 -127.413122 
L 113.5799 -127.038275 
L 113.556578 -126.663428 
L 113.385437 -126.288581 
L 113.081555 -125.913734 
L 112.662014 -125.538887 
L 112.14415 -125.16404 
L 111.5441 -124.789193 
L 110.875839 -124.414345 
L 110.150761 -124.039498 
L 109.37778 -123.664651 
L 108.563807 -123.289804 
L 107.714445 -122.914957 
L 106.834691 -122.54011 
L 105.929543 -122.165263 
L 105.004391 -121.790416 
L 104.065207 -121.415569 
L 103.118531 -121.040722 
L 102.171327 -120.665875 
L 101.230744 -120.291028 
L 100.303843 -119.91618 
L 99.397314 -119.541333 
L 98.517215 -119.166486 
L 97.668763 -118.791639 
L 96.856196 -118.416792 
L 96.082741 -118.041945 
L 95.35068 -117.667098 
L 94.661529 -117.292251 
L 94.016265 -116.917404 
L 93.415579 -116.542557 
L 92.86007 -116.16771 
L 92.350355 -115.792863 
L 91.887046 -115.418016 
L 91.470632 -115.043168 
L 91.101262 -114.668321 
L 90.778521 -114.293474 
L 90.501236 -113.918627 
L 90.26736 -113.54378 
L 90.073972 -113.168933 
L 89.917389 -112.794086 
L 89.793361 -112.419239 
L 89.697331 -112.044392 
z
" style="stroke: #333333"/>
    </defs>
    <g clip-path="url(#p32205ec8b9)">
     <use xlink:href="#m27f9cdbab8" x="0" y="360" style="fill: #5875a4; stroke: #333333"/>
    </g>
   </g>
   <g id="FillBetweenPolyCollection_8">
    <defs>
     <path id="mbe12c6b825" d="M 149.905659 -88.573594 
L 149.635341 -88.573594 
L 149.582776 -89.2422 
L 149.51655 -89.910805 
L 149.43567 -90.579411 
L 149.339831 -91.248016 
L 149.229465 -91.916622 
L 149.105611 -92.585228 
L 148.969575 -93.253833 
L 148.822394 -93.922439 
L 148.664154 -94.591044 
L 148.493258 -95.25965 
L 148.305798 -95.928256 
L 148.095137 -96.596861 
L 147.851835 -97.265467 
L 147.563932 -97.934072 
L 147.217578 -98.602678 
L 146.797903 -99.271284 
L 146.289991 -99.939889 
L 145.679851 -100.608495 
L 144.955292 -101.2771 
L 144.106703 -101.945706 
L 143.127803 -102.614312 
L 142.016445 -103.282917 
L 140.775558 -103.951523 
L 139.414208 -104.620128 
L 137.948662 -105.288734 
L 136.403224 -105.95734 
L 134.810551 -106.625945 
L 133.211137 -107.294551 
L 131.651784 -107.963157 
L 130.18301 -108.631762 
L 128.855576 -109.300368 
L 127.716481 -109.968973 
L 126.804923 -110.637579 
L 126.14876 -111.306185 
L 125.761964 -111.97479 
L 125.643433 -112.643396 
L 125.777336 -113.312001 
L 126.134974 -113.980607 
L 126.67794 -114.649213 
L 127.362198 -115.317818 
L 128.142582 -115.986424 
L 128.977171 -116.655029 
L 129.830991 -117.323635 
L 130.678584 -117.992241 
L 131.505157 -118.660846 
L 132.306206 -119.329452 
L 133.085767 -119.998057 
L 133.853648 -120.666663 
L 134.62217 -121.335269 
L 135.402966 -122.003874 
L 136.204386 -122.67248 
L 137.029848 -123.341085 
L 137.877295 -124.009691 
L 138.73969 -124.678297 
L 139.606282 -125.346902 
L 140.464289 -126.015508 
L 141.300626 -126.684113 
L 142.103388 -127.352719 
L 142.862886 -128.021325 
L 143.572212 -128.68993 
L 144.227359 -129.358536 
L 144.827017 -130.027141 
L 145.372176 -130.695747 
L 145.865611 -131.364353 
L 146.311341 -132.032958 
L 146.714081 -132.701564 
L 147.078697 -133.370169 
L 147.4097 -134.038775 
L 147.710803 -134.707381 
L 147.984575 -135.375986 
L 148.232265 -136.044592 
L 148.453802 -136.713197 
L 148.647999 -137.381803 
L 148.812931 -138.050409 
L 148.946449 -138.719014 
L 149.046746 -139.38762 
L 149.112923 -140.056225 
L 149.145469 -140.724831 
L 149.146599 -141.393437 
L 149.120412 -142.062042 
L 149.072814 -142.730648 
L 149.011224 -143.399253 
L 148.944048 -144.067859 
L 148.879978 -144.736465 
L 148.827196 -145.40507 
L 148.792575 -146.073676 
L 148.781003 -146.742281 
L 148.794928 -147.410887 
L 148.83421 -148.079493 
L 148.896295 -148.748098 
L 148.97669 -149.416704 
L 149.069639 -150.085309 
L 149.168903 -150.753915 
L 149.268495 -151.422521 
L 149.363288 -152.091126 
L 149.449406 -152.759732 
L 149.524386 -153.428337 
L 149.58713 -154.096943 
L 149.637697 -154.765549 
L 149.903303 -154.765549 
L 149.903303 -154.765549 
L 149.95387 -154.096943 
L 150.016614 -153.428337 
L 150.091594 -152.759732 
L 150.177712 -152.091126 
L 150.272505 -151.422521 
L 150.372097 -150.753915 
L 150.471361 -150.085309 
L 150.56431 -149.416704 
L 150.644705 -148.748098 
L 150.70679 -148.079493 
L 150.746072 -147.410887 
L 150.759997 -146.742281 
L 150.748425 -146.073676 
L 150.713804 -145.40507 
L 150.661022 -144.736465 
L 150.596952 -144.067859 
L 150.529776 -143.399253 
L 150.468186 -142.730648 
L 150.420588 -142.062042 
L 150.394401 -141.393437 
L 150.395531 -140.724831 
L 150.428077 -140.056225 
L 150.494254 -139.38762 
L 150.594551 -138.719014 
L 150.728069 -138.050409 
L 150.893001 -137.381803 
L 151.087198 -136.713197 
L 151.308735 -136.044592 
L 151.556425 -135.375986 
L 151.830197 -134.707381 
L 152.1313 -134.038775 
L 152.462303 -133.370169 
L 152.826919 -132.701564 
L 153.229659 -132.032958 
L 153.675389 -131.364353 
L 154.168824 -130.695747 
L 154.713983 -130.027141 
L 155.313641 -129.358536 
L 155.968788 -128.68993 
L 156.678114 -128.021325 
L 157.437612 -127.352719 
L 158.240374 -126.684113 
L 159.076711 -126.015508 
L 159.934718 -125.346902 
L 160.80131 -124.678297 
L 161.663705 -124.009691 
L 162.511152 -123.341085 
L 163.336614 -122.67248 
L 164.138034 -122.003874 
L 164.91883 -121.335269 
L 165.687352 -120.666663 
L 166.455233 -119.998057 
L 167.234794 -119.329452 
L 168.035843 -118.660846 
L 168.862416 -117.992241 
L 169.710009 -117.323635 
L 170.563829 -116.655029 
L 171.398418 -115.986424 
L 172.178802 -115.317818 
L 172.86306 -114.649213 
L 173.406026 -113.980607 
L 173.763664 -113.312001 
L 173.897567 -112.643396 
L 173.779036 -111.97479 
L 173.39224 -111.306185 
L 172.736077 -110.637579 
L 171.824519 -109.968973 
L 170.685424 -109.300368 
L 169.35799 -108.631762 
L 167.889216 -107.963157 
L 166.329863 -107.294551 
L 164.730449 -106.625945 
L 163.137776 -105.95734 
L 161.592338 -105.288734 
L 160.126792 -104.620128 
L 158.765442 -103.951523 
L 157.524555 -103.282917 
L 156.413197 -102.614312 
L 155.434297 -101.945706 
L 154.585708 -101.2771 
L 153.861149 -100.608495 
L 153.251009 -99.939889 
L 152.743097 -99.271284 
L 152.323422 -98.602678 
L 151.977068 -97.934072 
L 151.689165 -97.265467 
L 151.445863 -96.596861 
L 151.235202 -95.928256 
L 151.047742 -95.25965 
L 150.876846 -94.591044 
L 150.718606 -93.922439 
L 150.571425 -93.253833 
L 150.435389 -92.585228 
L 150.311535 -91.916622 
L 150.201169 -91.248016 
L 150.10533 -90.579411 
L 150.02445 -89.910805 
L 149.958224 -89.2422 
L 149.905659 -88.573594 
z
" style="stroke: #333333"/>
    </defs>
    <g clip-path="url(#p32205ec8b9)">
     <use xlink:href="#mbe12c6b825" x="0" y="360" style="fill: #179292; stroke: #333333"/>
    </g>
   </g>
   <g id="FillBetweenPolyCollection_9">
    <defs>
     <path id="m5f7dd30148" d="M 210.36482 -77.702491 
L 209.811514 -77.702491 
L 209.72575 -78.348668 
L 209.621497 -78.994844 
L 209.497417 -79.641021 
L 209.352851 -80.287197 
L 209.187985 -80.933374 
L 209.003949 -81.57955 
L 208.80282 -82.225727 
L 208.587493 -82.871904 
L 208.36141 -83.51808 
L 208.128143 -84.164257 
L 207.890853 -84.810433 
L 207.651662 -85.45661 
L 207.411013 -86.102786 
L 207.167089 -86.748963 
L 206.915375 -87.39514 
L 206.648451 -88.041316 
L 206.356075 -88.687493 
L 206.025588 -89.333669 
L 205.642657 -89.979846 
L 205.192299 -90.626022 
L 204.660116 -91.272199 
L 204.033643 -91.918376 
L 203.303665 -92.564552 
L 202.46537 -93.210729 
L 201.519225 -93.856905 
L 200.471463 -94.503082 
L 199.334119 -95.149258 
L 198.124603 -95.795435 
L 196.864837 -96.441612 
L 195.580035 -97.087788 
L 194.297239 -97.733965 
L 193.043748 -98.380141 
L 191.845586 -99.026318 
L 190.72615 -99.672495 
L 189.705125 -100.318671 
L 188.797768 -100.964848 
L 188.014554 -101.611024 
L 187.361189 -102.257201 
L 186.838913 -102.903377 
L 186.445021 -103.549554 
L 186.173508 -104.195731 
L 186.01574 -104.841907 
L 185.9611 -105.488084 
L 185.997548 -106.13426 
L 186.112101 -106.780437 
L 186.291238 -107.426613 
L 186.521264 -108.07279 
L 186.788673 -108.718967 
L 187.08053 -109.365143 
L 187.384896 -110.01132 
L 187.691279 -110.657496 
L 187.991089 -111.303673 
L 188.278048 -111.949849 
L 188.548512 -112.596026 
L 188.801649 -113.242203 
L 189.039438 -113.888379 
L 189.266477 -114.534556 
L 189.489603 -115.180732 
L 189.717338 -115.826909 
L 189.959214 -116.473085 
L 190.225039 -117.119262 
L 190.524139 -117.765439 
L 190.864669 -118.411615 
L 191.253022 -119.057792 
L 191.693389 -119.703968 
L 192.187506 -120.350145 
L 192.734587 -120.996321 
L 193.331454 -121.642498 
L 193.972848 -122.288675 
L 194.651871 -122.934851 
L 195.360541 -123.581028 
L 196.090385 -124.227204 
L 196.833027 -124.873381 
L 197.580716 -125.519557 
L 198.326734 -126.165734 
L 199.065665 -126.811911 
L 199.793491 -127.458087 
L 200.507526 -128.104264 
L 201.206199 -128.75044 
L 201.888727 -129.396617 
L 202.554731 -130.042793 
L 203.203841 -130.68897 
L 203.835357 -131.335147 
L 204.447994 -131.981323 
L 205.039765 -132.6275 
L 205.607994 -133.273676 
L 206.149453 -133.919853 
L 206.66061 -134.566029 
L 207.137941 -135.212206 
L 207.578253 -135.858383 
L 207.978992 -136.504559 
L 208.338484 -137.150736 
L 208.656084 -137.796912 
L 208.932235 -138.443089 
L 209.168422 -139.089265 
L 209.367041 -139.735442 
L 209.531211 -140.381619 
L 209.664553 -141.027795 
L 209.770956 -141.673972 
L 210.405377 -141.673972 
L 210.405377 -141.673972 
L 210.51178 -141.027795 
L 210.645122 -140.381619 
L 210.809293 -139.735442 
L 211.007911 -139.089265 
L 211.244098 -138.443089 
L 211.52025 -137.796912 
L 211.83785 -137.150736 
L 212.197341 -136.504559 
L 212.59808 -135.858383 
L 213.038392 -135.212206 
L 213.515723 -134.566029 
L 214.026881 -133.919853 
L 214.568339 -133.273676 
L 215.136568 -132.6275 
L 215.72834 -131.981323 
L 216.340977 -131.335147 
L 216.972492 -130.68897 
L 217.621602 -130.042793 
L 218.287606 -129.396617 
L 218.970134 -128.75044 
L 219.668807 -128.104264 
L 220.382842 -127.458087 
L 221.110668 -126.811911 
L 221.849599 -126.165734 
L 222.595617 -125.519557 
L 223.343306 -124.873381 
L 224.085949 -124.227204 
L 224.815792 -123.581028 
L 225.524462 -122.934851 
L 226.203486 -122.288675 
L 226.844879 -121.642498 
L 227.441747 -120.996321 
L 227.988827 -120.350145 
L 228.482944 -119.703968 
L 228.923311 -119.057792 
L 229.311664 -118.411615 
L 229.652194 -117.765439 
L 229.951294 -117.119262 
L 230.217119 -116.473085 
L 230.458996 -115.826909 
L 230.68673 -115.180732 
L 230.909856 -114.534556 
L 231.136896 -113.888379 
L 231.374684 -113.242203 
L 231.627821 -112.596026 
L 231.898286 -111.949849 
L 232.185245 -111.303673 
L 232.485054 -110.657496 
L 232.791437 -110.01132 
L 233.095803 -109.365143 
L 233.38766 -108.718967 
L 233.655069 -108.07279 
L 233.885095 -107.426613 
L 234.064232 -106.780437 
L 234.178785 -106.13426 
L 234.215233 -105.488084 
L 234.160593 -104.841907 
L 234.002826 -104.195731 
L 233.731312 -103.549554 
L 233.33742 -102.903377 
L 232.815144 -102.257201 
L 232.161779 -101.611024 
L 231.378566 -100.964848 
L 230.471209 -100.318671 
L 229.450184 -99.672495 
L 228.330747 -99.026318 
L 227.132586 -98.380141 
L 225.879094 -97.733965 
L 224.596298 -97.087788 
L 223.311496 -96.441612 
L 222.05173 -95.795435 
L 220.842214 -95.149258 
L 219.70487 -94.503082 
L 218.657108 -93.856905 
L 217.710963 -93.210729 
L 216.872668 -92.564552 
L 216.14269 -91.918376 
L 215.516218 -91.272199 
L 214.984035 -90.626022 
L 214.533676 -89.979846 
L 214.150745 -89.333669 
L 213.820259 -88.687493 
L 213.527882 -88.041316 
L 213.260958 -87.39514 
L 213.009244 -86.748963 
L 212.76532 -86.102786 
L 212.524671 -85.45661 
L 212.28548 -84.810433 
L 212.04819 -84.164257 
L 211.814924 -83.51808 
L 211.588841 -82.871904 
L 211.373513 -82.225727 
L 211.172384 -81.57955 
L 210.988349 -80.933374 
L 210.823482 -80.287197 
L 210.678916 -79.641021 
L 210.554836 -78.994844 
L 210.450583 -78.348668 
L 210.36482 -77.702491 
z
" style="stroke: #333333"/>
    </defs>
    <g clip-path="url(#p32205ec8b9)">
     <use xlink:href="#m5f7dd30148" x="0" y="360" style="fill: #8bc85f; stroke: #333333"/>
    </g>
   </g>
   <g id="FillBetweenPolyCollection_10">
    <defs>
     <path id="ma82c2f5c9e" d="M 270.625301 -68.472128 
L 270.186366 -68.472128 
L 270.104192 -69.247529 
L 269.999157 -70.022931 
L 269.867719 -70.798332 
L 269.706566 -71.573734 
L 269.512775 -72.349135 
L 269.283913 -73.124537 
L 269.018029 -73.899939 
L 268.713537 -74.67534 
L 268.368955 -75.450742 
L 267.982555 -76.226143 
L 267.551946 -77.001545 
L 267.07369 -77.776946 
L 266.543026 -78.552348 
L 265.953799 -79.327749 
L 265.298667 -80.103151 
L 264.569617 -80.878552 
L 263.758783 -81.653954 
L 262.859495 -82.429355 
L 261.867478 -83.204757 
L 260.782041 -83.980158 
L 259.607144 -84.75556 
L 258.352194 -85.530961 
L 257.032479 -86.306363 
L 255.669168 -87.081764 
L 254.288837 -87.857166 
L 252.922517 -88.632567 
L 251.604289 -89.407969 
L 250.369478 -90.18337 
L 249.252515 -90.958772 
L 248.284617 -91.734173 
L 247.491441 -92.509575 
L 246.890937 -93.284976 
L 246.491653 -94.060378 
L 246.29173 -94.835779 
L 246.278767 -95.611181 
L 246.430656 -96.386582 
L 246.717333 -97.161984 
L 247.103263 -97.937385 
L 247.550339 -98.712787 
L 248.020853 -99.488188 
L 248.480148 -100.26359 
L 248.8987 -101.038991 
L 249.253486 -101.814393 
L 249.528659 -102.589795 
L 249.715683 -103.365196 
L 249.813161 -104.140598 
L 249.826563 -104.915999 
L 249.767997 -105.691401 
L 249.656017 -106.466802 
L 249.515345 -107.242204 
L 249.376267 -108.017605 
L 249.273478 -108.793007 
L 249.244204 -109.568408 
L 249.325591 -110.34381 
L 249.551545 -111.119211 
L 249.949391 -111.894613 
L 250.536813 -112.670014 
L 251.319586 -113.445416 
L 252.290498 -114.220817 
L 253.429684 -114.996219 
L 254.706349 -115.77162 
L 256.081653 -116.547022 
L 257.512311 -117.322423 
L 258.954399 -118.097825 
L 260.366849 -118.873226 
L 261.714212 -119.648628 
L 262.968455 -120.424029 
L 264.109702 -121.199431 
L 265.126044 -121.974832 
L 266.01263 -122.750234 
L 266.770334 -123.525635 
L 267.404286 -124.301037 
L 267.922501 -125.076438 
L 268.334775 -125.85184 
L 268.651893 -126.627241 
L 268.885172 -127.402643 
L 269.046222 -128.178044 
L 269.146869 -128.953446 
L 269.199097 -129.728847 
L 269.21494 -130.504249 
L 269.206271 -131.279651 
L 269.184463 -132.055052 
L 269.159957 -132.830454 
L 269.141788 -133.605855 
L 269.137142 -134.381257 
L 269.151019 -135.156658 
L 269.186057 -135.93206 
L 269.242567 -136.707461 
L 269.318766 -137.482863 
L 269.411191 -138.258264 
L 269.515233 -139.033666 
L 269.625728 -139.809067 
L 269.737522 -140.584469 
L 269.845956 -141.35987 
L 269.947214 -142.135272 
L 270.038527 -142.910673 
L 270.118225 -143.686075 
L 270.185663 -144.461476 
L 270.241058 -145.236878 
L 270.570608 -145.236878 
L 270.570608 -145.236878 
L 270.626003 -144.461476 
L 270.693442 -143.686075 
L 270.77314 -142.910673 
L 270.864453 -142.135272 
L 270.965711 -141.35987 
L 271.074145 -140.584469 
L 271.185939 -139.809067 
L 271.296434 -139.033666 
L 271.400476 -138.258264 
L 271.492901 -137.482863 
L 271.5691 -136.707461 
L 271.62561 -135.93206 
L 271.660648 -135.156658 
L 271.674524 -134.381257 
L 271.669879 -133.605855 
L 271.65171 -132.830454 
L 271.627204 -132.055052 
L 271.605396 -131.279651 
L 271.596727 -130.504249 
L 271.61257 -129.728847 
L 271.664797 -128.953446 
L 271.765445 -128.178044 
L 271.926495 -127.402643 
L 272.159773 -126.627241 
L 272.476892 -125.85184 
L 272.889165 -125.076438 
L 273.407381 -124.301037 
L 274.041333 -123.525635 
L 274.799037 -122.750234 
L 275.685623 -121.974832 
L 276.701965 -121.199431 
L 277.843212 -120.424029 
L 279.097454 -119.648628 
L 280.444818 -118.873226 
L 281.857268 -118.097825 
L 283.299356 -117.322423 
L 284.730014 -116.547022 
L 286.105318 -115.77162 
L 287.381983 -114.996219 
L 288.521168 -114.220817 
L 289.492081 -113.445416 
L 290.274854 -112.670014 
L 290.862276 -111.894613 
L 291.260122 -111.119211 
L 291.486076 -110.34381 
L 291.567462 -109.568408 
L 291.538188 -108.793007 
L 291.435399 -108.017605 
L 291.296321 -107.242204 
L 291.155649 -106.466802 
L 291.04367 -105.691401 
L 290.985103 -104.915999 
L 290.998505 -104.140598 
L 291.095983 -103.365196 
L 291.283007 -102.589795 
L 291.55818 -101.814393 
L 291.912967 -101.038991 
L 292.331519 -100.26359 
L 292.790813 -99.488188 
L 293.261327 -98.712787 
L 293.708404 -97.937385 
L 294.094333 -97.161984 
L 294.381011 -96.386582 
L 294.5329 -95.611181 
L 294.519937 -94.835779 
L 294.320014 -94.060378 
L 293.92073 -93.284976 
L 293.320226 -92.509575 
L 292.52705 -91.734173 
L 291.559152 -90.958772 
L 290.442189 -90.18337 
L 289.207378 -89.407969 
L 287.88915 -88.632567 
L 286.52283 -87.857166 
L 285.142499 -87.081764 
L 283.779188 -86.306363 
L 282.459473 -85.530961 
L 281.204522 -84.75556 
L 280.029625 -83.980158 
L 278.944189 -83.204757 
L 277.952171 -82.429355 
L 277.052884 -81.653954 
L 276.242049 -80.878552 
L 275.513 -80.103151 
L 274.857868 -79.327749 
L 274.268641 -78.552348 
L 273.737976 -77.776946 
L 273.25972 -77.001545 
L 272.829112 -76.226143 
L 272.442711 -75.450742 
L 272.09813 -74.67534 
L 271.793637 -73.899939 
L 271.527754 -73.124537 
L 271.298892 -72.349135 
L 271.105101 -71.573734 
L 270.943947 -70.798332 
L 270.812509 -70.022931 
L 270.707475 -69.247529 
L 270.625301 -68.472128 
z
" style="stroke: #333333"/>
    </defs>
    <g clip-path="url(#p32205ec8b9)">
     <use xlink:href="#ma82c2f5c9e" x="0" y="360" style="fill: #8bc85f; stroke: #333333"/>
    </g>
   </g>
   <g id="FillBetweenPolyCollection_11">
    <defs>
     <path id="m3346edd39f" d="M 331.178632 -86.724077 
L 330.268368 -86.724077 
L 330.129178 -87.552357 
L 329.957132 -88.380637 
L 329.747473 -89.208918 
L 329.495543 -90.037198 
L 329.196993 -90.865478 
L 328.847992 -91.693758 
L 328.445439 -92.522039 
L 327.987133 -93.350319 
L 327.471898 -94.178599 
L 326.899649 -95.006879 
L 326.271373 -95.83516 
L 325.589039 -96.66344 
L 324.855435 -97.49172 
L 324.073958 -98.32 
L 323.248386 -99.14828 
L 322.382657 -99.976561 
L 321.480704 -100.804841 
L 320.546381 -101.633121 
L 319.583488 -102.461401 
L 318.595926 -103.289682 
L 317.58797 -104.117962 
L 316.564617 -104.946242 
L 315.531986 -105.774522 
L 314.497705 -106.602803 
L 313.471201 -107.431083 
L 312.46386 -108.259363 
L 311.488974 -109.087643 
L 310.561456 -109.915923 
L 309.697313 -110.744204 
L 308.91289 -111.572484 
L 308.223949 -112.400764 
L 307.644641 -113.229044 
L 307.186484 -114.057325 
L 306.857427 -114.885605 
L 306.661118 -115.713885 
L 306.596433 -116.542165 
L 306.657351 -117.370446 
L 306.833165 -118.198726 
L 307.109051 -119.027006 
L 307.466927 -119.855286 
L 307.886553 -120.683567 
L 308.346755 -121.511847 
L 308.826695 -122.340127 
L 309.307074 -123.168407 
L 309.77118 -123.996687 
L 310.205702 -124.824968 
L 310.601273 -125.653248 
L 310.952701 -126.481528 
L 311.258907 -127.309808 
L 311.522576 -128.138089 
L 311.749581 -128.966369 
L 311.948231 -129.794649 
L 312.12841 -130.622929 
L 312.30068 -131.45121 
L 312.475413 -132.27949 
L 312.662021 -133.10777 
L 312.868328 -133.93605 
L 313.100131 -134.764331 
L 313.360964 -135.592611 
L 313.652079 -136.420891 
L 313.972618 -137.249171 
L 314.319968 -138.077451 
L 314.690228 -138.905732 
L 315.078769 -139.734012 
L 315.480794 -140.562292 
L 315.891882 -141.390572 
L 316.308429 -142.218853 
L 316.727981 -143.047133 
L 317.149411 -143.875413 
L 317.57295 -144.703693 
L 318.000067 -145.531974 
L 318.43323 -146.360254 
L 318.875567 -147.188534 
L 319.330474 -148.016814 
L 319.801207 -148.845095 
L 320.290483 -149.673375 
L 320.800141 -150.501655 
L 321.330876 -151.329935 
L 321.882062 -152.158215 
L 322.451683 -152.986496 
L 323.036361 -153.814776 
L 323.631485 -154.643056 
L 324.231423 -155.471336 
L 324.8298 -156.299617 
L 325.41982 -157.127897 
L 325.99461 -157.956177 
L 326.547565 -158.784457 
L 327.072658 -159.612738 
L 327.56471 -160.441018 
L 328.019596 -161.269298 
L 328.434376 -162.097578 
L 328.807351 -162.925859 
L 329.138042 -163.754139 
L 329.427102 -164.582419 
L 329.676177 -165.410699 
L 329.887723 -166.238979 
L 330.064808 -167.06726 
L 330.210898 -167.89554 
L 330.329666 -168.72382 
L 331.117334 -168.72382 
L 331.117334 -168.72382 
L 331.236102 -167.89554 
L 331.382192 -167.06726 
L 331.559277 -166.238979 
L 331.770823 -165.410699 
L 332.019898 -164.582419 
L 332.308958 -163.754139 
L 332.639649 -162.925859 
L 333.012624 -162.097578 
L 333.427404 -161.269298 
L 333.88229 -160.441018 
L 334.374342 -159.612738 
L 334.899435 -158.784457 
L 335.45239 -157.956177 
L 336.02718 -157.127897 
L 336.6172 -156.299617 
L 337.215577 -155.471336 
L 337.815515 -154.643056 
L 338.410639 -153.814776 
L 338.995317 -152.986496 
L 339.564938 -152.158215 
L 340.116124 -151.329935 
L 340.646859 -150.501655 
L 341.156517 -149.673375 
L 341.645793 -148.845095 
L 342.116526 -148.016814 
L 342.571433 -147.188534 
L 343.01377 -146.360254 
L 343.446933 -145.531974 
L 343.87405 -144.703693 
L 344.297589 -143.875413 
L 344.719019 -143.047133 
L 345.138571 -142.218853 
L 345.555118 -141.390572 
L 345.966206 -140.562292 
L 346.368231 -139.734012 
L 346.756772 -138.905732 
L 347.127032 -138.077451 
L 347.474382 -137.249171 
L 347.794921 -136.420891 
L 348.086036 -135.592611 
L 348.346869 -134.764331 
L 348.578672 -133.93605 
L 348.784979 -133.10777 
L 348.971587 -132.27949 
L 349.14632 -131.45121 
L 349.31859 -130.622929 
L 349.498769 -129.794649 
L 349.697419 -128.966369 
L 349.924424 -128.138089 
L 350.188093 -127.309808 
L 350.494299 -126.481528 
L 350.845727 -125.653248 
L 351.241298 -124.824968 
L 351.67582 -123.996687 
L 352.139926 -123.168407 
L 352.620305 -122.340127 
L 353.100245 -121.511847 
L 353.560447 -120.683567 
L 353.980073 -119.855286 
L 354.337949 -119.027006 
L 354.613835 -118.198726 
L 354.789649 -117.370446 
L 354.850567 -116.542165 
L 354.785882 -115.713885 
L 354.589573 -114.885605 
L 354.260516 -114.057325 
L 353.802359 -113.229044 
L 353.223051 -112.400764 
L 352.53411 -111.572484 
L 351.749687 -110.744204 
L 350.885544 -109.915923 
L 349.958026 -109.087643 
L 348.98314 -108.259363 
L 347.975799 -107.431083 
L 346.949295 -106.602803 
L 345.915014 -105.774522 
L 344.882383 -104.946242 
L 343.85903 -104.117962 
L 342.851074 -103.289682 
L 341.863512 -102.461401 
L 340.900619 -101.633121 
L 339.966296 -100.804841 
L 339.064343 -99.976561 
L 338.198614 -99.14828 
L 337.373042 -98.32 
L 336.591565 -97.49172 
L 335.857961 -96.66344 
L 335.175627 -95.83516 
L 334.547351 -95.006879 
L 333.975102 -94.178599 
L 333.459867 -93.350319 
L 333.001561 -92.522039 
L 332.599008 -91.693758 
L 332.250007 -90.865478 
L 331.951457 -90.037198 
L 331.699527 -89.208918 
L 331.489868 -88.380637 
L 331.317822 -87.552357 
L 331.178632 -86.724077 
z
" style="stroke: #333333"/>
    </defs>
    <g clip-path="url(#p32205ec8b9)">
     <use xlink:href="#m3346edd39f" x="0" y="360" style="fill: #e59aa7; stroke: #333333"/>
    </g>
   </g>
   <g id="FillBetweenPolyCollection_12">
    <defs>
     <path id="m7ac18f8d24" d="M 391.257584 -61.200223 
L 390.824749 -61.200223 
L 390.74615 -61.767483 
L 390.646708 -62.334743 
L 390.523731 -62.902004 
L 390.375077 -63.469264 
L 390.199433 -64.036524 
L 389.996557 -64.603784 
L 389.767423 -65.171044 
L 389.514251 -65.738304 
L 389.240358 -66.305564 
L 388.949825 -66.872825 
L 388.646989 -67.440085 
L 388.335793 -68.007345 
L 388.019063 -68.574605 
L 387.697819 -69.141865 
L 387.370717 -69.709125 
L 387.033739 -70.276385 
L 386.680224 -70.843646 
L 386.301271 -71.410906 
L 385.886537 -71.978166 
L 385.425339 -72.545426 
L 384.907958 -73.112686 
L 384.326967 -73.679946 
L 383.678392 -74.247206 
L 382.962546 -74.814466 
L 382.184374 -75.381727 
L 381.353251 -75.948987 
L 380.482244 -76.516247 
L 379.586915 -77.083507 
L 378.683859 -77.650767 
L 377.789143 -78.218027 
L 376.916901 -78.785287 
L 376.078222 -79.352548 
L 375.280497 -79.919808 
L 374.527237 -80.487068 
L 373.818362 -81.054328 
L 373.150852 -81.621588 
L 372.519661 -82.188848 
L 371.918736 -82.756108 
L 371.34205 -83.323369 
L 370.784545 -83.890629 
L 370.242937 -84.457889 
L 369.716362 -85.025149 
L 369.206831 -85.592409 
L 368.719509 -86.159669 
L 368.262771 -86.726929 
L 367.848045 -87.29419 
L 367.489389 -87.86145 
L 367.202818 -88.42871 
L 367.005391 -88.99597 
L 366.9141 -89.56323 
L 366.944648 -90.13049 
L 367.110223 -90.69775 
L 367.420383 -91.265011 
L 367.880155 -91.832271 
L 368.489449 -92.399531 
L 369.242835 -92.966791 
L 370.129691 -93.534051 
L 371.134704 -94.101311 
L 372.238659 -94.668571 
L 373.419444 -95.235831 
L 374.653163 -95.803092 
L 375.915279 -96.370352 
L 377.181698 -96.937612 
L 378.429725 -97.504872 
L 379.63884 -98.072132 
L 380.791283 -98.639392 
L 381.872417 -99.206652 
L 382.870905 -99.773913 
L 383.778721 -100.341173 
L 384.591041 -100.908433 
L 385.306042 -101.475693 
L 385.924675 -102.042953 
L 386.450403 -102.610213 
L 386.888952 -103.177473 
L 387.24803 -103.744734 
L 387.537039 -104.311994 
L 387.766715 -104.879254 
L 387.948713 -105.446514 
L 388.095111 -106.013774 
L 388.217841 -106.581034 
L 388.328098 -107.148294 
L 388.435754 -107.715555 
L 388.548854 -108.282815 
L 388.673228 -108.850075 
L 388.812298 -109.417335 
L 388.96707 -109.984595 
L 389.136343 -110.551855 
L 389.31708 -111.119115 
L 389.504924 -111.686376 
L 389.694771 -112.253636 
L 389.881344 -112.820896 
L 390.059711 -113.388156 
L 390.225691 -113.955416 
L 390.376124 -114.522676 
L 390.508994 -115.089936 
L 390.623426 -115.657196 
L 390.719567 -116.224457 
L 390.798396 -116.791717 
L 390.861497 -117.358977 
L 391.220836 -117.358977 
L 391.220836 -117.358977 
L 391.283937 -116.791717 
L 391.362766 -116.224457 
L 391.458907 -115.657196 
L 391.57334 -115.089936 
L 391.70621 -114.522676 
L 391.856642 -113.955416 
L 392.022622 -113.388156 
L 392.200989 -112.820896 
L 392.387563 -112.253636 
L 392.577409 -111.686376 
L 392.765254 -111.119115 
L 392.945991 -110.551855 
L 393.115263 -109.984595 
L 393.270036 -109.417335 
L 393.409106 -108.850075 
L 393.53348 -108.282815 
L 393.646579 -107.715555 
L 393.754236 -107.148294 
L 393.864492 -106.581034 
L 393.987222 -106.013774 
L 394.13362 -105.446514 
L 394.315619 -104.879254 
L 394.545295 -104.311994 
L 394.834303 -103.744734 
L 395.193382 -103.177473 
L 395.63193 -102.610213 
L 396.157659 -102.042953 
L 396.776291 -101.475693 
L 397.491293 -100.908433 
L 398.303612 -100.341173 
L 399.211429 -99.773913 
L 400.209917 -99.206652 
L 401.29105 -98.639392 
L 402.443493 -98.072132 
L 403.652609 -97.504872 
L 404.900635 -96.937612 
L 406.167054 -96.370352 
L 407.42917 -95.803092 
L 408.662889 -95.235831 
L 409.843674 -94.668571 
L 410.94763 -94.101311 
L 411.952642 -93.534051 
L 412.839498 -92.966791 
L 413.592884 -92.399531 
L 414.202178 -91.832271 
L 414.66195 -91.265011 
L 414.97211 -90.69775 
L 415.137686 -90.13049 
L 415.168233 -89.56323 
L 415.076942 -88.99597 
L 414.879515 -88.42871 
L 414.592944 -87.86145 
L 414.234288 -87.29419 
L 413.819562 -86.726929 
L 413.362825 -86.159669 
L 412.875502 -85.592409 
L 412.365971 -85.025149 
L 411.839396 -84.457889 
L 411.297789 -83.890629 
L 410.740283 -83.323369 
L 410.163597 -82.756108 
L 409.562672 -82.188848 
L 408.931481 -81.621588 
L 408.263971 -81.054328 
L 407.555096 -80.487068 
L 406.801836 -79.919808 
L 406.004111 -79.352548 
L 405.165433 -78.785287 
L 404.29319 -78.218027 
L 403.398475 -77.650767 
L 402.495418 -77.083507 
L 401.60009 -76.516247 
L 400.729082 -75.948987 
L 399.89796 -75.381727 
L 399.119788 -74.814466 
L 398.403941 -74.247206 
L 397.755367 -73.679946 
L 397.174375 -73.112686 
L 396.656995 -72.545426 
L 396.195797 -71.978166 
L 395.781062 -71.410906 
L 395.40211 -70.843646 
L 395.048594 -70.276385 
L 394.711617 -69.709125 
L 394.384514 -69.141865 
L 394.06327 -68.574605 
L 393.74654 -68.007345 
L 393.435344 -67.440085 
L 393.132509 -66.872825 
L 392.841976 -66.305564 
L 392.568082 -65.738304 
L 392.31491 -65.171044 
L 392.085777 -64.603784 
L 391.8829 -64.036524 
L 391.707257 -63.469264 
L 391.558602 -62.902004 
L 391.435625 -62.334743 
L 391.336184 -61.767483 
L 391.257584 -61.200223 
z
" style="stroke: #333333"/>
    </defs>
    <g clip-path="url(#p32205ec8b9)">
     <use xlink:href="#m7ac18f8d24" x="0" y="360" style="fill: #e59aa7; stroke: #333333"/>
    </g>
   </g>
   <g id="matplotlib.axis_3">
    <g id="xtick_1">
     <g id="line2d_22">
      <defs>
       <path id="m03fde6a4fe" d="M 0 0 
L 0 3.5 
" style="stroke: #000000; stroke-width: 0.8"/>
      </defs>
      <g>
       <use xlink:href="#m03fde6a4fe" x="89.452833" y="318.04" style="stroke: #000000; stroke-width: 0.8"/>
      </g>
     </g>
     <g id="text_5">
      <text style="font-size: 10px; font-family: 'DejaVu Sans', 'Bitstream Vera Sans', 'Computer Modern Sans Serif', 'Lucida Grande', 'Verdana', 'Geneva', 'Lucid', 'Arial', 'Helvetica', 'Avant Garde', sans-serif; text-anchor: middle" x="89.452833" y="332.638437" transform="rotate(-0 89.452833 332.638437)">all</text>
     </g>
    </g>
    <g id="xtick_2">
     <g id="line2d_23">
      <g>
       <use xlink:href="#m03fde6a4fe" x="149.7705" y="318.04" style="stroke: #000000; stroke-width: 0.8"/>
      </g>
     </g>
     <g id="text_6">
      <text style="font-size: 10px; font-family: 'DejaVu Sans', 'Bitstream Vera Sans', 'Computer Modern Sans Serif', 'Lucida Grande', 'Verdana', 'Geneva', 'Lucid', 'Arial', 'Helvetica', 'Avant Garde', sans-serif; text-anchor: middle" x="149.7705" y="332.638437" transform="rotate(-0 149.7705 332.638437)">VISa</text>
     </g>
    </g>
    <g id="xtick_3">
     <g id="line2d_24">
      <g>
       <use xlink:href="#m03fde6a4fe" x="210.088167" y="318.04" style="stroke: #000000; stroke-width: 0.8"/>
      </g>
     </g>
     <g id="text_7">
      <text style="font-size: 10px; font-family: 'DejaVu Sans', 'Bitstream Vera Sans', 'Computer Modern Sans Serif', 'Lucida Grande', 'Verdana', 'Geneva', 'Lucid', 'Arial', 'Helvetica', 'Avant Garde', sans-serif; text-anchor: middle" x="210.088167" y="332.638437" transform="rotate(-0 210.088167 332.638437)">CA1</text>
     </g>
    </g>
    <g id="xtick_4">
     <g id="line2d_25">
      <g>
       <use xlink:href="#m03fde6a4fe" x="270.405833" y="318.04" style="stroke: #000000; stroke-width: 0.8"/>
      </g>
     </g>
     <g id="text_8">
      <text style="font-size: 10px; font-family: 'DejaVu Sans', 'Bitstream Vera Sans', 'Computer Modern Sans Serif', 'Lucida Grande', 'Verdana', 'Geneva', 'Lucid', 'Arial', 'Helvetica', 'Avant Garde', sans-serif; text-anchor: middle" x="270.405833" y="332.638437" transform="rotate(-0 270.405833 332.638437)">DG</text>
     </g>
    </g>
    <g id="xtick_5">
     <g id="line2d_26">
      <g>
       <use xlink:href="#m03fde6a4fe" x="330.7235" y="318.04" style="stroke: #000000; stroke-width: 0.8"/>
      </g>
     </g>
     <g id="text_9">
      <text style="font-size: 10px; font-family: 'DejaVu Sans', 'Bitstream Vera Sans', 'Computer Modern Sans Serif', 'Lucida Grande', 'Verdana', 'Geneva', 'Lucid', 'Arial', 'Helvetica', 'Avant Garde', sans-serif; text-anchor: middle" x="330.7235" y="332.638437" transform="rotate(-0 330.7235 332.638437)">LP</text>
     </g>
    </g>
    <g id="xtick_6">
     <g id="line2d_27">
      <g>
       <use xlink:href="#m03fde6a4fe" x="391.041167" y="318.04" style="stroke: #000000; stroke-width: 0.8"/>
      </g>
     </g>
     <g id="text_10">
      <text style="font-size: 10px; font-family: 'DejaVu Sans', 'Bitstream Vera Sans', 'Computer Modern Sans Serif', 'Lucida Grande', 'Verdana', 'Geneva', 'Lucid', 'Arial', 'Helvetica', 'Avant Garde', sans-serif; text-anchor: middle" x="391.041167" y="332.638437" transform="rotate(-0 391.041167 332.638437)">PO</text>
     </g>
    </g>
    <g id="text_11">
     <text style="font-size: 10px; font-family: 'DejaVu Sans', 'Bitstream Vera Sans', 'Computer Modern Sans Serif', 'Lucida Grande', 'Verdana', 'Geneva', 'Lucid', 'Arial', 'Helvetica', 'Avant Garde', sans-serif; text-anchor: middle" x="240.247" y="346.316562" transform="rotate(-0 240.247 346.316562)">region</text>
    </g>
   </g>
   <g id="matplotlib.axis_4">
    <g id="ytick_3">
     <g id="line2d_28">
      <g>
       <use xlink:href="#m557b60bf26" x="59.294" y="318.04" style="stroke: #000000; stroke-width: 0.8"/>
      </g>
     </g>
     <g id="text_12">
      <text style="font-size: 10px; font-family: 'DejaVu Sans', 'Bitstream Vera Sans', 'Computer Modern Sans Serif', 'Lucida Grande', 'Verdana', 'Geneva', 'Lucid', 'Arial', 'Helvetica', 'Avant Garde', sans-serif; text-anchor: end" x="52.294" y="321.839219" transform="rotate(-0 52.294 321.839219)">−1</text>
     </g>
    </g>
    <g id="ytick_4">
     <g id="line2d_29">
      <g>
       <use xlink:href="#m557b60bf26" x="59.294" y="202.256308" style="stroke: #000000; stroke-width: 0.8"/>
      </g>
     </g>
     <g id="text_13">
      <text style="font-size: 10px; font-family: 'DejaVu Sans', 'Bitstream Vera Sans', 'Computer Modern Sans Serif', 'Lucida Grande', 'Verdana', 'Geneva', 'Lucid', 'Arial', 'Helvetica', 'Avant Garde', sans-serif; text-anchor: end" x="52.294" y="206.055527" transform="rotate(-0 52.294 206.055527)">0</text>
     </g>
    </g>
    <g id="text_14">
     <text style="font-size: 10px; font-family: 'DejaVu Sans', 'Bitstream Vera Sans', 'Computer Modern Sans Serif', 'Lucida Grande', 'Verdana', 'Geneva', 'Lucid', 'Arial', 'Helvetica', 'Avant Garde', sans-serif" transform="translate(20.274313 274.228594) rotate(-90)">pearsonr</text>
     <text style="font-size: 10px; font-family: 'DejaVu Sans', 'Bitstream Vera Sans', 'Computer Modern Sans Serif', 'Lucida Grande', 'Verdana', 'Geneva', 'Lucid', 'Arial', 'Helvetica', 'Avant Garde', sans-serif" transform="translate(31.472125 278.796562) rotate(-90)">correlation</text>
    </g>
   </g>
   <g id="line2d_30">
    <path d="M 69.618767 236.3772 
L 109.2869 236.3772 
" clip-path="url(#p32205ec8b9)" style="fill: none; stroke-dasharray: 1.25,0.75; stroke-dashoffset: 0; stroke: #333333"/>
   </g>
   <g id="line2d_31">
    <path d="M 65.335229 233.113817 
L 113.570437 233.113817 
" clip-path="url(#p32205ec8b9)" style="fill: none; stroke-dasharray: 2.5,1; stroke-dashoffset: 0; stroke: #333333"/>
   </g>
   <g id="line2d_32">
    <path d="M 69.507905 230.330945 
L 109.397762 230.330945 
" clip-path="url(#p32205ec8b9)" style="fill: none; stroke-dasharray: 1.25,0.75; stroke-dashoffset: 0; stroke: #333333"/>
   </g>
   <g id="line2d_33">
    <path d="M 127.354797 249.76574 
L 172.186203 249.76574 
" clip-path="url(#p32205ec8b9)" style="fill: none; stroke-dasharray: 1.25,0.75; stroke-dashoffset: 0; stroke: #333333"/>
   </g>
   <g id="line2d_34">
    <path d="M 126.311086 245.802529 
L 173.229914 245.802529 
" clip-path="url(#p32205ec8b9)" style="fill: none; stroke-dasharray: 2.5,1; stroke-dashoffset: 0; stroke: #333333"/>
   </g>
   <g id="line2d_35">
    <path d="M 134.221581 239.01324 
L 165.319419 239.01324 
" clip-path="url(#p32205ec8b9)" style="fill: none; stroke-dasharray: 1.25,0.75; stroke-dashoffset: 0; stroke: #333333"/>
   </g>
   <g id="line2d_36">
    <path d="M 187.498811 257.878907 
L 232.677522 257.878907 
" clip-path="url(#p32205ec8b9)" style="fill: none; stroke-dasharray: 1.25,0.75; stroke-dashoffset: 0; stroke: #333333"/>
   </g>
   <g id="line2d_37">
    <path d="M 187.174543 250.435264 
L 233.00179 250.435264 
" clip-path="url(#p32205ec8b9)" style="fill: none; stroke-dasharray: 2.5,1; stroke-dashoffset: 0; stroke: #333333"/>
   </g>
   <g id="line2d_38">
    <path d="M 191.079024 241.231722 
L 229.097309 241.231722 
" clip-path="url(#p32205ec8b9)" style="fill: none; stroke-dasharray: 1.25,0.75; stroke-dashoffset: 0; stroke: #333333"/>
   </g>
   <g id="line2d_39">
    <path d="M 246.390034 265.545492 
L 294.421633 265.545492 
" clip-path="url(#p32205ec8b9)" style="fill: none; stroke-dasharray: 1.25,0.75; stroke-dashoffset: 0; stroke: #333333"/>
   </g>
   <g id="line2d_40">
    <path d="M 249.106219 258.507466 
L 291.705447 258.507466 
" clip-path="url(#p32205ec8b9)" style="fill: none; stroke-dasharray: 2.5,1; stroke-dashoffset: 0; stroke: #333333"/>
   </g>
   <g id="line2d_41">
    <path d="M 249.7867 248.422472 
L 291.024966 248.422472 
" clip-path="url(#p32205ec8b9)" style="fill: none; stroke-dasharray: 1.25,0.75; stroke-dashoffset: 0; stroke: #333333"/>
   </g>
   <g id="line2d_42">
    <path d="M 307.138157 245.821029 
L 354.308843 245.821029 
" clip-path="url(#p32205ec8b9)" style="fill: none; stroke-dasharray: 1.25,0.75; stroke-dashoffset: 0; stroke: #333333"/>
   </g>
   <g id="line2d_43">
    <path d="M 308.958459 237.432682 
L 352.488541 237.432682 
" clip-path="url(#p32205ec8b9)" style="fill: none; stroke-dasharray: 2.5,1; stroke-dashoffset: 0; stroke: #333333"/>
   </g>
   <g id="line2d_44">
    <path d="M 313.604365 223.714865 
L 347.842635 223.714865 
" clip-path="url(#p32205ec8b9)" style="fill: none; stroke-dasharray: 1.25,0.75; stroke-dashoffset: 0; stroke: #333333"/>
   </g>
   <g id="line2d_45">
    <path d="M 371.819898 277.146669 
L 410.262435 277.146669 
" clip-path="url(#p32205ec8b9)" style="fill: none; stroke-dasharray: 1.25,0.75; stroke-dashoffset: 0; stroke: #333333"/>
   </g>
   <g id="line2d_46">
    <path d="M 367.218096 271.601531 
L 414.864238 271.601531 
" clip-path="url(#p32205ec8b9)" style="fill: none; stroke-dasharray: 2.5,1; stroke-dashoffset: 0; stroke: #333333"/>
   </g>
   <g id="line2d_47">
    <path d="M 369.353996 266.962108 
L 412.728338 266.962108 
" clip-path="url(#p32205ec8b9)" style="fill: none; stroke-dasharray: 1.25,0.75; stroke-dashoffset: 0; stroke: #333333"/>
   </g>
   <g id="line2d_48">
    <path d="M 59.294 202.256308 
L 421.2 202.256308 
" clip-path="url(#p32205ec8b9)" style="fill: none; stroke: #000000; stroke-width: 0.8; stroke-linecap: square"/>
   </g>
   <g id="patch_5">
    <path d="M 59.294 318.04 
L 59.294 185.9 
" style="fill: none; stroke: #000000; stroke-width: 0.8; stroke-linejoin: miter; stroke-linecap: square"/>
   </g>
   <g id="text_15">
    <text style="font-size: 12px; font-family: 'DejaVu Sans', 'Bitstream Vera Sans', 'Computer Modern Sans Serif', 'Lucida Grande', 'Verdana', 'Geneva', 'Lucid', 'Arial', 'Helvetica', 'Avant Garde', sans-serif; text-anchor: middle" x="240.247" y="179.9" transform="rotate(-0 240.247 179.9)">Behavioral distance between subjects</text>
   </g>
  </g>
 </g>
 <defs>
  <clipPath id="p927b55dd5c">
   <rect x="59.294" y="26.88" width="361.906" height="132.14"/>
  </clipPath>
  <clipPath id="p32205ec8b9">
   <rect x="59.294" y="185.9" width="361.906" height="132.14"/>
  </clipPath>
 </defs>
</svg>
