<?xml version="1.0" encoding="utf-8" standalone="no"?>
<!DOCTYPE svg PUBLIC "-//W3C//DTD SVG 1.1//EN"
  "http://www.w3.org/Graphics/SVG/1.1/DTD/svg11.dtd">
<svg xmlns:xlink="http://www.w3.org/1999/xlink" width="360pt" height="288pt" viewBox="0 0 360 288" xmlns="http://www.w3.org/2000/svg" version="1.1">
 <metadata>
  <rdf:RDF xmlns:dc="http://purl.org/dc/elements/1.1/" xmlns:cc="http://creativecommons.org/ns#" xmlns:rdf="http://www.w3.org/1999/02/22-rdf-syntax-ns#">
   <cc:Work>
    <dc:type rdf:resource="http://purl.org/dc/dcmitype/StillImage"/>
    <dc:date>2026-08-03T10:59:50.239642</dc:date>
    <dc:format>image/svg+xml</dc:format>
    <dc:creator>
     <cc:Agent>
      <dc:title>Matplotlib v3.10.0, https://matplotlib.org/</dc:title>
     </cc:Agent>
    </dc:creator>
   </cc:Work>
  </rdf:RDF>
 </metadata>
 <defs>
  <style type="text/css">*{stroke-linejoin: round; stroke-linecap: butt}</style>
 </defs>
 <g id="figure_1">
  <g id="patch_1">
   <path d="M 0 288 
L 360 288 
L 360 0 
L 0 0 
z
" style="fill: #ffffff"/>
  </g>
  <g id="axes_1">
   <g id="patch_2">
    <path d="M 56.81 246.04 
L 349.2 246.04 
L 349.2 26.88 
L 56.81 26.88 
z
" style="fill: #ffffff"/>
   </g>
   <g id="FillBetweenPolyCollection_1">
    <defs>
     <path id="m1a010a6d89" d="M 86.126193 -56.269258 
L 85.971807 -56.269258 
L 85.934967 -57.782151 
L 85.887522 -59.295044 
L 85.829807 -60.807937 
L 85.763787 -62.32083 
L 85.693251 -63.833723 
L 85.623647 -65.346616 
L 85.561487 -66.85951 
L 85.513381 -68.372403 
L 85.484891 -69.885296 
L 85.479467 -71.398189 
L 85.497745 -72.911082 
L 85.537395 -74.423975 
L 85.593542 -75.936868 
L 85.659635 -77.449761 
L 85.728495 -78.962654 
L 85.793245 -80.475547 
L 85.847882 -81.98844 
L 85.88737 -83.501333 
L 85.907298 -85.014226 
L 85.903225 -86.527119 
L 85.869964 -88.040012 
L 85.801015 -89.552905 
L 85.688345 -91.065798 
L 85.522613 -92.578691 
L 85.293857 -94.091585 
L 84.99253 -95.604478 
L 84.610692 -97.117371 
L 84.143123 -98.630264 
L 83.588069 -100.143157 
L 82.947433 -101.65605 
L 82.226263 -103.168943 
L 81.431556 -104.681836 
L 80.570544 -106.194729 
L 79.648774 -107.707622 
L 78.668455 -109.220515 
L 77.627568 -110.733408 
L 76.520253 -112.246301 
L 75.338731 -113.759194 
L 74.076744 -115.272087 
L 72.734014 -116.78498 
L 71.320826 -118.297873 
L 69.861575 -119.810766 
L 68.396132 -121.32366 
L 66.978243 -122.836553 
L 65.670768 -124.349446 
L 64.53837 -125.862339 
L 63.638899 -127.375232 
L 63.015176 -128.888125 
L 62.68887 -130.401018 
L 62.6578 -131.913911 
L 62.897194 -133.426804 
L 63.364562 -134.939697 
L 64.006974 -136.45259 
L 64.769039 -137.965483 
L 65.59982 -139.478376 
L 66.457401 -140.991269 
L 67.310638 -142.504162 
L 68.138479 -144.017055 
L 68.927947 -145.529948 
L 69.672026 -147.042842 
L 70.368442 -148.555735 
L 71.019669 -150.068628 
L 71.633771 -151.581521 
L 72.225171 -153.094414 
L 72.814368 -154.607307 
L 73.425918 -156.1202 
L 74.084685 -157.633093 
L 74.811009 -159.145986 
L 75.61597 -160.658879 
L 76.497982 -162.171772 
L 77.441688 -163.684665 
L 78.419538 -165.197558 
L 79.395757 -166.710451 
L 80.331866 -168.223344 
L 81.192596 -169.736237 
L 81.95099 -171.24913 
L 82.591735 -172.762023 
L 83.112178 -174.274917 
L 83.521018 -175.78781 
L 83.835175 -177.300703 
L 84.075707 -178.813596 
L 84.263799 -180.326489 
L 84.417702 -181.839382 
L 84.551128 -183.352275 
L 84.673103 -184.865168 
L 84.78889 -186.378061 
L 84.90133 -187.890954 
L 85.012023 -189.403847 
L 85.121977 -190.91674 
L 85.231714 -192.429633 
L 85.341044 -193.942526 
L 85.448821 -195.455419 
L 85.552946 -196.968312 
L 85.650678 -198.481205 
L 85.739195 -199.994098 
L 85.816183 -201.506992 
L 85.880284 -203.019885 
L 85.931279 -204.532778 
L 85.970005 -206.045671 
L 86.127995 -206.045671 
L 86.127995 -206.045671 
L 86.166721 -204.532778 
L 86.217716 -203.019885 
L 86.281817 -201.506992 
L 86.358805 -199.994098 
L 86.447322 -198.481205 
L 86.545054 -196.968312 
L 86.649179 -195.455419 
L 86.756956 -193.942526 
L 86.866286 -192.429633 
L 86.976023 -190.91674 
L 87.085977 -189.403847 
L 87.19667 -187.890954 
L 87.30911 -186.378061 
L 87.424897 -184.865168 
L 87.546872 -183.352275 
L 87.680298 -181.839382 
L 87.834201 -180.326489 
L 88.022293 -178.813596 
L 88.262825 -177.300703 
L 88.576982 -175.78781 
L 88.985822 -174.274917 
L 89.506265 -172.762023 
L 90.14701 -171.24913 
L 90.905404 -169.736237 
L 91.766134 -168.223344 
L 92.702243 -166.710451 
L 93.678462 -165.197558 
L 94.656312 -163.684665 
L 95.600018 -162.171772 
L 96.48203 -160.658879 
L 97.286991 -159.145986 
L 98.013315 -157.633093 
L 98.672082 -156.1202 
L 99.283632 -154.607307 
L 99.872829 -153.094414 
L 100.464229 -151.581521 
L 101.078331 -150.068628 
L 101.729558 -148.555735 
L 102.425974 -147.042842 
L 103.170053 -145.529948 
L 103.959521 -144.017055 
L 104.787362 -142.504162 
L 105.640599 -140.991269 
L 106.49818 -139.478376 
L 107.328961 -137.965483 
L 108.091026 -136.45259 
L 108.733438 -134.939697 
L 109.200806 -133.426804 
L 109.4402 -131.913911 
L 109.40913 -130.401018 
L 109.082824 -128.888125 
L 108.459101 -127.375232 
L 107.55963 -125.862339 
L 106.427232 -124.349446 
L 105.119757 -122.836553 
L 103.701868 -121.32366 
L 102.236425 -119.810766 
L 100.777174 -118.297873 
L 99.363986 -116.78498 
L 98.021256 -115.272087 
L 96.759269 -113.759194 
L 95.577747 -112.246301 
L 94.470432 -110.733408 
L 93.429545 -109.220515 
L 92.449226 -107.707622 
L 91.527456 -106.194729 
L 90.666444 -104.681836 
L 89.871737 -103.168943 
L 89.150567 -101.65605 
L 88.509931 -100.143157 
L 87.954877 -98.630264 
L 87.487308 -97.117371 
L 87.10547 -95.604478 
L 86.804143 -94.091585 
L 86.575387 -92.578691 
L 86.409655 -91.065798 
L 86.296985 -89.552905 
L 86.228036 -88.040012 
L 86.194775 -86.527119 
L 86.190702 -85.014226 
L 86.21063 -83.501333 
L 86.250118 -81.98844 
L 86.304755 -80.475547 
L 86.369505 -78.962654 
L 86.438365 -77.449761 
L 86.504458 -75.936868 
L 86.560605 -74.423975 
L 86.600255 -72.911082 
L 86.618533 -71.398189 
L 86.613109 -69.885296 
L 86.584619 -68.372403 
L 86.536513 -66.85951 
L 86.474353 -65.346616 
L 86.404749 -63.833723 
L 86.334213 -62.32083 
L 86.268193 -60.807937 
L 86.210478 -59.295044 
L 86.163033 -57.782151 
L 86.126193 -56.269258 
z
" style="stroke: #333333"/>
    </defs>
    <g clip-path="url(#p05a035dd7c)">
     <use xlink:href="#m1a010a6d89" x="0" y="288" style="fill: #179292; stroke: #333333"/>
    </g>
   </g>
   <g id="FillBetweenPolyCollection_2">
    <defs>
     <path id="m113b8d443f" d="M 144.70459 -78.22517 
L 144.34941 -78.22517 
L 144.275718 -79.422817 
L 144.177917 -80.620464 
L 144.050776 -81.818112 
L 143.888877 -83.015759 
L 143.686938 -84.213407 
L 143.440207 -85.411054 
L 143.144909 -86.608702 
L 142.798696 -87.806349 
L 142.401047 -89.003996 
L 141.953576 -90.201644 
L 141.460179 -91.399291 
L 140.927 -92.596939 
L 140.362181 -93.794586 
L 139.775423 -94.992234 
L 139.177374 -96.189881 
L 138.578925 -97.387529 
L 137.990463 -98.585176 
L 137.421174 -99.782823 
L 136.878451 -100.980471 
L 136.367466 -102.178118 
L 135.890923 -103.375766 
L 135.448998 -104.573413 
L 135.03945 -105.771061 
L 134.657863 -106.968708 
L 134.297988 -108.166355 
L 133.952139 -109.364003 
L 133.611618 -110.56165 
L 133.267134 -111.759298 
L 132.909209 -112.956945 
L 132.52857 -114.154593 
L 132.116524 -115.35224 
L 131.66533 -116.549887 
L 131.168585 -117.747535 
L 130.621633 -118.945182 
L 130.02199 -120.14283 
L 129.369763 -121.340477 
L 128.668045 -122.538125 
L 127.92319 -123.735772 
L 127.144947 -124.93342 
L 126.346357 -126.131067 
L 125.543389 -127.328714 
L 124.754309 -128.526362 
L 123.998808 -129.724009 
L 123.296973 -130.921657 
L 122.6682 -132.119304 
L 122.130159 -133.316952 
L 121.697918 -134.514599 
L 121.383294 -135.712246 
L 121.19446 -136.909894 
L 121.1358 -138.107541 
L 121.207975 -139.305189 
L 121.408136 -140.502836 
L 121.730244 -141.700484 
L 122.165438 -142.898131 
L 122.702461 -144.095779 
L 123.328111 -145.293426 
L 124.02775 -146.491073 
L 124.785851 -147.688721 
L 125.586574 -148.886368 
L 126.414334 -150.084016 
L 127.254334 -151.281663 
L 128.092999 -152.479311 
L 128.918306 -153.676958 
L 129.719994 -154.874605 
L 130.489691 -156.072253 
L 131.220981 -157.2699 
L 131.909464 -158.467548 
L 132.552834 -159.665195 
L 133.150957 -160.862843 
L 133.705931 -162.06049 
L 134.222053 -163.258137 
L 134.705633 -164.455785 
L 135.164601 -165.653432 
L 135.607903 -166.85108 
L 136.044713 -168.048727 
L 136.483552 -169.246375 
L 136.931434 -170.444022 
L 137.393162 -171.64167 
L 137.870879 -172.839317 
L 138.363936 -174.036964 
L 138.86909 -175.234612 
L 139.380974 -176.432259 
L 139.892757 -177.629907 
L 140.396885 -178.827554 
L 140.885791 -180.025202 
L 141.352498 -181.222849 
L 141.791056 -182.420496 
L 142.196815 -183.618144 
L 142.566527 -184.815791 
L 142.89833 -186.013439 
L 143.191642 -187.211086 
L 143.447004 -188.408734 
L 143.665897 -189.606381 
L 143.850559 -190.804028 
L 144.003792 -192.001676 
L 144.128788 -193.199323 
L 144.228955 -194.396971 
L 144.30776 -195.594618 
L 144.368588 -196.792266 
L 144.685412 -196.792266 
L 144.685412 -196.792266 
L 144.74624 -195.594618 
L 144.825045 -194.396971 
L 144.925212 -193.199323 
L 145.050208 -192.001676 
L 145.203441 -190.804028 
L 145.388103 -189.606381 
L 145.606996 -188.408734 
L 145.862358 -187.211086 
L 146.15567 -186.013439 
L 146.487473 -184.815791 
L 146.857185 -183.618144 
L 147.262944 -182.420496 
L 147.701502 -181.222849 
L 148.168209 -180.025202 
L 148.657115 -178.827554 
L 149.161243 -177.629907 
L 149.673026 -176.432259 
L 150.18491 -175.234612 
L 150.690064 -174.036964 
L 151.183121 -172.839317 
L 151.660838 -171.64167 
L 152.122566 -170.444022 
L 152.570448 -169.246375 
L 153.009287 -168.048727 
L 153.446097 -166.85108 
L 153.889399 -165.653432 
L 154.348367 -164.455785 
L 154.831947 -163.258137 
L 155.348069 -162.06049 
L 155.903043 -160.862843 
L 156.501166 -159.665195 
L 157.144536 -158.467548 
L 157.833019 -157.2699 
L 158.564309 -156.072253 
L 159.334006 -154.874605 
L 160.135694 -153.676958 
L 160.961001 -152.479311 
L 161.799666 -151.281663 
L 162.639666 -150.084016 
L 163.467426 -148.886368 
L 164.268149 -147.688721 
L 165.02625 -146.491073 
L 165.725889 -145.293426 
L 166.351539 -144.095779 
L 166.888562 -142.898131 
L 167.323756 -141.700484 
L 167.645864 -140.502836 
L 167.846025 -139.305189 
L 167.9182 -138.107541 
L 167.85954 -136.909894 
L 167.670706 -135.712246 
L 167.356082 -134.514599 
L 166.923841 -133.316952 
L 166.3858 -132.119304 
L 165.757027 -130.921657 
L 165.055192 -129.724009 
L 164.299691 -128.526362 
L 163.510611 -127.328714 
L 162.707643 -126.131067 
L 161.909053 -124.93342 
L 161.13081 -123.735772 
L 160.385955 -122.538125 
L 159.684237 -121.340477 
L 159.03201 -120.14283 
L 158.432367 -118.945182 
L 157.885415 -117.747535 
L 157.38867 -116.549887 
L 156.937476 -115.35224 
L 156.52543 -114.154593 
L 156.144791 -112.956945 
L 155.786866 -111.759298 
L 155.442382 -110.56165 
L 155.101861 -109.364003 
L 154.756012 -108.166355 
L 154.396137 -106.968708 
L 154.01455 -105.771061 
L 153.605002 -104.573413 
L 153.163077 -103.375766 
L 152.686534 -102.178118 
L 152.175549 -100.980471 
L 151.632826 -99.782823 
L 151.063537 -98.585176 
L 150.475075 -97.387529 
L 149.876626 -96.189881 
L 149.278577 -94.992234 
L 148.691819 -93.794586 
L 148.127 -92.596939 
L 147.593821 -91.399291 
L 147.100424 -90.201644 
L 146.652953 -89.003996 
L 146.255304 -87.806349 
L 145.909091 -86.608702 
L 145.613793 -85.411054 
L 145.367062 -84.213407 
L 145.165123 -83.015759 
L 145.003224 -81.818112 
L 144.876083 -80.620464 
L 144.778282 -79.422817 
L 144.70459 -78.22517 
z
" style="stroke: #333333"/>
    </defs>
    <g clip-path="url(#p05a035dd7c)">
     <use xlink:href="#m113b8d443f" x="0" y="288" style="fill: #8bc85f; stroke: #333333"/>
    </g>
   </g>
   <g id="FillBetweenPolyCollection_3">
    <defs>
     <path id="m9a29dd4385" d="M 203.077436 -78.332354 
L 202.932564 -78.332354 
L 202.900364 -79.96502 
L 202.858981 -81.597687 
L 202.80801 -83.230354 
L 202.74785 -84.863021 
L 202.679768 -86.495688 
L 202.605775 -88.128355 
L 202.528281 -89.761021 
L 202.449559 -91.393688 
L 202.371128 -93.026355 
L 202.293205 -94.659022 
L 202.214384 -96.291689 
L 202.131661 -97.924355 
L 202.040846 -99.557022 
L 201.937272 -101.189689 
L 201.816651 -102.822356 
L 201.675866 -104.455023 
L 201.513494 -106.08769 
L 201.329969 -107.720356 
L 201.12735 -109.353023 
L 200.908782 -110.98569 
L 200.677759 -112.618357 
L 200.437317 -114.251024 
L 200.189195 -115.88369 
L 199.932982 -117.516357 
L 199.665227 -119.149024 
L 199.378544 -120.781691 
L 199.060827 -122.414358 
L 198.694824 -124.047025 
L 198.258379 -125.679691 
L 197.725629 -127.312358 
L 197.069295 -128.945025 
L 196.263977 -130.577692 
L 195.290083 -132.210359 
L 194.137828 -133.843025 
L 192.810629 -135.475692 
L 191.327283 -137.108359 
L 189.72251 -138.741026 
L 188.045682 -140.373693 
L 186.357859 -142.00636 
L 184.727462 -143.639026 
L 183.225109 -145.271693 
L 181.91817 -146.90436 
L 180.865629 -148.537027 
L 180.113689 -150.169694 
L 179.692453 -151.80236 
L 179.6138 -153.435027 
L 179.870492 -155.067694 
L 180.436442 -156.700361 
L 181.26812 -158.333028 
L 182.307114 -159.965695 
L 183.483915 -161.598361 
L 184.722892 -163.231028 
L 185.948301 -164.863695 
L 187.090864 -166.496362 
L 188.094208 -168.129029 
L 188.920295 -169.761695 
L 189.552983 -171.394362 
L 189.999096 -173.027029 
L 190.28674 -174.659696 
L 190.461052 -176.292363 
L 190.577946 -177.92503 
L 190.696737 -179.557696 
L 190.872633 -181.190363 
L 191.150106 -182.82303 
L 191.558001 -184.455697 
L 192.106997 -186.088364 
L 192.789685 -187.721031 
L 193.583128 -189.353697 
L 194.453368 -190.986364 
L 195.361031 -192.619031 
L 196.26702 -194.251698 
L 197.137331 -195.884365 
L 197.946277 -197.517031 
L 198.677793 -199.149698 
L 199.324925 -200.782365 
L 199.887964 -202.415032 
L 200.371909 -204.047699 
L 200.78395 -205.680366 
L 201.131526 -207.313032 
L 201.421254 -208.945699 
L 201.658722 -210.578366 
L 201.848948 -212.211033 
L 201.997109 -213.8437 
L 202.109199 -215.476366 
L 202.192308 -217.109033 
L 202.254423 -218.7417 
L 202.303786 -220.374367 
L 202.348007 -222.007034 
L 202.393177 -223.639701 
L 202.443226 -225.272367 
L 202.499685 -226.905034 
L 202.561879 -228.537701 
L 202.627486 -230.170368 
L 202.693292 -231.803035 
L 202.755972 -233.435701 
L 202.812712 -235.068368 
L 202.861605 -236.701035 
L 202.901776 -238.333702 
L 202.933296 -239.966369 
L 203.076704 -239.966369 
L 203.076704 -239.966369 
L 203.108224 -238.333702 
L 203.148395 -236.701035 
L 203.197288 -235.068368 
L 203.254028 -233.435701 
L 203.316708 -231.803035 
L 203.382514 -230.170368 
L 203.448121 -228.537701 
L 203.510315 -226.905034 
L 203.566774 -225.272367 
L 203.616823 -223.639701 
L 203.661993 -222.007034 
L 203.706214 -220.374367 
L 203.755577 -218.7417 
L 203.817692 -217.109033 
L 203.900801 -215.476366 
L 204.012891 -213.8437 
L 204.161052 -212.211033 
L 204.351278 -210.578366 
L 204.588746 -208.945699 
L 204.878474 -207.313032 
L 205.22605 -205.680366 
L 205.638091 -204.047699 
L 206.122036 -202.415032 
L 206.685075 -200.782365 
L 207.332207 -199.149698 
L 208.063723 -197.517031 
L 208.872669 -195.884365 
L 209.74298 -194.251698 
L 210.648969 -192.619031 
L 211.556632 -190.986364 
L 212.426872 -189.353697 
L 213.220315 -187.721031 
L 213.903003 -186.088364 
L 214.451999 -184.455697 
L 214.859894 -182.82303 
L 215.137367 -181.190363 
L 215.313263 -179.557696 
L 215.432054 -177.92503 
L 215.548948 -176.292363 
L 215.72326 -174.659696 
L 216.010904 -173.027029 
L 216.457017 -171.394362 
L 217.089705 -169.761695 
L 217.915792 -168.129029 
L 218.919136 -166.496362 
L 220.061699 -164.863695 
L 221.287108 -163.231028 
L 222.526085 -161.598361 
L 223.702886 -159.965695 
L 224.74188 -158.333028 
L 225.573558 -156.700361 
L 226.139508 -155.067694 
L 226.3962 -153.435027 
L 226.317547 -151.80236 
L 225.896311 -150.169694 
L 225.144371 -148.537027 
L 224.09183 -146.90436 
L 222.784891 -145.271693 
L 221.282538 -143.639026 
L 219.652141 -142.00636 
L 217.964318 -140.373693 
L 216.28749 -138.741026 
L 214.682717 -137.108359 
L 213.199371 -135.475692 
L 211.872172 -133.843025 
L 210.719917 -132.210359 
L 209.746023 -130.577692 
L 208.940705 -128.945025 
L 208.284371 -127.312358 
L 207.751621 -125.679691 
L 207.315176 -124.047025 
L 206.949173 -122.414358 
L 206.631456 -120.781691 
L 206.344773 -119.149024 
L 206.077018 -117.516357 
L 205.820805 -115.88369 
L 205.572683 -114.251024 
L 205.332241 -112.618357 
L 205.101218 -110.98569 
L 204.88265 -109.353023 
L 204.680031 -107.720356 
L 204.496506 -106.08769 
L 204.334134 -104.455023 
L 204.193349 -102.822356 
L 204.072728 -101.189689 
L 203.969154 -99.557022 
L 203.878339 -97.924355 
L 203.795616 -96.291689 
L 203.716795 -94.659022 
L 203.638872 -93.026355 
L 203.560441 -91.393688 
L 203.481719 -89.761021 
L 203.404225 -88.128355 
L 203.330232 -86.495688 
L 203.26215 -84.863021 
L 203.20199 -83.230354 
L 203.151019 -81.597687 
L 203.109636 -79.96502 
L 203.077436 -78.332354 
z
" style="stroke: #333333"/>
    </defs>
    <g clip-path="url(#p05a035dd7c)">
     <use xlink:href="#m9a29dd4385" x="0" y="288" style="fill: #8bc85f; stroke: #333333"/>
    </g>
   </g>
   <g id="FillBetweenPolyCollection_4">
    <defs>
     <path id="m415acec5c7" d="M 261.840409 -62.030616 
L 261.125591 -62.030616 
L 260.996649 -62.908654 
L 260.831427 -63.786693 
L 260.623275 -64.664732 
L 260.365352 -65.54277 
L 260.050879 -66.420809 
L 259.673432 -67.298848 
L 259.227241 -68.176886 
L 258.707484 -69.054925 
L 258.110563 -69.932964 
L 257.434347 -70.811002 
L 256.678371 -71.689041 
L 255.844004 -72.56708 
L 254.934586 -73.445118 
L 253.955524 -74.323157 
L 252.914358 -75.201196 
L 251.820785 -76.079234 
L 250.686617 -76.957273 
L 249.525645 -77.835312 
L 248.353396 -78.71335 
L 247.186748 -79.591389 
L 246.043413 -80.469427 
L 244.941284 -81.347466 
L 243.897704 -82.225505 
L 242.928696 -83.103543 
L 242.048236 -83.981582 
L 241.267629 -84.859621 
L 240.595053 -85.737659 
L 240.035314 -86.615698 
L 239.589811 -87.493737 
L 239.256705 -88.371775 
L 239.031242 -89.249814 
L 238.906168 -90.127853 
L 238.872182 -91.005891 
L 238.91837 -91.88393 
L 239.032578 -92.761969 
L 239.201732 -93.640007 
L 239.412091 -94.518046 
L 239.649487 -95.396085 
L 239.899572 -96.274123 
L 240.148113 -97.152162 
L 240.381368 -98.0302 
L 240.586521 -98.908239 
L 240.752187 -99.786278 
L 240.868919 -100.664316 
L 240.929682 -101.542355 
L 240.930236 -102.420394 
L 240.869363 -103.298432 
L 240.748929 -104.176471 
L 240.573742 -105.05451 
L 240.35125 -105.932548 
L 240.091102 -106.810587 
L 239.804616 -107.688626 
L 239.504243 -108.566664 
L 239.203047 -109.444703 
L 238.914258 -110.322742 
L 238.650916 -111.20078 
L 238.425587 -112.078819 
L 238.250145 -112.956857 
L 238.13558 -113.834896 
L 238.0918 -114.712935 
L 238.127413 -115.590973 
L 238.249479 -116.469012 
L 238.463246 -117.347051 
L 238.771914 -118.225089 
L 239.176441 -119.103128 
L 239.675459 -119.981167 
L 240.265305 -120.859205 
L 240.940189 -121.737244 
L 241.692485 -122.615283 
L 242.513123 -123.493321 
L 243.392033 -124.37136 
L 244.318597 -125.249399 
L 245.282061 -126.127437 
L 246.271885 -127.005476 
L 247.277982 -127.883515 
L 248.290878 -128.761553 
L 249.301766 -129.639592 
L 250.302506 -130.51763 
L 251.28557 -131.395669 
L 252.243983 -132.273708 
L 253.171272 -133.151746 
L 254.061439 -134.029785 
L 254.908982 -134.907824 
L 255.708955 -135.785862 
L 256.457062 -136.663901 
L 257.149773 -137.54194 
L 257.784455 -138.419978 
L 258.359475 -139.298017 
L 258.874283 -140.176056 
L 259.329444 -141.054094 
L 259.726615 -141.932133 
L 260.068464 -142.810172 
L 260.358536 -143.68821 
L 260.601075 -144.566249 
L 260.800817 -145.444288 
L 260.962773 -146.322326 
L 261.092017 -147.200365 
L 261.193493 -148.078403 
L 261.271861 -148.956442 
L 261.694139 -148.956442 
L 261.694139 -148.956442 
L 261.772507 -148.078403 
L 261.873983 -147.200365 
L 262.003227 -146.322326 
L 262.165183 -145.444288 
L 262.364925 -144.566249 
L 262.607464 -143.68821 
L 262.897536 -142.810172 
L 263.239385 -141.932133 
L 263.636556 -141.054094 
L 264.091717 -140.176056 
L 264.606525 -139.298017 
L 265.181545 -138.419978 
L 265.816227 -137.54194 
L 266.508938 -136.663901 
L 267.257045 -135.785862 
L 268.057018 -134.907824 
L 268.904561 -134.029785 
L 269.794728 -133.151746 
L 270.722017 -132.273708 
L 271.68043 -131.395669 
L 272.663494 -130.51763 
L 273.664234 -129.639592 
L 274.675122 -128.761553 
L 275.688018 -127.883515 
L 276.694115 -127.005476 
L 277.683939 -126.127437 
L 278.647403 -125.249399 
L 279.573967 -124.37136 
L 280.452877 -123.493321 
L 281.273515 -122.615283 
L 282.025811 -121.737244 
L 282.700695 -120.859205 
L 283.290541 -119.981167 
L 283.789559 -119.103128 
L 284.194086 -118.225089 
L 284.502754 -117.347051 
L 284.716521 -116.469012 
L 284.838587 -115.590973 
L 284.8742 -114.712935 
L 284.83042 -113.834896 
L 284.715855 -112.956857 
L 284.540413 -112.078819 
L 284.315084 -111.20078 
L 284.051742 -110.322742 
L 283.762953 -109.444703 
L 283.461757 -108.566664 
L 283.161384 -107.688626 
L 282.874898 -106.810587 
L 282.61475 -105.932548 
L 282.392258 -105.05451 
L 282.217071 -104.176471 
L 282.096637 -103.298432 
L 282.035764 -102.420394 
L 282.036318 -101.542355 
L 282.097081 -100.664316 
L 282.213813 -99.786278 
L 282.379479 -98.908239 
L 282.584632 -98.0302 
L 282.817887 -97.152162 
L 283.066428 -96.274123 
L 283.316513 -95.396085 
L 283.553909 -94.518046 
L 283.764268 -93.640007 
L 283.933422 -92.761969 
L 284.04763 -91.88393 
L 284.093818 -91.005891 
L 284.059832 -90.127853 
L 283.934758 -89.249814 
L 283.709295 -88.371775 
L 283.376189 -87.493737 
L 282.930686 -86.615698 
L 282.370947 -85.737659 
L 281.698371 -84.859621 
L 280.917764 -83.981582 
L 280.037304 -83.103543 
L 279.068296 -82.225505 
L 278.024716 -81.347466 
L 276.922587 -80.469427 
L 275.779252 -79.591389 
L 274.612604 -78.71335 
L 273.440355 -77.835312 
L 272.279383 -76.957273 
L 271.145215 -76.079234 
L 270.051642 -75.201196 
L 269.010476 -74.323157 
L 268.031414 -73.445118 
L 267.121996 -72.56708 
L 266.287629 -71.689041 
L 265.531653 -70.811002 
L 264.855437 -69.932964 
L 264.258516 -69.054925 
L 263.738759 -68.176886 
L 263.292568 -67.298848 
L 262.915121 -66.420809 
L 262.600648 -65.54277 
L 262.342725 -64.664732 
L 262.134573 -63.786693 
L 261.969351 -62.908654 
L 261.840409 -62.030616 
z
" style="stroke: #333333"/>
    </defs>
    <g clip-path="url(#p05a035dd7c)">
     <use xlink:href="#m415acec5c7" x="0" y="288" style="fill: #e59aa7; stroke: #333333"/>
    </g>
   </g>
   <g id="FillBetweenPolyCollection_5">
    <defs>
     <path id="mb099b47c7a" d="M 320.050133 -112.64343 
L 319.871867 -112.64343 
L 319.834402 -114.268302 
L 319.78584 -115.893175 
L 319.724715 -117.518048 
L 319.649933 -119.14292 
L 319.560894 -120.767793 
L 319.457558 -122.392666 
L 319.340448 -124.017538 
L 319.210573 -125.642411 
L 319.069314 -127.267284 
L 318.918274 -128.892156 
L 318.759136 -130.517029 
L 318.593537 -132.141901 
L 318.422939 -133.766774 
L 318.248472 -135.391647 
L 318.070709 -137.016519 
L 317.889341 -138.641392 
L 317.70276 -140.266265 
L 317.507597 -141.891137 
L 317.298311 -143.51601 
L 317.066942 -145.140883 
L 316.803152 -146.765755 
L 316.494627 -148.390628 
L 316.127861 -150.015501 
L 315.689252 -151.640373 
L 315.166406 -153.265246 
L 314.549439 -154.890119 
L 313.832116 -156.514991 
L 313.012643 -158.139864 
L 312.094003 -159.764737 
L 311.083807 -161.389609 
L 309.993716 -163.014482 
L 308.838566 -164.639355 
L 307.635386 -166.264227 
L 306.402505 -167.8891 
L 305.15892 -169.513973 
L 303.924003 -171.138845 
L 302.717546 -172.763718 
L 301.560011 -174.38859 
L 300.472781 -176.013463 
L 299.47815 -177.638336 
L 298.598827 -179.263208 
L 297.856806 -180.888081 
L 297.271616 -182.512954 
L 296.85815 -184.137826 
L 296.624432 -185.762699 
L 296.5698 -187.387572 
L 296.683972 -189.012444 
L 296.947369 -190.637317 
L 297.332811 -192.26219 
L 297.808445 -193.887062 
L 298.341465 -195.511935 
L 298.901991 -197.136808 
L 299.466398 -198.76168 
L 300.019501 -200.386553 
L 300.555204 -202.011426 
L 301.075574 -203.636298 
L 301.588581 -205.261171 
L 302.105068 -206.886044 
L 302.635598 -208.510916 
L 303.187853 -210.135789 
L 303.765057 -211.760662 
L 304.365666 -213.385534 
L 304.98424 -215.010407 
L 305.613151 -216.635279 
L 306.244641 -218.260152 
L 306.872687 -219.885025 
L 307.494266 -221.509897 
L 308.109786 -223.13477 
L 308.722684 -224.759643 
L 309.338379 -226.384515 
L 309.962865 -228.009388 
L 310.601269 -229.634261 
L 311.256614 -231.259133 
L 311.928971 -232.884006 
L 312.615056 -234.508879 
L 313.308285 -236.133751 
L 313.999239 -237.758624 
L 314.67649 -239.383497 
L 315.327692 -241.008369 
L 315.940824 -242.633242 
L 316.505446 -244.258115 
L 317.013787 -245.882987 
L 317.461501 -247.50786 
L 317.84797 -249.132733 
L 318.176083 -250.757605 
L 318.451558 -252.382478 
L 318.681938 -254.007351 
L 318.875445 -255.632223 
L 319.039925 -257.257096 
L 319.182043 -258.881968 
L 319.306834 -260.506841 
L 319.417622 -262.131714 
L 319.516252 -263.756586 
L 319.603505 -265.381459 
L 319.679584 -267.006332 
L 319.744547 -268.631204 
L 319.798614 -270.256077 
L 319.842339 -271.88095 
L 319.876628 -273.505822 
L 320.045372 -273.505822 
L 320.045372 -273.505822 
L 320.079661 -271.88095 
L 320.123386 -270.256077 
L 320.177453 -268.631204 
L 320.242416 -267.006332 
L 320.318495 -265.381459 
L 320.405748 -263.756586 
L 320.504378 -262.131714 
L 320.615166 -260.506841 
L 320.739957 -258.881968 
L 320.882075 -257.257096 
L 321.046555 -255.632223 
L 321.240062 -254.007351 
L 321.470442 -252.382478 
L 321.745917 -250.757605 
L 322.07403 -249.132733 
L 322.460499 -247.50786 
L 322.908213 -245.882987 
L 323.416554 -244.258115 
L 323.981176 -242.633242 
L 324.594308 -241.008369 
L 325.24551 -239.383497 
L 325.922761 -237.758624 
L 326.613715 -236.133751 
L 327.306944 -234.508879 
L 327.993029 -232.884006 
L 328.665386 -231.259133 
L 329.320731 -229.634261 
L 329.959135 -228.009388 
L 330.583621 -226.384515 
L 331.199316 -224.759643 
L 331.812214 -223.13477 
L 332.427734 -221.509897 
L 333.049313 -219.885025 
L 333.677359 -218.260152 
L 334.308849 -216.635279 
L 334.93776 -215.010407 
L 335.556334 -213.385534 
L 336.156943 -211.760662 
L 336.734147 -210.135789 
L 337.286402 -208.510916 
L 337.816932 -206.886044 
L 338.333419 -205.261171 
L 338.846426 -203.636298 
L 339.366796 -202.011426 
L 339.902499 -200.386553 
L 340.455602 -198.76168 
L 341.020009 -197.136808 
L 341.580535 -195.511935 
L 342.113555 -193.887062 
L 342.589189 -192.26219 
L 342.974631 -190.637317 
L 343.238028 -189.012444 
L 343.3522 -187.387572 
L 343.297568 -185.762699 
L 343.06385 -184.137826 
L 342.650384 -182.512954 
L 342.065194 -180.888081 
L 341.323173 -179.263208 
L 340.44385 -177.638336 
L 339.449219 -176.013463 
L 338.361989 -174.38859 
L 337.204454 -172.763718 
L 335.997997 -171.138845 
L 334.76308 -169.513973 
L 333.519495 -167.8891 
L 332.286614 -166.264227 
L 331.083434 -164.639355 
L 329.928284 -163.014482 
L 328.838193 -161.389609 
L 327.827997 -159.764737 
L 326.909357 -158.139864 
L 326.089884 -156.514991 
L 325.372561 -154.890119 
L 324.755594 -153.265246 
L 324.232748 -151.640373 
L 323.794139 -150.015501 
L 323.427373 -148.390628 
L 323.118848 -146.765755 
L 322.855058 -145.140883 
L 322.623689 -143.51601 
L 322.414403 -141.891137 
L 322.21924 -140.266265 
L 322.032659 -138.641392 
L 321.851291 -137.016519 
L 321.673528 -135.391647 
L 321.499061 -133.766774 
L 321.328463 -132.141901 
L 321.162864 -130.517029 
L 321.003726 -128.892156 
L 320.852686 -127.267284 
L 320.711427 -125.642411 
L 320.581552 -124.017538 
L 320.464442 -122.392666 
L 320.361106 -120.767793 
L 320.272067 -119.14292 
L 320.197285 -117.518048 
L 320.13616 -115.893175 
L 320.087598 -114.268302 
L 320.050133 -112.64343 
z
" style="stroke: #333333"/>
    </defs>
    <g clip-path="url(#p05a035dd7c)">
     <use xlink:href="#mb099b47c7a" x="0" y="288" style="fill: #e59aa7; stroke: #333333"/>
    </g>
   </g>
   <g id="matplotlib.axis_1">
    <g id="xtick_1">
     <g id="line2d_1">
      <defs>
       <path id="m405fc1529d" d="M 0 0 
L 0 3.5 
" style="stroke: #000000; stroke-width: 0.8"/>
      </defs>
      <g>
       <use xlink:href="#m405fc1529d" x="86.049" y="246.04" style="stroke: #000000; stroke-width: 0.8"/>
      </g>
     </g>
     <g id="text_1">
      <text style="font-size: 10px; font-family: 'DejaVu Sans', 'Bitstream Vera Sans', 'Computer Modern Sans Serif', 'Lucida Grande', 'Verdana', 'Geneva', 'Lucid', 'Arial', 'Helvetica', 'Avant Garde', sans-serif; text-anchor: middle" x="86.049" y="260.638438" transform="rotate(-0 86.049 260.638438)">VISa</text>
     </g>
    </g>
    <g id="xtick_2">
     <g id="line2d_2">
      <g>
       <use xlink:href="#m405fc1529d" x="144.527" y="246.04" style="stroke: #000000; stroke-width: 0.8"/>
      </g>
     </g>
     <g id="text_2">
      <text style="font-size: 10px; font-family: 'DejaVu Sans', 'Bitstream Vera Sans', 'Computer Modern Sans Serif', 'Lucida Grande', 'Verdana', 'Geneva', 'Lucid', 'Arial', 'Helvetica', 'Avant Garde', sans-serif; text-anchor: middle" x="144.527" y="260.638438" transform="rotate(-0 144.527 260.638438)">CA1</text>
     </g>
    </g>
    <g id="xtick_3">
     <g id="line2d_3">
      <g>
       <use xlink:href="#m405fc1529d" x="203.005" y="246.04" style="stroke: #000000; stroke-width: 0.8"/>
      </g>
     </g>
     <g id="text_3">
      <text style="font-size: 10px; font-family: 'DejaVu Sans', 'Bitstream Vera Sans', 'Computer Modern Sans Serif', 'Lucida Grande', 'Verdana', 'Geneva', 'Lucid', 'Arial', 'Helvetica', 'Avant Garde', sans-serif; text-anchor: middle" x="203.005" y="260.638438" transform="rotate(-0 203.005 260.638438)">DG</text>
     </g>
    </g>
    <g id="xtick_4">
     <g id="line2d_4">
      <g>
       <use xlink:href="#m405fc1529d" x="261.483" y="246.04" style="stroke: #000000; stroke-width: 0.8"/>
      </g>
     </g>
     <g id="text_4">
      <text style="font-size: 10px; font-family: 'DejaVu Sans', 'Bitstream Vera Sans', 'Computer Modern Sans Serif', 'Lucida Grande', 'Verdana', 'Geneva', 'Lucid', 'Arial', 'Helvetica', 'Avant Garde', sans-serif; text-anchor: middle" x="261.483" y="260.638438" transform="rotate(-0 261.483 260.638438)">LP</text>
     </g>
    </g>
    <g id="xtick_5">
     <g id="line2d_5">
      <g>
       <use xlink:href="#m405fc1529d" x="319.961" y="246.04" style="stroke: #000000; stroke-width: 0.8"/>
      </g>
     </g>
     <g id="text_5">
      <text style="font-size: 10px; font-family: 'DejaVu Sans', 'Bitstream Vera Sans', 'Computer Modern Sans Serif', 'Lucida Grande', 'Verdana', 'Geneva', 'Lucid', 'Arial', 'Helvetica', 'Avant Garde', sans-serif; text-anchor: middle" x="319.961" y="260.638438" transform="rotate(-0 319.961 260.638438)">PO</text>
     </g>
    </g>
    <g id="text_6">
     <text style="font-size: 10px; font-family: 'DejaVu Sans', 'Bitstream Vera Sans', 'Computer Modern Sans Serif', 'Lucida Grande', 'Verdana', 'Geneva', 'Lucid', 'Arial', 'Helvetica', 'Avant Garde', sans-serif; text-anchor: middle" x="203.005" y="274.316562" transform="rotate(-0 203.005 274.316562)">region</text>
    </g>
   </g>
   <g id="matplotlib.axis_2">
    <g id="ytick_1">
     <g id="line2d_6">
      <defs>
       <path id="mb4c17abf17" d="M 0 0 
L -3.5 0 
" style="stroke: #000000; stroke-width: 0.8"/>
      </defs>
      <g>
       <use xlink:href="#mb4c17abf17" x="56.81" y="200.381667" style="stroke: #000000; stroke-width: 0.8"/>
      </g>
     </g>
     <g id="text_7">
      <text style="font-size: 10px; font-family: 'DejaVu Sans', 'Bitstream Vera Sans', 'Computer Modern Sans Serif', 'Lucida Grande', 'Verdana', 'Geneva', 'Lucid', 'Arial', 'Helvetica', 'Avant Garde', sans-serif; text-anchor: end" x="49.81" y="204.180885" transform="rotate(-0 49.81 204.180885)">0.00</text>
     </g>
    </g>
    <g id="ytick_2">
     <g id="line2d_7">
      <g>
       <use xlink:href="#mb4c17abf17" x="56.81" y="40.5775" style="stroke: #000000; stroke-width: 0.8"/>
      </g>
     </g>
     <g id="text_8">
      <text style="font-size: 10px; font-family: 'DejaVu Sans', 'Bitstream Vera Sans', 'Computer Modern Sans Serif', 'Lucida Grande', 'Verdana', 'Geneva', 'Lucid', 'Arial', 'Helvetica', 'Avant Garde', sans-serif; text-anchor: end" x="49.81" y="44.376719" transform="rotate(-0 49.81 44.376719)">0.35</text>
     </g>
    </g>
    <g id="text_9">
     <text style="font-size: 12px; font-family: 'DejaVu Sans', 'Bitstream Vera Sans', 'Computer Modern Sans Serif', 'Lucida Grande', 'Verdana', 'Geneva', 'Lucid', 'Arial', 'Helvetica', 'Avant Garde', sans-serif; text-anchor: middle" x="21.04875" y="136.46" transform="rotate(-90 21.04875 136.46)">r</text>
    </g>
   </g>
   <g id="line2d_8">
    <path d="M 64.756455 162.429025 
L 107.341545 162.429025 
" clip-path="url(#p05a035dd7c)" style="fill: none; stroke-dasharray: 1.25,0.75; stroke-dashoffset: 0; stroke: #333333"/>
   </g>
   <g id="line2d_9">
    <path d="M 63.106752 153.894849 
L 108.991248 153.894849 
" clip-path="url(#p05a035dd7c)" style="fill: none; stroke-dasharray: 2.5,1; stroke-dashoffset: 0; stroke: #333333"/>
   </g>
   <g id="line2d_10">
    <path d="M 70.508892 139.117979 
L 101.589108 139.117979 
" clip-path="url(#p05a035dd7c)" style="fill: none; stroke-dasharray: 1.25,0.75; stroke-dashoffset: 0; stroke: #333333"/>
   </g>
   <g id="line2d_11">
    <path d="M 128.912725 165.879479 
L 160.141275 165.879479 
" clip-path="url(#p05a035dd7c)" style="fill: none; stroke-dasharray: 1.25,0.75; stroke-dashoffset: 0; stroke: #333333"/>
   </g>
   <g id="line2d_12">
    <path d="M 121.264095 151.531755 
L 167.789905 151.531755 
" clip-path="url(#p05a035dd7c)" style="fill: none; stroke-dasharray: 2.5,1; stroke-dashoffset: 0; stroke: #333333"/>
   </g>
   <g id="line2d_13">
    <path d="M 125.437208 139.33704 
L 163.616792 139.33704 
" clip-path="url(#p05a035dd7c)" style="fill: none; stroke-dasharray: 1.25,0.75; stroke-dashoffset: 0; stroke: #333333"/>
   </g>
   <g id="line2d_14">
    <path d="M 181.796697 140.907215 
L 224.213303 140.907215 
" clip-path="url(#p05a035dd7c)" style="fill: none; stroke-dasharray: 1.25,0.75; stroke-dashoffset: 0; stroke: #333333"/>
   </g>
   <g id="line2d_15">
    <path d="M 180.817405 130.551772 
L 225.192595 130.551772 
" clip-path="url(#p05a035dd7c)" style="fill: none; stroke-dasharray: 2.5,1; stroke-dashoffset: 0; stroke: #333333"/>
   </g>
   <g id="line2d_16">
    <path d="M 190.280082 113.378098 
L 215.729918 113.378098 
" clip-path="url(#p05a035dd7c)" style="fill: none; stroke-dasharray: 1.25,0.75; stroke-dashoffset: 0; stroke: #333333"/>
   </g>
   <g id="line2d_17">
    <path d="M 238.890894 197.477535 
L 284.075106 197.477535 
" clip-path="url(#p05a035dd7c)" style="fill: none; stroke-dasharray: 1.25,0.75; stroke-dashoffset: 0; stroke: #333333"/>
   </g>
   <g id="line2d_18">
    <path d="M 240.785319 184.088836 
L 282.180681 184.088836 
" clip-path="url(#p05a035dd7c)" style="fill: none; stroke-dasharray: 2.5,1; stroke-dashoffset: 0; stroke: #333333"/>
   </g>
   <g id="line2d_19">
    <path d="M 238.667429 170.072129 
L 284.298571 170.072129 
" clip-path="url(#p05a035dd7c)" style="fill: none; stroke-dasharray: 1.25,0.75; stroke-dashoffset: 0; stroke: #333333"/>
   </g>
   <g id="line2d_20">
    <path d="M 299.198541 109.844984 
L 340.723459 109.844984 
" clip-path="url(#p05a035dd7c)" style="fill: none; stroke-dasharray: 1.25,0.75; stroke-dashoffset: 0; stroke: #333333"/>
   </g>
   <g id="line2d_21">
    <path d="M 296.967222 97.278991 
L 342.954778 97.278991 
" clip-path="url(#p05a035dd7c)" style="fill: none; stroke-dasharray: 2.5,1; stroke-dashoffset: 0; stroke: #333333"/>
   </g>
   <g id="line2d_22">
    <path d="M 303.400303 77.26615 
L 336.521697 77.26615 
" clip-path="url(#p05a035dd7c)" style="fill: none; stroke-dasharray: 1.25,0.75; stroke-dashoffset: 0; stroke: #333333"/>
   </g>
   <g id="line2d_23">
    <path d="M 56.81 200.381667 
L 349.2 200.381667 
" clip-path="url(#p05a035dd7c)" style="fill: none; stroke: #000000; stroke-width: 0.8; stroke-linecap: square"/>
   </g>
   <g id="patch_3">
    <path d="M 56.81 246.04 
L 56.81 26.88 
" style="fill: none; stroke: #000000; stroke-width: 0.8; stroke-linejoin: miter; stroke-linecap: square"/>
   </g>
   <g id="text_10">
    <text style="font-size: 12px; font-family: 'DejaVu Sans', 'Bitstream Vera Sans', 'Computer Modern Sans Serif', 'Lucida Grande', 'Verdana', 'Geneva', 'Lucid', 'Arial', 'Helvetica', 'Avant Garde', sans-serif; text-anchor: middle" x="203.005" y="20.88" transform="rotate(-0 203.005 20.88)">distances correlation across folds</text>
   </g>
  </g>
 </g>
 <defs>
  <clipPath id="p05a035dd7c">
   <rect x="56.81" y="26.88" width="292.39" height="219.16"/>
  </clipPath>
 </defs>
</svg>
