<?xml version="1.0" encoding="utf-8" standalone="no"?>
<!DOCTYPE svg PUBLIC "-//W3C//DTD SVG 1.1//EN"
  "http://www.w3.org/Graphics/SVG/1.1/DTD/svg11.dtd">
<svg xmlns:xlink="http://www.w3.org/1999/xlink" width="432pt" height="360pt" viewBox="0 0 432 360" xmlns="http://www.w3.org/2000/svg" version="1.1">
 <metadata>
  <rdf:RDF xmlns:dc="http://purl.org/dc/elements/1.1/" xmlns:cc="http://creativecommons.org/ns#" xmlns:rdf="http://www.w3.org/1999/02/22-rdf-syntax-ns#">
   <cc:Work>
    <dc:type rdf:resource="http://purl.org/dc/dcmitype/StillImage"/>
    <dc:date>2026-03-12T09:42:31.471986</dc:date>
    <dc:format>image/svg+xml</dc:format>
    <dc:creator>
     <cc:Agent>
      <dc:title>Matplotlib v3.10.0, https://matplotlib.org/</dc:title>
     </cc:Agent>
    </dc:creator>
   </cc:Work>
  </rdf:RDF>
 </metadata>
 <defs>
  <style type="text/css">*{stroke-linejoin: round; stroke-linecap: butt}</style>
 </defs>
 <g id="figure_1">
  <g id="patch_1">
   <path d="M 0 360 
L 432 360 
L 432 0 
L 0 0 
z
" style="fill: #ffffff"/>
  </g>
  <g id="axes_1">
   <g id="patch_2">
    <path d="M 73.964 155.96 
L 421.2 155.96 
L 421.2 26.88 
L 73.964 26.88 
z
" style="fill: #ffffff"/>
   </g>
   <g id="FillBetweenPolyCollection_1">
    <defs>
     <path id="m7819a7580c" d="M 103.031869 -252.599657 
L 102.768797 -252.599657 
L 102.7201 -253.079893 
L 102.659708 -253.560129 
L 102.587228 -254.040365 
L 102.503085 -254.520602 
L 102.408625 -255.000838 
L 102.306068 -255.481074 
L 102.198276 -255.96131 
L 102.088331 -256.441546 
L 101.978939 -256.921782 
L 101.871761 -257.402018 
L 101.766782 -257.882254 
L 101.661844 -258.36249 
L 101.552512 -258.842727 
L 101.432343 -259.322963 
L 101.293596 -259.803199 
L 101.128344 -260.283435 
L 100.929813 -260.763671 
L 100.693748 -261.243907 
L 100.419533 -261.724143 
L 100.110815 -262.204379 
L 99.775439 -262.684615 
L 99.424605 -263.164852 
L 99.071289 -263.645088 
L 98.728116 -264.125324 
L 98.40498 -264.60556 
L 98.106766 -265.085796 
L 97.831559 -265.566032 
L 97.569638 -266.046268 
L 97.303463 -266.526504 
L 97.008724 -267.00674 
L 96.656366 -267.486977 
L 96.215401 -267.967213 
L 95.656194 -268.447449 
L 94.953911 -268.927685 
L 94.091769 -269.407921 
L 93.063751 -269.888157 
L 91.87652 -270.368393 
L 90.550283 -270.848629 
L 89.118432 -271.328865 
L 87.625908 -271.809102 
L 86.126304 -272.289338 
L 84.677907 -272.769574 
L 83.33901 -273.24981 
L 82.162958 -273.730046 
L 81.193526 -274.210282 
L 80.461196 -274.690518 
L 79.980859 -275.170754 
L 79.751267 -275.65099 
L 79.756306 -276.131226 
L 79.967906 -276.611463 
L 80.3501 -277.091699 
L 80.863625 -277.571935 
L 81.470355 -278.052171 
L 82.136971 -278.532407 
L 82.83743 -279.012643 
L 83.554051 -279.492879 
L 84.277305 -279.973115 
L 85.004588 -280.453351 
L 85.738391 -280.933588 
L 86.484276 -281.413824 
L 87.249023 -281.89406 
L 88.039146 -282.374296 
L 88.859828 -282.854532 
L 89.71424 -283.334768 
L 90.603103 -283.815004 
L 91.52438 -284.29524 
L 92.473044 -284.775476 
L 93.440927 -285.255713 
L 94.416737 -285.735949 
L 95.386337 -286.216185 
L 96.33337 -286.696421 
L 97.240246 -287.176657 
L 98.08942 -287.656893 
L 98.864818 -288.137129 
L 99.553232 -288.617365 
L 100.145474 -289.097601 
L 100.637153 -289.577838 
L 101.028977 -290.058074 
L 101.326561 -290.53831 
L 101.539798 -291.018546 
L 101.681871 -291.498782 
L 101.76806 -291.979018 
L 101.814437 -292.459254 
L 101.836608 -292.93949 
L 101.848586 -293.419726 
L 101.861908 -293.899963 
L 101.885046 -294.380199 
L 101.923169 -294.860435 
L 101.978239 -295.340671 
L 102.049417 -295.820907 
L 102.133699 -296.301143 
L 102.226684 -296.781379 
L 102.323375 -297.261615 
L 102.418887 -297.741851 
L 102.509007 -298.222088 
L 102.590555 -298.702324 
L 102.661528 -299.18256 
L 102.721069 -299.662796 
L 102.7693 -300.143032 
L 103.031367 -300.143032 
L 103.031367 -300.143032 
L 103.079598 -299.662796 
L 103.139139 -299.18256 
L 103.210112 -298.702324 
L 103.29166 -298.222088 
L 103.38178 -297.741851 
L 103.477291 -297.261615 
L 103.573982 -296.781379 
L 103.666968 -296.301143 
L 103.751249 -295.820907 
L 103.822427 -295.340671 
L 103.877498 -294.860435 
L 103.915621 -294.380199 
L 103.938759 -293.899963 
L 103.95208 -293.419726 
L 103.964058 -292.93949 
L 103.986229 -292.459254 
L 104.032607 -291.979018 
L 104.118795 -291.498782 
L 104.260869 -291.018546 
L 104.474105 -290.53831 
L 104.77169 -290.058074 
L 105.163514 -289.577838 
L 105.655193 -289.097601 
L 106.247434 -288.617365 
L 106.935848 -288.137129 
L 107.711247 -287.656893 
L 108.560421 -287.176657 
L 109.467296 -286.696421 
L 110.414329 -286.216185 
L 111.38393 -285.735949 
L 112.35974 -285.255713 
L 113.327623 -284.775476 
L 114.276287 -284.29524 
L 115.197564 -283.815004 
L 116.086427 -283.334768 
L 116.940839 -282.854532 
L 117.761521 -282.374296 
L 118.551643 -281.89406 
L 119.316391 -281.413824 
L 120.062276 -280.933588 
L 120.796079 -280.453351 
L 121.523362 -279.973115 
L 122.246616 -279.492879 
L 122.963237 -279.012643 
L 123.663695 -278.532407 
L 124.330312 -278.052171 
L 124.937042 -277.571935 
L 125.450566 -277.091699 
L 125.832761 -276.611463 
L 126.044361 -276.131226 
L 126.0494 -275.65099 
L 125.819807 -275.170754 
L 125.339471 -274.690518 
L 124.607141 -274.210282 
L 123.637709 -273.730046 
L 122.461657 -273.24981 
L 121.122759 -272.769574 
L 119.674363 -272.289338 
L 118.174759 -271.809102 
L 116.682235 -271.328865 
L 115.250384 -270.848629 
L 113.924146 -270.368393 
L 112.736916 -269.888157 
L 111.708898 -269.407921 
L 110.846755 -268.927685 
L 110.144473 -268.447449 
L 109.585266 -267.967213 
L 109.1443 -267.486977 
L 108.791943 -267.00674 
L 108.497203 -266.526504 
L 108.231028 -266.046268 
L 107.969107 -265.566032 
L 107.693901 -265.085796 
L 107.395687 -264.60556 
L 107.07255 -264.125324 
L 106.729378 -263.645088 
L 106.376062 -263.164852 
L 106.025228 -262.684615 
L 105.689852 -262.204379 
L 105.381134 -261.724143 
L 105.106918 -261.243907 
L 104.870853 -260.763671 
L 104.672323 -260.283435 
L 104.507071 -259.803199 
L 104.368324 -259.322963 
L 104.248154 -258.842727 
L 104.138823 -258.36249 
L 104.033885 -257.882254 
L 103.928905 -257.402018 
L 103.821728 -256.921782 
L 103.712336 -256.441546 
L 103.60239 -255.96131 
L 103.494599 -255.481074 
L 103.392042 -255.000838 
L 103.297582 -254.520602 
L 103.213439 -254.040365 
L 103.140958 -253.560129 
L 103.080566 -253.079893 
L 103.031869 -252.599657 
z
" style="stroke: #333333"/>
    </defs>
    <g clip-path="url(#p3a11166a35)">
     <use xlink:href="#m7819a7580c" x="0" y="360" style="fill: #5875a4; stroke: #333333"/>
    </g>
   </g>
   <g id="FillBetweenPolyCollection_2">
    <defs>
     <path id="m895a0be3bb" d="M 161.16365 -251.124425 
L 160.38235 -251.124425 
L 160.247338 -251.527514 
L 160.075981 -251.930604 
L 159.862131 -252.333693 
L 159.599726 -252.736782 
L 159.283153 -253.139872 
L 158.907665 -253.542961 
L 158.469821 -253.94605 
L 157.967898 -254.34914 
L 157.402257 -254.752229 
L 156.775591 -255.155318 
L 156.093025 -255.558408 
L 155.362048 -255.961497 
L 154.592238 -256.364586 
L 153.79481 -256.767676 
L 152.982002 -257.170765 
L 152.166352 -257.573854 
L 151.359934 -257.976944 
L 150.573624 -258.380033 
L 149.816462 -258.783122 
L 149.095183 -259.186212 
L 148.413954 -259.589301 
L 147.774318 -259.99239 
L 147.175365 -260.39548 
L 146.614057 -260.798569 
L 146.085684 -261.201658 
L 145.584372 -261.604748 
L 145.103596 -262.007837 
L 144.63665 -262.410926 
L 144.177049 -262.814016 
L 143.718866 -263.217105 
L 143.257013 -263.620194 
L 142.787501 -264.023284 
L 142.307708 -264.426373 
L 141.816662 -264.829462 
L 141.315353 -265.232552 
L 140.807036 -265.635641 
L 140.297488 -266.03873 
L 139.795152 -266.44182 
L 139.311101 -266.844909 
L 138.858778 -267.247998 
L 138.45347 -267.651088 
L 138.11153 -268.054177 
L 137.849393 -268.457266 
L 137.682454 -268.860356 
L 137.623933 -269.263445 
L 137.683828 -269.666534 
L 137.868074 -270.069624 
L 138.17801 -270.472713 
L 138.610197 -270.875802 
L 139.156605 -271.278892 
L 139.805152 -271.681981 
L 140.540525 -272.08507 
L 141.345184 -272.488159 
L 142.200457 -272.891249 
L 143.087619 -273.294338 
L 143.988847 -273.697427 
L 144.888005 -274.100517 
L 145.771194 -274.503606 
L 146.627059 -274.906695 
L 147.446877 -275.309785 
L 148.224443 -275.712874 
L 148.955817 -276.115963 
L 149.638979 -276.519053 
L 150.273456 -276.922142 
L 150.859968 -277.325231 
L 151.400115 -277.728321 
L 151.896157 -278.13141 
L 152.350856 -278.534499 
L 152.767404 -278.937589 
L 153.149394 -279.340678 
L 153.500822 -279.743767 
L 153.826085 -280.146857 
L 154.129946 -280.549946 
L 154.417456 -280.953035 
L 154.693807 -281.356125 
L 154.964138 -281.759214 
L 155.23329 -282.162303 
L 155.505539 -282.565393 
L 155.784332 -282.968482 
L 156.072066 -283.371571 
L 156.369919 -283.774661 
L 156.677774 -284.17775 
L 156.99424 -284.580839 
L 157.316767 -284.983929 
L 157.641851 -285.387018 
L 157.965313 -285.790107 
L 158.282612 -286.193197 
L 158.589177 -286.596286 
L 158.880717 -286.999375 
L 159.153492 -287.402465 
L 159.404513 -287.805554 
L 159.631674 -288.208643 
L 159.8338 -288.611733 
L 160.010628 -289.014822 
L 160.162717 -289.417911 
L 160.291323 -289.821001 
L 160.398239 -290.22409 
L 160.485625 -290.627179 
L 160.555845 -291.030269 
L 160.990155 -291.030269 
L 160.990155 -291.030269 
L 161.060375 -290.627179 
L 161.147761 -290.22409 
L 161.254677 -289.821001 
L 161.383283 -289.417911 
L 161.535372 -289.014822 
L 161.7122 -288.611733 
L 161.914326 -288.208643 
L 162.141487 -287.805554 
L 162.392508 -287.402465 
L 162.665283 -286.999375 
L 162.956823 -286.596286 
L 163.263388 -286.193197 
L 163.580687 -285.790107 
L 163.904149 -285.387018 
L 164.229233 -284.983929 
L 164.55176 -284.580839 
L 164.868226 -284.17775 
L 165.176081 -283.774661 
L 165.473934 -283.371571 
L 165.761668 -282.968482 
L 166.040461 -282.565393 
L 166.31271 -282.162303 
L 166.581862 -281.759214 
L 166.852193 -281.356125 
L 167.128544 -280.953035 
L 167.416054 -280.549946 
L 167.719915 -280.146857 
L 168.045178 -279.743767 
L 168.396606 -279.340678 
L 168.778596 -278.937589 
L 169.195144 -278.534499 
L 169.649843 -278.13141 
L 170.145885 -277.728321 
L 170.686032 -277.325231 
L 171.272544 -276.922142 
L 171.907021 -276.519053 
L 172.590183 -276.115963 
L 173.321557 -275.712874 
L 174.099123 -275.309785 
L 174.918941 -274.906695 
L 175.774806 -274.503606 
L 176.657995 -274.100517 
L 177.557153 -273.697427 
L 178.458381 -273.294338 
L 179.345543 -272.891249 
L 180.200816 -272.488159 
L 181.005475 -272.08507 
L 181.740848 -271.681981 
L 182.389395 -271.278892 
L 182.935803 -270.875802 
L 183.36799 -270.472713 
L 183.677926 -270.069624 
L 183.862172 -269.666534 
L 183.922067 -269.263445 
L 183.863546 -268.860356 
L 183.696607 -268.457266 
L 183.43447 -268.054177 
L 183.09253 -267.651088 
L 182.687222 -267.247998 
L 182.234899 -266.844909 
L 181.750848 -266.44182 
L 181.248512 -266.03873 
L 180.738964 -265.635641 
L 180.230647 -265.232552 
L 179.729338 -264.829462 
L 179.238292 -264.426373 
L 178.758499 -264.023284 
L 178.288987 -263.620194 
L 177.827134 -263.217105 
L 177.368951 -262.814016 
L 176.90935 -262.410926 
L 176.442404 -262.007837 
L 175.961628 -261.604748 
L 175.460316 -261.201658 
L 174.931943 -260.798569 
L 174.370635 -260.39548 
L 173.771682 -259.99239 
L 173.132046 -259.589301 
L 172.450817 -259.186212 
L 171.729538 -258.783122 
L 170.972376 -258.380033 
L 170.186066 -257.976944 
L 169.379648 -257.573854 
L 168.563998 -257.170765 
L 167.75119 -256.767676 
L 166.953762 -256.364586 
L 166.183952 -255.961497 
L 165.452975 -255.558408 
L 164.770409 -255.155318 
L 164.143743 -254.752229 
L 163.578102 -254.34914 
L 163.076179 -253.94605 
L 162.638335 -253.542961 
L 162.262847 -253.139872 
L 161.946274 -252.736782 
L 161.683869 -252.333693 
L 161.470019 -251.930604 
L 161.298662 -251.527514 
L 161.16365 -251.124425 
z
" style="stroke: #333333"/>
    </defs>
    <g clip-path="url(#p3a11166a35)">
     <use xlink:href="#m895a0be3bb" x="0" y="360" style="fill: #179292; stroke: #333333"/>
    </g>
   </g>
   <g id="FillBetweenPolyCollection_3">
    <defs>
     <path id="m89db74aa08" d="M 218.86327 -242.340122 
L 218.428064 -242.340122 
L 218.347466 -242.806162 
L 218.245205 -243.272203 
L 218.118619 -243.738244 
L 217.965821 -244.204284 
L 217.7861 -244.670325 
L 217.580286 -245.136365 
L 217.351033 -245.602406 
L 217.102948 -246.068447 
L 216.842509 -246.534487 
L 216.577718 -247.000528 
L 216.317485 -247.466568 
L 216.070755 -247.932609 
L 215.845454 -248.39865 
L 215.647341 -248.86469 
L 215.478925 -249.330731 
L 215.338572 -249.796771 
L 215.219956 -250.262812 
L 215.111959 -250.728853 
L 214.999098 -251.194893 
L 214.862454 -251.660934 
L 214.681057 -252.126974 
L 214.433593 -252.593015 
L 214.100248 -253.059056 
L 213.664493 -253.525096 
L 213.114616 -253.991137 
L 212.444819 -254.457177 
L 211.65578 -254.923218 
L 210.75462 -255.389259 
L 209.754313 -255.855299 
L 208.672617 -256.32134 
L 207.530698 -256.787381 
L 206.3516 -257.253421 
L 205.158753 -257.719462 
L 203.974676 -258.185502 
L 202.819985 -258.651543 
L 201.712765 -259.117584 
L 200.668311 -259.583624 
L 199.699179 -260.049665 
L 198.815472 -260.515705 
L 198.02523 -260.981746 
L 197.334847 -261.447787 
L 196.749398 -261.913827 
L 196.272854 -262.379868 
L 195.908133 -262.845908 
L 195.657047 -263.311949 
L 195.520152 -263.77799 
L 195.4966 -264.24403 
L 195.584023 -264.710071 
L 195.778524 -265.176111 
L 196.074774 -265.642152 
L 196.466226 -266.108193 
L 196.945404 -266.574233 
L 197.504229 -267.040274 
L 198.134309 -267.506314 
L 198.82715 -267.972355 
L 199.574261 -268.438396 
L 200.36714 -268.904436 
L 201.197162 -269.370477 
L 202.055435 -269.836517 
L 202.932674 -270.302558 
L 203.819177 -270.768599 
L 204.704949 -271.234639 
L 205.57999 -271.70068 
L 206.434749 -272.16672 
L 207.26067 -272.632761 
L 208.05075 -273.098802 
L 208.800009 -273.564842 
L 209.505768 -274.030883 
L 210.167666 -274.496923 
L 210.78741 -274.962964 
L 211.368258 -275.429005 
L 211.914349 -275.895045 
L 212.429955 -276.361086 
L 212.918814 -276.827126 
L 213.383636 -277.293167 
L 213.825862 -277.759208 
L 214.245701 -278.225248 
L 214.642412 -278.691289 
L 215.014761 -279.157329 
L 215.361536 -279.62337 
L 215.682014 -280.089411 
L 215.976289 -280.555451 
L 216.245407 -281.021492 
L 216.491285 -281.487532 
L 216.716462 -281.953573 
L 216.923743 -282.419614 
L 217.115812 -282.885654 
L 217.294901 -283.351695 
L 217.462569 -283.817735 
L 217.619619 -284.283776 
L 217.766158 -284.749817 
L 217.901767 -285.215857 
L 218.025738 -285.681898 
L 218.137319 -286.147938 
L 218.235941 -286.613979 
L 218.321371 -287.08002 
L 218.393796 -287.54606 
L 218.453829 -288.012101 
L 218.502448 -288.478141 
L 218.788885 -288.478141 
L 218.788885 -288.478141 
L 218.837505 -288.012101 
L 218.897537 -287.54606 
L 218.969962 -287.08002 
L 219.055392 -286.613979 
L 219.154014 -286.147938 
L 219.265596 -285.681898 
L 219.389566 -285.215857 
L 219.525175 -284.749817 
L 219.671714 -284.283776 
L 219.828764 -283.817735 
L 219.996432 -283.351695 
L 220.175521 -282.885654 
L 220.367591 -282.419614 
L 220.574871 -281.953573 
L 220.800048 -281.487532 
L 221.045926 -281.021492 
L 221.315044 -280.555451 
L 221.60932 -280.089411 
L 221.929797 -279.62337 
L 222.276572 -279.157329 
L 222.648922 -278.691289 
L 223.045633 -278.225248 
L 223.465471 -277.759208 
L 223.907697 -277.293167 
L 224.372519 -276.827126 
L 224.861379 -276.361086 
L 225.376984 -275.895045 
L 225.923075 -275.429005 
L 226.503924 -274.962964 
L 227.123667 -274.496923 
L 227.785565 -274.030883 
L 228.491324 -273.564842 
L 229.240583 -273.098802 
L 230.030664 -272.632761 
L 230.856584 -272.16672 
L 231.711343 -271.70068 
L 232.586384 -271.234639 
L 233.472156 -270.768599 
L 234.35866 -270.302558 
L 235.235899 -269.836517 
L 236.094171 -269.370477 
L 236.924193 -268.904436 
L 237.717072 -268.438396 
L 238.464184 -267.972355 
L 239.157024 -267.506314 
L 239.787104 -267.040274 
L 240.345929 -266.574233 
L 240.825108 -266.108193 
L 241.216559 -265.642152 
L 241.512809 -265.176111 
L 241.70731 -264.710071 
L 241.794733 -264.24403 
L 241.771181 -263.77799 
L 241.634286 -263.311949 
L 241.3832 -262.845908 
L 241.01848 -262.379868 
L 240.541935 -261.913827 
L 239.956487 -261.447787 
L 239.266103 -260.981746 
L 238.475861 -260.515705 
L 237.592154 -260.049665 
L 236.623023 -259.583624 
L 235.578568 -259.117584 
L 234.471349 -258.651543 
L 233.316658 -258.185502 
L 232.132581 -257.719462 
L 230.939734 -257.253421 
L 229.760635 -256.787381 
L 228.618716 -256.32134 
L 227.53702 -255.855299 
L 226.536713 -255.389259 
L 225.635554 -254.923218 
L 224.846515 -254.457177 
L 224.176717 -253.991137 
L 223.62684 -253.525096 
L 223.191085 -253.059056 
L 222.85774 -252.593015 
L 222.610277 -252.126974 
L 222.42888 -251.660934 
L 222.292235 -251.194893 
L 222.179374 -250.728853 
L 222.071378 -250.262812 
L 221.952761 -249.796771 
L 221.812408 -249.330731 
L 221.643993 -248.86469 
L 221.44588 -248.39865 
L 221.220578 -247.932609 
L 220.973848 -247.466568 
L 220.713615 -247.000528 
L 220.448825 -246.534487 
L 220.188386 -246.068447 
L 219.940301 -245.602406 
L 219.711047 -245.136365 
L 219.505233 -244.670325 
L 219.325512 -244.204284 
L 219.172715 -243.738244 
L 219.046128 -243.272203 
L 218.943867 -242.806162 
L 218.86327 -242.340122 
z
" style="stroke: #333333"/>
    </defs>
    <g clip-path="url(#p3a11166a35)">
     <use xlink:href="#m89db74aa08" x="0" y="360" style="fill: #8bc85f; stroke: #333333"/>
    </g>
   </g>
   <g id="FillBetweenPolyCollection_4">
    <defs>
     <path id="m1605f7adc9" d="M 276.659905 -264.67366 
L 276.376762 -264.67366 
L 276.322604 -265.242302 
L 276.25535 -265.810945 
L 276.174934 -266.379587 
L 276.082541 -266.94823 
L 275.980822 -267.516872 
L 275.873939 -268.085515 
L 275.767366 -268.654157 
L 275.667438 -269.2228 
L 275.580662 -269.791442 
L 275.512875 -270.360085 
L 275.468355 -270.928727 
L 275.449045 -271.49737 
L 275.454009 -272.066012 
L 275.479229 -272.634655 
L 275.517787 -273.203297 
L 275.56042 -273.77194 
L 275.596369 -274.340582 
L 275.614421 -274.909225 
L 275.603998 -275.477867 
L 275.55617 -276.04651 
L 275.464453 -276.615152 
L 275.325305 -277.183795 
L 275.138219 -277.752437 
L 274.905383 -278.321079 
L 274.630893 -278.889722 
L 274.319575 -279.458364 
L 273.975557 -280.027007 
L 273.600779 -280.595649 
L 273.193704 -281.164292 
L 272.748528 -281.732934 
L 272.255125 -282.301577 
L 271.699892 -282.870219 
L 271.067533 -283.438862 
L 270.343602 -284.007504 
L 269.517476 -284.576147 
L 268.585303 -285.144789 
L 267.552342 -285.713432 
L 266.43423 -286.282074 
L 265.256753 -286.850717 
L 264.054002 -287.419359 
L 262.865027 -287.988002 
L 261.729399 -288.556644 
L 260.682337 -289.125287 
L 259.750182 -289.693929 
L 258.94698 -290.262572 
L 258.272828 -290.831214 
L 257.714323 -291.399857 
L 257.247123 -291.968499 
L 256.840269 -292.537142 
L 256.461566 -293.105784 
L 256.083173 -293.674427 
L 255.686454 -294.243069 
L 255.265313 -294.811712 
L 254.827474 -295.380354 
L 254.393566 -295.948997 
L 253.994256 -296.517639 
L 253.66602 -297.086282 
L 253.446355 -297.654924 
L 253.369267 -298.223567 
L 253.46174 -298.792209 
L 253.74161 -299.360852 
L 254.21692 -299.929494 
L 254.886511 -300.498137 
L 255.741401 -301.066779 
L 256.766418 -301.635422 
L 257.941649 -302.204064 
L 259.243466 -302.772707 
L 260.645103 -303.341349 
L 262.11699 -303.909992 
L 263.627104 -304.478634 
L 265.14163 -305.047277 
L 266.626077 -305.615919 
L 268.04686 -306.184562 
L 269.373191 -306.753204 
L 270.579011 -307.321847 
L 271.64467 -307.890489 
L 272.558114 -308.459132 
L 273.315402 -309.027774 
L 273.920519 -309.596417 
L 274.384533 -310.165059 
L 274.724235 -310.733702 
L 274.96042 -311.302344 
L 275.115998 -311.870987 
L 275.214116 -312.439629 
L 275.276435 -313.008272 
L 275.321707 -313.576914 
L 275.364759 -314.145557 
L 275.41594 -314.714199 
L 275.48107 -315.282842 
L 275.561837 -315.851484 
L 275.656573 -316.420127 
L 275.761254 -316.988769 
L 275.870588 -317.557412 
L 275.979032 -318.126054 
L 276.081609 -318.694697 
L 276.174462 -319.263339 
L 276.255117 -319.831982 
L 276.322492 -320.400624 
L 276.376709 -320.969267 
L 276.659957 -320.969267 
L 276.659957 -320.969267 
L 276.714175 -320.400624 
L 276.78155 -319.831982 
L 276.862205 -319.263339 
L 276.955057 -318.694697 
L 277.057635 -318.126054 
L 277.166079 -317.557412 
L 277.275413 -316.988769 
L 277.380094 -316.420127 
L 277.474829 -315.851484 
L 277.555597 -315.282842 
L 277.620727 -314.714199 
L 277.671908 -314.145557 
L 277.71496 -313.576914 
L 277.760232 -313.008272 
L 277.822551 -312.439629 
L 277.920669 -311.870987 
L 278.076247 -311.302344 
L 278.312432 -310.733702 
L 278.652134 -310.165059 
L 279.116148 -309.596417 
L 279.721264 -309.027774 
L 280.478552 -308.459132 
L 281.391997 -307.890489 
L 282.457656 -307.321847 
L 283.663476 -306.753204 
L 284.989807 -306.184562 
L 286.41059 -305.615919 
L 287.895037 -305.047277 
L 289.409563 -304.478634 
L 290.919677 -303.909992 
L 292.391564 -303.341349 
L 293.793201 -302.772707 
L 295.095017 -302.204064 
L 296.270249 -301.635422 
L 297.295266 -301.066779 
L 298.150156 -300.498137 
L 298.819747 -299.929494 
L 299.295057 -299.360852 
L 299.574927 -298.792209 
L 299.6674 -298.223567 
L 299.590311 -297.654924 
L 299.370646 -297.086282 
L 299.042411 -296.517639 
L 298.643101 -295.948997 
L 298.209193 -295.380354 
L 297.771354 -294.811712 
L 297.350213 -294.243069 
L 296.953494 -293.674427 
L 296.5751 -293.105784 
L 296.196397 -292.537142 
L 295.789543 -291.968499 
L 295.322344 -291.399857 
L 294.763839 -290.831214 
L 294.089687 -290.262572 
L 293.286485 -289.693929 
L 292.354329 -289.125287 
L 291.307268 -288.556644 
L 290.17164 -287.988002 
L 288.982665 -287.419359 
L 287.779914 -286.850717 
L 286.602437 -286.282074 
L 285.484324 -285.713432 
L 284.451364 -285.144789 
L 283.51919 -284.576147 
L 282.693065 -284.007504 
L 281.969133 -283.438862 
L 281.336775 -282.870219 
L 280.781542 -282.301577 
L 280.288138 -281.732934 
L 279.842963 -281.164292 
L 279.435888 -280.595649 
L 279.061109 -280.027007 
L 278.717092 -279.458364 
L 278.405774 -278.889722 
L 278.131283 -278.321079 
L 277.898448 -277.752437 
L 277.711362 -277.183795 
L 277.572214 -276.615152 
L 277.480497 -276.04651 
L 277.432669 -275.477867 
L 277.422246 -274.909225 
L 277.440298 -274.340582 
L 277.476247 -273.77194 
L 277.518879 -273.203297 
L 277.557438 -272.634655 
L 277.582658 -272.066012 
L 277.587622 -271.49737 
L 277.568312 -270.928727 
L 277.523792 -270.360085 
L 277.456004 -269.791442 
L 277.369229 -269.2228 
L 277.269301 -268.654157 
L 277.162727 -268.085515 
L 277.055844 -267.516872 
L 276.954126 -266.94823 
L 276.861733 -266.379587 
L 276.781317 -265.810945 
L 276.714063 -265.242302 
L 276.659905 -264.67366 
z
" style="stroke: #333333"/>
    </defs>
    <g clip-path="url(#p3a11166a35)">
     <use xlink:href="#m1605f7adc9" x="0" y="360" style="fill: #8bc85f; stroke: #333333"/>
    </g>
   </g>
   <g id="FillBetweenPolyCollection_5">
    <defs>
     <path id="m4050b280f1" d="M 334.55765 -272.929767 
L 334.22435 -272.929767 
L 334.171087 -273.561917 
L 334.104976 -274.194067 
L 334.024195 -274.826217 
L 333.926975 -275.458366 
L 333.811665 -276.090516 
L 333.67679 -276.722666 
L 333.521099 -277.354816 
L 333.343596 -277.986966 
L 333.143559 -278.619116 
L 332.920536 -279.251266 
L 332.674339 -279.883416 
L 332.405023 -280.515566 
L 332.112867 -281.147716 
L 331.798351 -281.779866 
L 331.462138 -282.412016 
L 331.105044 -283.044166 
L 330.728005 -283.676316 
L 330.33201 -284.308466 
L 329.91802 -284.940616 
L 329.486846 -285.572766 
L 329.039004 -286.204916 
L 328.574549 -286.837066 
L 328.092923 -287.469216 
L 327.592821 -288.101366 
L 327.072133 -288.733516 
L 326.527961 -289.365666 
L 325.956744 -289.997816 
L 325.354504 -290.629966 
L 324.717184 -291.262116 
L 324.041076 -291.894266 
L 323.323293 -292.526416 
L 322.562249 -293.158566 
L 321.758101 -293.790716 
L 320.913121 -294.422866 
L 320.031967 -295.055016 
L 319.12184 -295.687166 
L 318.192522 -296.319316 
L 317.256288 -296.951466 
L 316.327709 -297.583616 
L 315.423339 -298.215766 
L 314.56128 -298.847916 
L 313.760631 -299.480066 
L 313.040794 -300.112216 
L 312.420652 -300.744366 
L 311.917629 -301.376516 
L 311.546658 -302.008666 
L 311.319135 -302.640816 
L 311.241933 -303.272966 
L 311.31659 -303.905116 
L 311.538772 -304.537266 
L 311.898123 -305.169416 
L 312.378543 -305.801566 
L 312.958952 -306.433716 
L 313.614473 -307.065866 
L 314.317976 -307.698016 
L 315.041837 -308.330166 
L 315.759759 -308.962316 
L 316.448472 -309.594466 
L 317.089166 -310.226616 
L 317.668518 -310.858766 
L 318.17924 -311.490916 
L 318.620116 -312.123066 
L 318.995553 -312.755216 
L 319.314723 -313.387366 
L 319.590405 -314.019515 
L 319.837644 -314.651665 
L 320.072372 -315.283815 
L 320.310113 -315.915965 
L 320.564866 -316.548115 
L 320.848258 -317.180265 
L 321.169002 -317.812415 
L 321.532665 -318.444565 
L 321.941739 -319.076715 
L 322.395945 -319.708865 
L 322.892715 -320.341015 
L 323.42776 -320.973165 
L 323.995656 -321.605315 
L 324.590363 -322.237465 
L 325.205634 -322.869615 
L 325.835291 -323.501765 
L 326.47336 -324.133915 
L 327.114094 -324.766065 
L 327.751919 -325.398215 
L 328.381354 -326.030365 
L 328.996957 -326.662515 
L 329.593312 -327.294665 
L 330.165104 -327.926815 
L 330.707256 -328.558965 
L 331.215131 -329.191115 
L 331.68476 -329.823265 
L 332.113055 -330.455415 
L 332.49799 -331.087565 
L 332.838705 -331.719715 
L 333.135532 -332.351865 
L 333.389927 -332.984015 
L 333.604331 -333.616165 
L 333.781968 -334.248315 
L 333.92661 -334.880465 
L 334.042335 -335.512615 
L 334.739665 -335.512615 
L 334.739665 -335.512615 
L 334.85539 -334.880465 
L 335.000032 -334.248315 
L 335.177669 -333.616165 
L 335.392073 -332.984015 
L 335.646468 -332.351865 
L 335.943295 -331.719715 
L 336.28401 -331.087565 
L 336.668945 -330.455415 
L 337.09724 -329.823265 
L 337.566869 -329.191115 
L 338.074744 -328.558965 
L 338.616896 -327.926815 
L 339.188688 -327.294665 
L 339.785043 -326.662515 
L 340.400646 -326.030365 
L 341.030081 -325.398215 
L 341.667906 -324.766065 
L 342.30864 -324.133915 
L 342.946709 -323.501765 
L 343.576366 -322.869615 
L 344.191637 -322.237465 
L 344.786344 -321.605315 
L 345.35424 -320.973165 
L 345.889285 -320.341015 
L 346.386055 -319.708865 
L 346.840261 -319.076715 
L 347.249335 -318.444565 
L 347.612998 -317.812415 
L 347.933742 -317.180265 
L 348.217134 -316.548115 
L 348.471887 -315.915965 
L 348.709628 -315.283815 
L 348.944356 -314.651665 
L 349.191595 -314.019515 
L 349.467277 -313.387366 
L 349.786447 -312.755216 
L 350.161884 -312.123066 
L 350.60276 -311.490916 
L 351.113482 -310.858766 
L 351.692834 -310.226616 
L 352.333528 -309.594466 
L 353.022241 -308.962316 
L 353.740163 -308.330166 
L 354.464024 -307.698016 
L 355.167527 -307.065866 
L 355.823048 -306.433716 
L 356.403457 -305.801566 
L 356.883877 -305.169416 
L 357.243228 -304.537266 
L 357.46541 -303.905116 
L 357.540067 -303.272966 
L 357.462865 -302.640816 
L 357.235342 -302.008666 
L 356.864371 -301.376516 
L 356.361348 -300.744366 
L 355.741206 -300.112216 
L 355.021369 -299.480066 
L 354.22072 -298.847916 
L 353.358661 -298.215766 
L 352.454291 -297.583616 
L 351.525712 -296.951466 
L 350.589478 -296.319316 
L 349.66016 -295.687166 
L 348.750033 -295.055016 
L 347.868879 -294.422866 
L 347.023899 -293.790716 
L 346.219751 -293.158566 
L 345.458707 -292.526416 
L 344.740924 -291.894266 
L 344.064816 -291.262116 
L 343.427496 -290.629966 
L 342.825256 -289.997816 
L 342.254039 -289.365666 
L 341.709867 -288.733516 
L 341.189179 -288.101366 
L 340.689077 -287.469216 
L 340.207451 -286.837066 
L 339.742996 -286.204916 
L 339.295154 -285.572766 
L 338.86398 -284.940616 
L 338.44999 -284.308466 
L 338.053995 -283.676316 
L 337.676956 -283.044166 
L 337.319862 -282.412016 
L 336.983649 -281.779866 
L 336.669133 -281.147716 
L 336.376977 -280.515566 
L 336.107661 -279.883416 
L 335.861464 -279.251266 
L 335.638441 -278.619116 
L 335.438404 -277.986966 
L 335.260901 -277.354816 
L 335.10521 -276.722666 
L 334.970335 -276.090516 
L 334.855025 -275.458366 
L 334.757805 -274.826217 
L 334.677024 -274.194067 
L 334.610913 -273.561917 
L 334.55765 -272.929767 
z
" style="stroke: #333333"/>
    </defs>
    <g clip-path="url(#p3a11166a35)">
     <use xlink:href="#m4050b280f1" x="0" y="360" style="fill: #e59aa7; stroke: #333333"/>
    </g>
   </g>
   <g id="FillBetweenPolyCollection_6">
    <defs>
     <path id="m1d345197c8" d="M 392.426962 -277.219058 
L 392.100371 -277.219058 
L 392.044986 -277.768939 
L 391.975225 -278.318821 
L 391.888773 -278.868702 
L 391.783306 -279.418583 
L 391.656574 -279.968465 
L 391.506483 -280.518346 
L 391.331179 -281.068228 
L 391.129117 -281.618109 
L 390.899128 -282.16799 
L 390.640471 -282.717872 
L 390.352875 -283.267753 
L 390.036567 -283.817634 
L 389.692286 -284.367516 
L 389.321281 -284.917397 
L 388.925274 -285.467278 
L 388.506386 -286.01716 
L 388.067007 -286.567041 
L 387.609612 -287.116922 
L 387.136512 -287.666804 
L 386.649543 -288.216685 
L 386.149736 -288.766566 
L 385.63697 -289.316448 
L 385.109685 -289.866329 
L 384.564683 -290.41621 
L 383.997087 -290.966092 
L 383.4005 -291.515973 
L 382.767384 -292.065854 
L 382.089693 -292.615736 
L 381.359722 -293.165617 
L 380.571121 -293.715499 
L 379.720018 -294.26538 
L 378.806122 -294.815261 
L 377.833707 -295.365143 
L 376.81234 -295.915024 
L 375.757251 -296.464905 
L 374.689238 -297.014787 
L 373.634065 -297.564668 
L 372.621332 -298.114549 
L 371.682878 -298.664431 
L 370.850799 -299.214312 
L 370.155249 -299.764193 
L 369.6222 -300.314075 
L 369.271382 -300.863956 
L 369.1146 -301.413837 
L 369.154617 -301.963719 
L 369.384731 -302.5136 
L 369.789116 -303.063481 
L 370.343918 -303.613363 
L 371.019016 -304.163244 
L 371.780281 -304.713125 
L 372.59214 -305.263007 
L 373.420176 -305.812888 
L 374.233542 -306.36277 
L 375.006953 -306.912651 
L 375.722101 -307.462532 
L 376.368364 -308.012414 
L 376.942808 -308.562295 
L 377.449499 -309.112176 
L 377.898254 -309.662058 
L 378.302982 -310.211939 
L 378.6798 -310.76182 
L 379.045146 -311.311702 
L 379.414044 -311.861583 
L 379.798705 -312.411464 
L 380.207566 -312.961346 
L 380.644828 -313.511227 
L 381.110493 -314.061108 
L 381.600861 -314.61099 
L 382.109381 -315.160871 
L 382.627741 -315.710752 
L 383.147033 -316.260634 
L 383.658871 -316.810515 
L 384.156318 -317.360396 
L 384.634534 -317.910278 
L 385.091086 -318.460159 
L 385.525919 -319.010041 
L 385.941017 -319.559922 
L 386.339834 -320.109803 
L 386.726589 -320.659685 
L 387.105531 -321.209566 
L 387.480276 -321.759447 
L 387.853285 -322.309329 
L 388.225555 -322.85921 
L 388.596516 -323.409091 
L 388.964144 -323.958973 
L 389.325235 -324.508854 
L 389.675801 -325.058735 
L 390.011516 -325.608617 
L 390.328155 -326.158498 
L 390.621982 -326.708379 
L 390.890047 -327.258261 
L 391.130376 -327.808142 
L 391.342042 -328.358023 
L 391.525146 -328.907905 
L 391.680703 -329.457786 
L 391.810482 -330.007667 
L 391.916803 -330.557549 
L 392.002331 -331.10743 
L 392.06989 -331.657312 
L 392.457443 -331.657312 
L 392.457443 -331.657312 
L 392.525002 -331.10743 
L 392.610531 -330.557549 
L 392.716851 -330.007667 
L 392.84663 -329.457786 
L 393.002188 -328.907905 
L 393.185291 -328.358023 
L 393.396958 -327.808142 
L 393.637286 -327.258261 
L 393.905352 -326.708379 
L 394.199178 -326.158498 
L 394.515817 -325.608617 
L 394.851532 -325.058735 
L 395.202098 -324.508854 
L 395.56319 -323.958973 
L 395.930817 -323.409091 
L 396.301778 -322.85921 
L 396.674048 -322.309329 
L 397.047058 -321.759447 
L 397.421802 -321.209566 
L 397.800745 -320.659685 
L 398.1875 -320.109803 
L 398.586316 -319.559922 
L 399.001414 -319.010041 
L 399.436247 -318.460159 
L 399.892799 -317.910278 
L 400.371015 -317.360396 
L 400.868462 -316.810515 
L 401.3803 -316.260634 
L 401.899592 -315.710752 
L 402.417952 -315.160871 
L 402.926473 -314.61099 
L 403.416841 -314.061108 
L 403.882505 -313.511227 
L 404.319767 -312.961346 
L 404.728629 -312.411464 
L 405.11329 -311.861583 
L 405.482187 -311.311702 
L 405.847533 -310.76182 
L 406.224352 -310.211939 
L 406.629079 -309.662058 
L 407.077834 -309.112176 
L 407.584525 -308.562295 
L 408.158969 -308.012414 
L 408.805232 -307.462532 
L 409.52038 -306.912651 
L 410.293792 -306.36277 
L 411.107157 -305.812888 
L 411.935193 -305.263007 
L 412.747052 -304.713125 
L 413.508318 -304.163244 
L 414.183415 -303.613363 
L 414.738217 -303.063481 
L 415.142602 -302.5136 
L 415.372716 -301.963719 
L 415.412733 -301.413837 
L 415.255952 -300.863956 
L 414.905134 -300.314075 
L 414.372085 -299.764193 
L 413.676534 -299.214312 
L 412.844455 -298.664431 
L 411.906001 -298.114549 
L 410.893269 -297.564668 
L 409.838095 -297.014787 
L 408.770082 -296.464905 
L 407.714993 -295.915024 
L 406.693627 -295.365143 
L 405.721211 -294.815261 
L 404.807315 -294.26538 
L 403.956212 -293.715499 
L 403.167611 -293.165617 
L 402.43764 -292.615736 
L 401.75995 -292.065854 
L 401.126834 -291.515973 
L 400.530246 -290.966092 
L 399.962651 -290.41621 
L 399.417649 -289.866329 
L 398.890363 -289.316448 
L 398.377598 -288.766566 
L 397.87779 -288.216685 
L 397.390822 -287.666804 
L 396.917721 -287.116922 
L 396.460327 -286.567041 
L 396.020947 -286.01716 
L 395.602059 -285.467278 
L 395.206052 -284.917397 
L 394.835048 -284.367516 
L 394.490767 -283.817634 
L 394.174458 -283.267753 
L 393.886862 -282.717872 
L 393.628205 -282.16799 
L 393.398217 -281.618109 
L 393.196155 -281.068228 
L 393.02085 -280.518346 
L 392.870759 -279.968465 
L 392.744027 -279.418583 
L 392.63856 -278.868702 
L 392.552108 -278.318821 
L 392.482348 -277.768939 
L 392.426962 -277.219058 
z
" style="stroke: #333333"/>
    </defs>
    <g clip-path="url(#p3a11166a35)">
     <use xlink:href="#m1d345197c8" x="0" y="360" style="fill: #e59aa7; stroke: #333333"/>
    </g>
   </g>
   <g id="matplotlib.axis_1"/>
   <g id="matplotlib.axis_2">
    <g id="ytick_1">
     <g id="line2d_1">
      <defs>
       <path id="me75ecb4939" d="M 0 0 
L -3.5 0 
" style="stroke: #000000; stroke-width: 0.8"/>
      </defs>
      <g>
       <use xlink:href="#me75ecb4939" x="73.964" y="155.96" style="stroke: #000000; stroke-width: 0.8"/>
      </g>
     </g>
     <g id="text_1">
      <text style="font-size: 10px; font-family: 'DejaVu Sans', 'Bitstream Vera Sans', 'Computer Modern Sans Serif', 'Lucida Grande', 'Verdana', 'Geneva', 'Lucid', 'Arial', 'Helvetica', 'Avant Garde', sans-serif; text-anchor: end" x="66.964" y="159.759219" transform="rotate(-0 66.964 159.759219)">−0.25</text>
     </g>
    </g>
    <g id="ytick_2">
     <g id="line2d_2">
      <g>
       <use xlink:href="#me75ecb4939" x="73.964" y="91.42" style="stroke: #000000; stroke-width: 0.8"/>
      </g>
     </g>
     <g id="text_2">
      <text style="font-size: 10px; font-family: 'DejaVu Sans', 'Bitstream Vera Sans', 'Computer Modern Sans Serif', 'Lucida Grande', 'Verdana', 'Geneva', 'Lucid', 'Arial', 'Helvetica', 'Avant Garde', sans-serif; text-anchor: end" x="66.964" y="95.219219" transform="rotate(-0 66.964 95.219219)">0.00</text>
     </g>
    </g>
    <g id="ytick_3">
     <g id="line2d_3">
      <g>
       <use xlink:href="#me75ecb4939" x="73.964" y="26.88" style="stroke: #000000; stroke-width: 0.8"/>
      </g>
     </g>
     <g id="text_3">
      <text style="font-size: 10px; font-family: 'DejaVu Sans', 'Bitstream Vera Sans', 'Computer Modern Sans Serif', 'Lucida Grande', 'Verdana', 'Geneva', 'Lucid', 'Arial', 'Helvetica', 'Avant Garde', sans-serif; text-anchor: end" x="66.964" y="30.679219" transform="rotate(-0 66.964 30.679219)">0.25</text>
     </g>
    </g>
    <g id="text_4">
     <text style="font-size: 10px; font-family: 'DejaVu Sans', 'Bitstream Vera Sans', 'Computer Modern Sans Serif', 'Lucida Grande', 'Verdana', 'Geneva', 'Lucid', 'Arial', 'Helvetica', 'Avant Garde', sans-serif" transform="translate(19.041188 113.678594) rotate(-90)">pearsonr</text>
     <text style="font-size: 10px; font-family: 'DejaVu Sans', 'Bitstream Vera Sans', 'Computer Modern Sans Serif', 'Lucida Grande', 'Verdana', 'Geneva', 'Lucid', 'Arial', 'Helvetica', 'Avant Garde', sans-serif" transform="translate(30.239 118.246563) rotate(-90)">correlation</text>
    </g>
   </g>
   <g id="line2d_4">
    <path d="M 82.179988 86.276908 
L 123.620679 86.276908 
" clip-path="url(#p3a11166a35)" style="fill: none; stroke-dasharray: 1.25,0.75; stroke-dashoffset: 0; stroke: #333333"/>
   </g>
   <g id="line2d_5">
    <path d="M 79.756282 83.871079 
L 126.044385 83.871079 
" clip-path="url(#p3a11166a35)" style="fill: none; stroke-dasharray: 2.5,1; stroke-dashoffset: 0; stroke: #333333"/>
   </g>
   <g id="line2d_6">
    <path d="M 85.343768 79.324673 
L 120.456899 79.324673 
" clip-path="url(#p3a11166a35)" style="fill: none; stroke-dasharray: 1.25,0.75; stroke-dashoffset: 0; stroke: #333333"/>
   </g>
   <g id="line2d_7">
    <path d="M 142.318795 95.582942 
L 179.227205 95.582942 
" clip-path="url(#p3a11166a35)" style="fill: none; stroke-dasharray: 1.25,0.75; stroke-dashoffset: 0; stroke: #333333"/>
   </g>
   <g id="line2d_8">
    <path d="M 137.655626 90.954851 
L 183.890374 90.954851 
" clip-path="url(#p3a11166a35)" style="fill: none; stroke-dasharray: 2.5,1; stroke-dashoffset: 0; stroke: #333333"/>
   </g>
   <g id="line2d_9">
    <path d="M 141.276114 87.546441 
L 180.269886 87.546441 
" clip-path="url(#p3a11166a35)" style="fill: none; stroke-dasharray: 1.25,0.75; stroke-dashoffset: 0; stroke: #333333"/>
   </g>
   <g id="line2d_10">
    <path d="M 198.782562 99.464886 
L 238.508771 99.464886 
" clip-path="url(#p3a11166a35)" style="fill: none; stroke-dasharray: 1.25,0.75; stroke-dashoffset: 0; stroke: #333333"/>
   </g>
   <g id="line2d_11">
    <path d="M 195.523535 95.612382 
L 241.767798 95.612382 
" clip-path="url(#p3a11166a35)" style="fill: none; stroke-dasharray: 2.5,1; stroke-dashoffset: 0; stroke: #333333"/>
   </g>
   <g id="line2d_12">
    <path d="M 200.902845 90.794777 
L 236.388489 90.794777 
" clip-path="url(#p3a11166a35)" style="fill: none; stroke-dasharray: 1.25,0.75; stroke-dashoffset: 0; stroke: #333333"/>
   </g>
   <g id="line2d_13">
    <path d="M 258.709484 69.537102 
L 294.327183 69.537102 
" clip-path="url(#p3a11166a35)" style="fill: none; stroke-dasharray: 1.25,0.75; stroke-dashoffset: 0; stroke: #333333"/>
   </g>
   <g id="line2d_14">
    <path d="M 253.87622 63.277873 
L 299.160446 63.277873 
" clip-path="url(#p3a11166a35)" style="fill: none; stroke-dasharray: 2.5,1; stroke-dashoffset: 0; stroke: #333333"/>
   </g>
   <g id="line2d_15">
    <path d="M 253.976545 60.358081 
L 299.060122 60.358081 
" clip-path="url(#p3a11166a35)" style="fill: none; stroke-dasharray: 1.25,0.75; stroke-dashoffset: 0; stroke: #333333"/>
   </g>
   <g id="line2d_16">
    <path d="M 314.596336 61.17779 
L 354.185664 61.17779 
" clip-path="url(#p3a11166a35)" style="fill: none; stroke-dasharray: 1.25,0.75; stroke-dashoffset: 0; stroke: #333333"/>
   </g>
   <g id="line2d_17">
    <path d="M 311.679648 55.214912 
L 357.102352 55.214912 
" clip-path="url(#p3a11166a35)" style="fill: none; stroke-dasharray: 2.5,1; stroke-dashoffset: 0; stroke: #333333"/>
   </g>
   <g id="line2d_18">
    <path d="M 319.555302 46.060978 
L 349.226698 46.060978 
" clip-path="url(#p3a11166a35)" style="fill: none; stroke-dasharray: 1.25,0.75; stroke-dashoffset: 0; stroke: #333333"/>
   </g>
   <g id="line2d_19">
    <path d="M 371.941863 61.48732 
L 412.58547 61.48732 
" clip-path="url(#p3a11166a35)" style="fill: none; stroke-dasharray: 1.25,0.75; stroke-dashoffset: 0; stroke: #333333"/>
   </g>
   <g id="line2d_20">
    <path d="M 369.301436 57.685442 
L 415.225897 57.685442 
" clip-path="url(#p3a11166a35)" style="fill: none; stroke-dasharray: 2.5,1; stroke-dashoffset: 0; stroke: #333333"/>
   </g>
   <g id="line2d_21">
    <path d="M 378.362556 49.701126 
L 406.164778 49.701126 
" clip-path="url(#p3a11166a35)" style="fill: none; stroke-dasharray: 1.25,0.75; stroke-dashoffset: 0; stroke: #333333"/>
   </g>
   <g id="line2d_22">
    <path d="M 73.964 91.42 
L 421.2 91.42 
" clip-path="url(#p3a11166a35)" style="fill: none; stroke: #000000; stroke-width: 0.8; stroke-linecap: square"/>
   </g>
   <g id="patch_3">
    <path d="M 73.964 155.96 
L 73.964 26.88 
" style="fill: none; stroke: #000000; stroke-width: 0.8; stroke-linejoin: miter; stroke-linecap: square"/>
   </g>
   <g id="text_5">
    <text style="font-size: 12px; font-family: 'DejaVu Sans', 'Bitstream Vera Sans', 'Computer Modern Sans Serif', 'Lucida Grande', 'Verdana', 'Geneva', 'Lucid', 'Arial', 'Helvetica', 'Avant Garde', sans-serif; text-anchor: middle" x="247.582" y="20.88" transform="rotate(-0 247.582 20.88)">distances correlation across folds</text>
   </g>
  </g>
  <g id="axes_2">
   <g id="patch_4">
    <path d="M 73.964 318.04 
L 421.2 318.04 
L 421.2 188.96 
L 73.964 188.96 
z
" style="fill: #ffffff"/>
   </g>
   <g id="FillBetweenPolyCollection_7">
    <defs>
     <path id="me6e55d88dc" d="M 103.066519 -74.451936 
L 102.734148 -74.451936 
L 102.673925 -74.935921 
L 102.596659 -75.419905 
L 102.499133 -75.90389 
L 102.377954 -76.387875 
L 102.229622 -76.871859 
L 102.050599 -77.355844 
L 101.837381 -77.839828 
L 101.58654 -78.323813 
L 101.294763 -78.807798 
L 100.958866 -79.291782 
L 100.575796 -79.775767 
L 100.142638 -80.259752 
L 99.656624 -80.743736 
L 99.115174 -81.227721 
L 98.515959 -81.711706 
L 97.857013 -82.19569 
L 97.136878 -82.679675 
L 96.354785 -83.163659 
L 95.51086 -83.647644 
L 94.606344 -84.131629 
L 93.643821 -84.615613 
L 92.627431 -85.099598 
L 91.563091 -85.583583 
L 90.458687 -86.067567 
L 89.32425 -86.551552 
L 88.172106 -87.035537 
L 87.016963 -87.519521 
L 85.875916 -88.003506 
L 84.768326 -88.48749 
L 83.715524 -88.971475 
L 82.74031 -89.45546 
L 81.866213 -89.939444 
L 81.116527 -90.423429 
L 80.513136 -90.907414 
L 80.075228 -91.391398 
L 79.817966 -91.875383 
L 79.751267 -92.359368 
L 79.878808 -92.843352 
L 80.197387 -93.327337 
L 80.696724 -93.811322 
L 81.359785 -94.295306 
L 82.163599 -94.779291 
L 83.080539 -95.263275 
L 84.079964 -95.74726 
L 85.130063 -96.231245 
L 86.199753 -96.715229 
L 87.260438 -97.199214 
L 88.28749 -97.683199 
L 89.261305 -98.167183 
L 90.16788 -98.651168 
L 90.998874 -99.135153 
L 91.751205 -99.619137 
L 92.426265 -100.103122 
L 93.028872 -100.587106 
L 93.566119 -101.071091 
L 94.046248 -101.555076 
L 94.477664 -102.03906 
L 94.868188 -102.523045 
L 95.224584 -103.00703 
L 95.552361 -103.491014 
L 95.855808 -103.974999 
L 96.138207 -104.458984 
L 96.402147 -104.942968 
L 96.649847 -105.426953 
L 96.88345 -105.910937 
L 97.105214 -106.394922 
L 97.317597 -106.878907 
L 97.523227 -107.362891 
L 97.724782 -107.846876 
L 97.924807 -108.330861 
L 98.125518 -108.814845 
L 98.328622 -109.29883 
L 98.535198 -109.782815 
L 98.745641 -110.266799 
L 98.959704 -110.750784 
L 99.176602 -111.234768 
L 99.395171 -111.718753 
L 99.614058 -112.202738 
L 99.8319 -112.686722 
L 100.047465 -113.170707 
L 100.259748 -113.654692 
L 100.467989 -114.138676 
L 100.671638 -114.622661 
L 100.870274 -115.106646 
L 101.063492 -115.59063 
L 101.2508 -116.074615 
L 101.431538 -116.5586 
L 101.604846 -117.042584 
L 101.769677 -117.526569 
L 101.924863 -118.010553 
L 102.069218 -118.494538 
L 102.201655 -118.978523 
L 102.321307 -119.462507 
L 102.427624 -119.946492 
L 102.520432 -120.430477 
L 102.599955 -120.914461 
L 102.666794 -121.398446 
L 102.721871 -121.882431 
L 102.766348 -122.366415 
L 103.034319 -122.366415 
L 103.034319 -122.366415 
L 103.078796 -121.882431 
L 103.133873 -121.398446 
L 103.200712 -120.914461 
L 103.280235 -120.430477 
L 103.373042 -119.946492 
L 103.479359 -119.462507 
L 103.599012 -118.978523 
L 103.731449 -118.494538 
L 103.875803 -118.010553 
L 104.03099 -117.526569 
L 104.195821 -117.042584 
L 104.369129 -116.5586 
L 104.549867 -116.074615 
L 104.737174 -115.59063 
L 104.930392 -115.106646 
L 105.129028 -114.622661 
L 105.332678 -114.138676 
L 105.540919 -113.654692 
L 105.753201 -113.170707 
L 105.968767 -112.686722 
L 106.186608 -112.202738 
L 106.405496 -111.718753 
L 106.624065 -111.234768 
L 106.840963 -110.750784 
L 107.055026 -110.266799 
L 107.265469 -109.782815 
L 107.472044 -109.29883 
L 107.675149 -108.814845 
L 107.87586 -108.330861 
L 108.075885 -107.846876 
L 108.27744 -107.362891 
L 108.48307 -106.878907 
L 108.695453 -106.394922 
L 108.917216 -105.910937 
L 109.150819 -105.426953 
L 109.39852 -104.942968 
L 109.662459 -104.458984 
L 109.944859 -103.974999 
L 110.248305 -103.491014 
L 110.576082 -103.00703 
L 110.932479 -102.523045 
L 111.323003 -102.03906 
L 111.754418 -101.555076 
L 112.234547 -101.071091 
L 112.771795 -100.587106 
L 113.374402 -100.103122 
L 114.049461 -99.619137 
L 114.801793 -99.135153 
L 115.632787 -98.651168 
L 116.539362 -98.167183 
L 117.513177 -97.683199 
L 118.540228 -97.199214 
L 119.600914 -96.715229 
L 120.670604 -96.231245 
L 121.720703 -95.74726 
L 122.720128 -95.263275 
L 123.637068 -94.779291 
L 124.440881 -94.295306 
L 125.103942 -93.811322 
L 125.60328 -93.327337 
L 125.921858 -92.843352 
L 126.0494 -92.359368 
L 125.982701 -91.875383 
L 125.725439 -91.391398 
L 125.28753 -90.907414 
L 124.68414 -90.423429 
L 123.934453 -89.939444 
L 123.060357 -89.45546 
L 122.085143 -88.971475 
L 121.032341 -88.48749 
L 119.924751 -88.003506 
L 118.783704 -87.519521 
L 117.628561 -87.035537 
L 116.476417 -86.551552 
L 115.34198 -86.067567 
L 114.237575 -85.583583 
L 113.173235 -85.099598 
L 112.156846 -84.615613 
L 111.194322 -84.131629 
L 110.289807 -83.647644 
L 109.445882 -83.163659 
L 108.663789 -82.679675 
L 107.943654 -82.19569 
L 107.284708 -81.711706 
L 106.685493 -81.227721 
L 106.144042 -80.743736 
L 105.658029 -80.259752 
L 105.224871 -79.775767 
L 104.841801 -79.291782 
L 104.505904 -78.807798 
L 104.214127 -78.323813 
L 103.963286 -77.839828 
L 103.750067 -77.355844 
L 103.571045 -76.871859 
L 103.422712 -76.387875 
L 103.301534 -75.90389 
L 103.204008 -75.419905 
L 103.126741 -74.935921 
L 103.066519 -74.451936 
z
" style="stroke: #333333"/>
    </defs>
    <g clip-path="url(#p4badc2759e)">
     <use xlink:href="#me6e55d88dc" x="0" y="360" style="fill: #5875a4; stroke: #333333"/>
    </g>
   </g>
   <g id="FillBetweenPolyCollection_8">
    <defs>
     <path id="m65dbd44204" d="M 161.027711 -94.576038 
L 160.518289 -94.576038 
L 160.437043 -95.23545 
L 160.336969 -95.894862 
L 160.215934 -96.554274 
L 160.07213 -97.213687 
L 159.904173 -97.873099 
L 159.711152 -98.532511 
L 159.492621 -99.191923 
L 159.248494 -99.851335 
L 158.978865 -100.510747 
L 158.683744 -101.170159 
L 158.362753 -101.829572 
L 158.014811 -102.488984 
L 157.637859 -103.148396 
L 157.22868 -103.807808 
L 156.782872 -104.46722 
L 156.294983 -105.126632 
L 155.758834 -105.786045 
L 155.168019 -106.445457 
L 154.516523 -107.104869 
L 153.799409 -107.764281 
L 153.013505 -108.423693 
L 152.158009 -109.083105 
L 151.23495 -109.742518 
L 150.249472 -110.40193 
L 149.209916 -111.061342 
L 148.127689 -111.720754 
L 147.016967 -112.380166 
L 145.894233 -113.039578 
L 144.777704 -113.69899 
L 143.686658 -114.358403 
L 142.640696 -115.017815 
L 141.658937 -115.677227 
L 140.759195 -116.336639 
L 139.957124 -116.996051 
L 139.26541 -117.655463 
L 138.693048 -118.314876 
L 138.244782 -118.974288 
L 137.920791 -119.6337 
L 137.716698 -120.293112 
L 137.623933 -120.952524 
L 137.630485 -121.611936 
L 137.721979 -122.271349 
L 137.88301 -122.930761 
L 138.098574 -123.590173 
L 138.355445 -124.249585 
L 138.643326 -124.908997 
L 138.955608 -125.568409 
L 139.289644 -126.227822 
L 139.646487 -126.887234 
L 140.030112 -127.546646 
L 140.446248 -128.206058 
L 140.900949 -128.86547 
L 141.39913 -129.524882 
L 141.943247 -130.184294 
L 142.532325 -130.843707 
L 143.161454 -131.503119 
L 143.821832 -132.162531 
L 144.501345 -132.821943 
L 145.185607 -133.481355 
L 145.859328 -134.140767 
L 146.507823 -134.80018 
L 147.118478 -135.459592 
L 147.681996 -136.119004 
L 148.193261 -136.778416 
L 148.651747 -137.437828 
L 149.061414 -138.09724 
L 149.430148 -138.756653 
L 149.768804 -139.416065 
L 150.089999 -140.075477 
L 150.406802 -140.734889 
L 150.731462 -141.394301 
L 151.074342 -142.053713 
L 151.443121 -142.713125 
L 151.842359 -143.372538 
L 152.273414 -144.03195 
L 152.734679 -144.691362 
L 153.222068 -145.350774 
L 153.729667 -146.010186 
L 154.250431 -146.669598 
L 154.776864 -147.329011 
L 155.301583 -147.988423 
L 155.817756 -148.647835 
L 156.319368 -149.307247 
L 156.801357 -149.966659 
L 157.259627 -150.626071 
L 157.690989 -151.285484 
L 158.093063 -151.944896 
L 158.464179 -152.604308 
L 158.80329 -153.26372 
L 159.109912 -153.923132 
L 159.384091 -154.582544 
L 159.626375 -155.241957 
L 159.837797 -155.901369 
L 160.019847 -156.560781 
L 160.174416 -157.220193 
L 160.303736 -157.879605 
L 160.410286 -158.539017 
L 160.496696 -159.198429 
L 160.565639 -159.857842 
L 160.980361 -159.857842 
L 160.980361 -159.857842 
L 161.049304 -159.198429 
L 161.135714 -158.539017 
L 161.242264 -157.879605 
L 161.371584 -157.220193 
L 161.526153 -156.560781 
L 161.708203 -155.901369 
L 161.919625 -155.241957 
L 162.161909 -154.582544 
L 162.436088 -153.923132 
L 162.74271 -153.26372 
L 163.081821 -152.604308 
L 163.452937 -151.944896 
L 163.855011 -151.285484 
L 164.286373 -150.626071 
L 164.744643 -149.966659 
L 165.226632 -149.307247 
L 165.728244 -148.647835 
L 166.244417 -147.988423 
L 166.769136 -147.329011 
L 167.295569 -146.669598 
L 167.816333 -146.010186 
L 168.323932 -145.350774 
L 168.811321 -144.691362 
L 169.272586 -144.03195 
L 169.703641 -143.372538 
L 170.102879 -142.713125 
L 170.471658 -142.053713 
L 170.814538 -141.394301 
L 171.139198 -140.734889 
L 171.456001 -140.075477 
L 171.777196 -139.416065 
L 172.115852 -138.756653 
L 172.484586 -138.09724 
L 172.894253 -137.437828 
L 173.352739 -136.778416 
L 173.864004 -136.119004 
L 174.427522 -135.459592 
L 175.038177 -134.80018 
L 175.686672 -134.140767 
L 176.360393 -133.481355 
L 177.044655 -132.821943 
L 177.724168 -132.162531 
L 178.384546 -131.503119 
L 179.013675 -130.843707 
L 179.602753 -130.184294 
L 180.14687 -129.524882 
L 180.645051 -128.86547 
L 181.099752 -128.206058 
L 181.515888 -127.546646 
L 181.899513 -126.887234 
L 182.256356 -126.227822 
L 182.590392 -125.568409 
L 182.902674 -124.908997 
L 183.190555 -124.249585 
L 183.447426 -123.590173 
L 183.66299 -122.930761 
L 183.824021 -122.271349 
L 183.915515 -121.611936 
L 183.922067 -120.952524 
L 183.829302 -120.293112 
L 183.625209 -119.6337 
L 183.301218 -118.974288 
L 182.852952 -118.314876 
L 182.28059 -117.655463 
L 181.588876 -116.996051 
L 180.786805 -116.336639 
L 179.887063 -115.677227 
L 178.905304 -115.017815 
L 177.859342 -114.358403 
L 176.768296 -113.69899 
L 175.651767 -113.039578 
L 174.529033 -112.380166 
L 173.418311 -111.720754 
L 172.336084 -111.061342 
L 171.296528 -110.40193 
L 170.31105 -109.742518 
L 169.387991 -109.083105 
L 168.532495 -108.423693 
L 167.746591 -107.764281 
L 167.029477 -107.104869 
L 166.377981 -106.445457 
L 165.787166 -105.786045 
L 165.251017 -105.126632 
L 164.763128 -104.46722 
L 164.31732 -103.807808 
L 163.908141 -103.148396 
L 163.531189 -102.488984 
L 163.183247 -101.829572 
L 162.862256 -101.170159 
L 162.567135 -100.510747 
L 162.297506 -99.851335 
L 162.053379 -99.191923 
L 161.834848 -98.532511 
L 161.641827 -97.873099 
L 161.47387 -97.213687 
L 161.330066 -96.554274 
L 161.209031 -95.894862 
L 161.108957 -95.23545 
L 161.027711 -94.576038 
z
" style="stroke: #333333"/>
    </defs>
    <g clip-path="url(#p4badc2759e)">
     <use xlink:href="#m65dbd44204" x="0" y="360" style="fill: #179292; stroke: #333333"/>
    </g>
   </g>
   <g id="FillBetweenPolyCollection_9">
    <defs>
     <path id="m83711959f5" d="M 218.797902 -107.792208 
L 218.493432 -107.792208 
L 218.441442 -108.44545 
L 218.377056 -109.098692 
L 218.299127 -109.751934 
L 218.206906 -110.405176 
L 218.100129 -111.058418 
L 217.979063 -111.71166 
L 217.844474 -112.364902 
L 217.697527 -113.018144 
L 217.539618 -113.671386 
L 217.372145 -114.324628 
L 217.196262 -114.97787 
L 217.012624 -115.631112 
L 216.821171 -116.284353 
L 216.620951 -116.937595 
L 216.410003 -117.590837 
L 216.185274 -118.244079 
L 215.942575 -118.897321 
L 215.676542 -119.550563 
L 215.380607 -120.203805 
L 215.046991 -120.857047 
L 214.666752 -121.510289 
L 214.229928 -122.163531 
L 213.725847 -122.816773 
L 213.14364 -123.470015 
L 212.472984 -124.123257 
L 211.705059 -124.776499 
L 210.833668 -125.429741 
L 209.856422 -126.082982 
L 208.775854 -126.736224 
L 207.600344 -127.389466 
L 206.344683 -128.042708 
L 205.030191 -128.69595 
L 203.68427 -129.349192 
L 202.339374 -130.002434 
L 201.031399 -130.655676 
L 199.797565 -131.308918 
L 198.673924 -131.96216 
L 197.692702 -132.615402 
L 196.879704 -133.268644 
L 196.252094 -133.921886 
L 195.816799 -134.575128 
L 195.569822 -135.22837 
L 195.4966 -135.881611 
L 195.573472 -136.534853 
L 195.770152 -137.188095 
L 196.052959 -137.841337 
L 196.388417 -138.494579 
L 196.746784 -139.147821 
L 197.10503 -139.801063 
L 197.44887 -140.454305 
L 197.773572 -141.107547 
L 198.083469 -141.760789 
L 198.390276 -142.414031 
L 198.71052 -143.067273 
L 199.06249 -143.720515 
L 199.463214 -144.373757 
L 199.925887 -145.026999 
L 200.458104 -145.680241 
L 201.061086 -146.333482 
L 201.729888 -146.986724 
L 202.454443 -147.639966 
L 203.221162 -148.293208 
L 204.014754 -148.94645 
L 204.819957 -149.599692 
L 205.622936 -150.252934 
L 206.412211 -150.906176 
L 207.179078 -151.559418 
L 207.917594 -152.21266 
L 208.624252 -152.865902 
L 209.297483 -153.519144 
L 209.937119 -154.172386 
L 210.543906 -154.825628 
L 211.119126 -155.47887 
L 211.66432 -156.132111 
L 212.181119 -156.785353 
L 212.671139 -157.438595 
L 213.135924 -158.091837 
L 213.576916 -158.745079 
L 213.995445 -159.398321 
L 214.392722 -160.051563 
L 214.769843 -160.704805 
L 215.127789 -161.358047 
L 215.467414 -162.011289 
L 215.789427 -162.664531 
L 216.094354 -163.317773 
L 216.3825 -163.971015 
L 216.653915 -164.624257 
L 216.908388 -165.277499 
L 217.145472 -165.930741 
L 217.364551 -166.583982 
L 217.564947 -167.237224 
L 217.746053 -167.890466 
L 217.907463 -168.543708 
L 218.049098 -169.19695 
L 218.17128 -169.850192 
L 218.274771 -170.503434 
L 218.360752 -171.156676 
L 218.430758 -171.809918 
L 218.486579 -172.46316 
L 218.804755 -172.46316 
L 218.804755 -172.46316 
L 218.860575 -171.809918 
L 218.930581 -171.156676 
L 219.016562 -170.503434 
L 219.120053 -169.850192 
L 219.242236 -169.19695 
L 219.38387 -168.543708 
L 219.545281 -167.890466 
L 219.726386 -167.237224 
L 219.926782 -166.583982 
L 220.145861 -165.930741 
L 220.382945 -165.277499 
L 220.637419 -164.624257 
L 220.908834 -163.971015 
L 221.196979 -163.317773 
L 221.501906 -162.664531 
L 221.823919 -162.011289 
L 222.163544 -161.358047 
L 222.52149 -160.704805 
L 222.898611 -160.051563 
L 223.295888 -159.398321 
L 223.714417 -158.745079 
L 224.15541 -158.091837 
L 224.620194 -157.438595 
L 225.110214 -156.785353 
L 225.627013 -156.132111 
L 226.172208 -155.47887 
L 226.747427 -154.825628 
L 227.354215 -154.172386 
L 227.99385 -153.519144 
L 228.667081 -152.865902 
L 229.373739 -152.21266 
L 230.112255 -151.559418 
L 230.879122 -150.906176 
L 231.668397 -150.252934 
L 232.471377 -149.599692 
L 233.276579 -148.94645 
L 234.070171 -148.293208 
L 234.83689 -147.639966 
L 235.561446 -146.986724 
L 236.230247 -146.333482 
L 236.833229 -145.680241 
L 237.365447 -145.026999 
L 237.828119 -144.373757 
L 238.228844 -143.720515 
L 238.580814 -143.067273 
L 238.901057 -142.414031 
L 239.207865 -141.760789 
L 239.517761 -141.107547 
L 239.842463 -140.454305 
L 240.186303 -139.801063 
L 240.54455 -139.147821 
L 240.902917 -138.494579 
L 241.238374 -137.841337 
L 241.521181 -137.188095 
L 241.717862 -136.534853 
L 241.794733 -135.881611 
L 241.721511 -135.22837 
L 241.474534 -134.575128 
L 241.03924 -133.921886 
L 240.411629 -133.268644 
L 239.598632 -132.615402 
L 238.617409 -131.96216 
L 237.493768 -131.308918 
L 236.259934 -130.655676 
L 234.95196 -130.002434 
L 233.607064 -129.349192 
L 232.261142 -128.69595 
L 230.94665 -128.042708 
L 229.69099 -127.389466 
L 228.515479 -126.736224 
L 227.434911 -126.082982 
L 226.457665 -125.429741 
L 225.586275 -124.776499 
L 224.81835 -124.123257 
L 224.147693 -123.470015 
L 223.565486 -122.816773 
L 223.061405 -122.163531 
L 222.624581 -121.510289 
L 222.244342 -120.857047 
L 221.910727 -120.203805 
L 221.614792 -119.550563 
L 221.348758 -118.897321 
L 221.106059 -118.244079 
L 220.881331 -117.590837 
L 220.670382 -116.937595 
L 220.470163 -116.284353 
L 220.278709 -115.631112 
L 220.095071 -114.97787 
L 219.919188 -114.324628 
L 219.751716 -113.671386 
L 219.593806 -113.018144 
L 219.44686 -112.364902 
L 219.31227 -111.71166 
L 219.191204 -111.058418 
L 219.084428 -110.405176 
L 218.992206 -109.751934 
L 218.914277 -109.098692 
L 218.849891 -108.44545 
L 218.797902 -107.792208 
z
" style="stroke: #333333"/>
    </defs>
    <g clip-path="url(#p4badc2759e)">
     <use xlink:href="#m83711959f5" x="0" y="360" style="fill: #8bc85f; stroke: #333333"/>
    </g>
   </g>
   <g id="FillBetweenPolyCollection_10">
    <defs>
     <path id="mb828b4cda3" d="M 276.72567 -82.043165 
L 276.310997 -82.043165 
L 276.23095 -82.656454 
L 276.129577 -83.269743 
L 276.004958 -83.883032 
L 275.856294 -84.496321 
L 275.684217 -85.109609 
L 275.490945 -85.722898 
L 275.280183 -86.336187 
L 275.056731 -86.949476 
L 274.825783 -87.562765 
L 274.591972 -88.176054 
L 274.358291 -88.789343 
L 274.125064 -89.402631 
L 273.889178 -90.01592 
L 273.643769 -90.629209 
L 273.378482 -91.242498 
L 273.080345 -91.855787 
L 272.735154 -92.469076 
L 272.329176 -93.082364 
L 271.850865 -93.695653 
L 271.292311 -94.308942 
L 270.650142 -94.922231 
L 269.925733 -95.53552 
L 269.124731 -96.148809 
L 268.256039 -96.762097 
L 267.330512 -97.375386 
L 266.359705 -97.988675 
L 265.354925 -98.601964 
L 264.326773 -99.215253 
L 263.285208 -99.828542 
L 262.23998 -100.441831 
L 261.201225 -101.055119 
L 260.17994 -101.668408 
L 259.188134 -102.281697 
L 258.238574 -102.894986 
L 257.344174 -103.508275 
L 256.517234 -104.121564 
L 255.768764 -104.734852 
L 255.108125 -105.348141 
L 254.5431 -105.96143 
L 254.080357 -106.574719 
L 253.726127 -107.188008 
L 253.486815 -107.801297 
L 253.369267 -108.414585 
L 253.380501 -109.027874 
L 253.526871 -109.641163 
L 253.812791 -110.254452 
L 254.239328 -110.867741 
L 254.802981 -111.48103 
L 255.494999 -112.094318 
L 256.301418 -112.707607 
L 257.20385 -113.320896 
L 258.180898 -113.934185 
L 259.209918 -114.547474 
L 260.268794 -115.160763 
L 261.337446 -115.774052 
L 262.398851 -116.38734 
L 263.439514 -117.000629 
L 264.449433 -117.613918 
L 265.421701 -118.227207 
L 266.351932 -118.840496 
L 267.237651 -119.453785 
L 268.077782 -120.067073 
L 268.872248 -120.680362 
L 269.621672 -121.293651 
L 270.327131 -121.90694 
L 270.989903 -122.520229 
L 271.611183 -123.133518 
L 272.191781 -123.746806 
L 272.73185 -124.360095 
L 273.230699 -124.973384 
L 273.686763 -125.586673 
L 274.097752 -126.199962 
L 274.460991 -126.813251 
L 274.773896 -127.426539 
L 275.034536 -128.039828 
L 275.242183 -128.653117 
L 275.39778 -129.266406 
L 275.504245 -129.879695 
L 275.566573 -130.492984 
L 275.591708 -131.106273 
L 275.588188 -131.719561 
L 275.565591 -132.33285 
L 275.533844 -132.946139 
L 275.502457 -133.559428 
L 275.479774 -134.172717 
L 275.472337 -134.786006 
L 275.484435 -135.399294 
L 275.5179 -136.012583 
L 275.572172 -136.625872 
L 275.644624 -137.239161 
L 275.731078 -137.85245 
L 275.826444 -138.465739 
L 275.92538 -139.079027 
L 276.022883 -139.692316 
L 276.114752 -140.305605 
L 276.197863 -140.918894 
L 276.270276 -141.532183 
L 276.331172 -142.145472 
L 276.380685 -142.758761 
L 276.655981 -142.758761 
L 276.655981 -142.758761 
L 276.705494 -142.145472 
L 276.766391 -141.532183 
L 276.838803 -140.918894 
L 276.921915 -140.305605 
L 277.013783 -139.692316 
L 277.111287 -139.079027 
L 277.210222 -138.465739 
L 277.305588 -137.85245 
L 277.392043 -137.239161 
L 277.464495 -136.625872 
L 277.518767 -136.012583 
L 277.552231 -135.399294 
L 277.564329 -134.786006 
L 277.556893 -134.172717 
L 277.53421 -133.559428 
L 277.502822 -132.946139 
L 277.471076 -132.33285 
L 277.448479 -131.719561 
L 277.444959 -131.106273 
L 277.470094 -130.492984 
L 277.532422 -129.879695 
L 277.638886 -129.266406 
L 277.794483 -128.653117 
L 278.002131 -128.039828 
L 278.262771 -127.426539 
L 278.575676 -126.813251 
L 278.938915 -126.199962 
L 279.349904 -125.586673 
L 279.805968 -124.973384 
L 280.304816 -124.360095 
L 280.844885 -123.746806 
L 281.425484 -123.133518 
L 282.046764 -122.520229 
L 282.709536 -121.90694 
L 283.414995 -121.293651 
L 284.164419 -120.680362 
L 284.958885 -120.067073 
L 285.799016 -119.453785 
L 286.684735 -118.840496 
L 287.614965 -118.227207 
L 288.587234 -117.613918 
L 289.597152 -117.000629 
L 290.637816 -116.38734 
L 291.699221 -115.774052 
L 292.767873 -115.160763 
L 293.826749 -114.547474 
L 294.855769 -113.934185 
L 295.832817 -113.320896 
L 296.735249 -112.707607 
L 297.541667 -112.094318 
L 298.233686 -111.48103 
L 298.797339 -110.867741 
L 299.223875 -110.254452 
L 299.509796 -109.641163 
L 299.656165 -109.027874 
L 299.6674 -108.414585 
L 299.549852 -107.801297 
L 299.31054 -107.188008 
L 298.95631 -106.574719 
L 298.493567 -105.96143 
L 297.928542 -105.348141 
L 297.267903 -104.734852 
L 296.519433 -104.121564 
L 295.692493 -103.508275 
L 294.798093 -102.894986 
L 293.848532 -102.281697 
L 292.856727 -101.668408 
L 291.835442 -101.055119 
L 290.796687 -100.441831 
L 289.751459 -99.828542 
L 288.709893 -99.215253 
L 287.681742 -98.601964 
L 286.676961 -97.988675 
L 285.706155 -97.375386 
L 284.780628 -96.762097 
L 283.911935 -96.148809 
L 283.110934 -95.53552 
L 282.386525 -94.922231 
L 281.744355 -94.308942 
L 281.185802 -93.695653 
L 280.707491 -93.082364 
L 280.301512 -92.469076 
L 279.956322 -91.855787 
L 279.658185 -91.242498 
L 279.392898 -90.629209 
L 279.147489 -90.01592 
L 278.911603 -89.402631 
L 278.678375 -88.789343 
L 278.444695 -88.176054 
L 278.210884 -87.562765 
L 277.979936 -86.949476 
L 277.756484 -86.336187 
L 277.545721 -85.722898 
L 277.352449 -85.109609 
L 277.180373 -84.496321 
L 277.031709 -83.883032 
L 276.90709 -83.269743 
L 276.805716 -82.656454 
L 276.72567 -82.043165 
z
" style="stroke: #333333"/>
    </defs>
    <g clip-path="url(#p4badc2759e)">
     <use xlink:href="#mb828b4cda3" x="0" y="360" style="fill: #8bc85f; stroke: #333333"/>
    </g>
   </g>
   <g id="FillBetweenPolyCollection_11">
    <defs>
     <path id="mb8506fd1f6" d="M 334.726885 -67.479617 
L 334.055115 -67.479617 
L 333.940564 -68.219615 
L 333.796382 -68.959613 
L 333.61799 -69.699612 
L 333.400898 -70.43961 
L 333.140869 -71.179608 
L 332.834055 -71.919606 
L 332.477078 -72.659604 
L 332.067055 -73.399602 
L 331.601544 -74.1396 
L 331.078446 -74.879598 
L 330.495872 -75.619596 
L 329.852041 -76.359594 
L 329.145246 -77.099592 
L 328.373957 -77.83959 
L 327.537096 -78.579588 
L 326.634487 -79.319586 
L 325.667479 -80.059584 
L 324.63966 -80.799582 
L 323.557556 -81.53958 
L 322.431202 -82.279579 
L 321.274429 -83.019577 
L 320.104753 -83.759575 
L 318.942801 -84.499573 
L 317.811242 -85.239571 
L 316.733322 -85.979569 
L 315.731113 -86.719567 
L 314.823707 -87.459565 
L 314.025573 -88.199563 
L 313.34532 -88.939561 
L 312.785034 -89.679559 
L 312.340315 -90.419557 
L 312.001008 -91.159555 
L 311.752548 -91.899553 
L 311.577736 -92.639551 
L 311.458719 -93.379549 
L 311.37891 -94.119547 
L 311.324634 -94.859546 
L 311.286314 -95.599544 
L 311.259094 -96.339542 
L 311.242891 -97.07954 
L 311.241933 -97.819538 
L 311.263882 -98.559536 
L 311.318697 -99.299534 
L 311.417372 -100.039532 
L 311.570693 -100.77953 
L 311.788094 -101.519528 
L 312.076716 -102.259526 
L 312.440686 -102.999524 
L 312.880665 -103.739522 
L 313.393668 -104.47952 
L 313.973167 -105.219518 
L 314.609461 -105.959516 
L 315.29031 -106.699514 
L 316.001786 -107.439512 
L 316.729286 -108.179511 
L 317.458627 -108.919509 
L 318.177116 -109.659507 
L 318.874497 -110.399505 
L 319.543669 -111.139503 
L 320.181086 -111.879501 
L 320.786799 -112.619499 
L 321.364136 -113.359497 
L 321.919042 -114.099495 
L 322.459184 -114.839493 
L 322.992899 -115.579491 
L 323.528135 -116.319489 
L 324.071481 -117.059487 
L 324.627403 -117.799485 
L 325.197756 -118.539483 
L 325.781606 -119.279481 
L 326.375371 -120.019479 
L 326.973232 -120.759478 
L 327.567768 -121.499476 
L 328.150721 -122.239474 
L 328.713801 -122.979472 
L 329.249447 -123.71947 
L 329.751466 -124.459468 
L 330.215478 -125.199466 
L 330.639157 -125.939464 
L 331.022232 -126.679462 
L 331.366289 -127.41946 
L 331.674403 -128.159458 
L 331.950658 -128.899456 
L 332.199629 -129.639454 
L 332.425873 -130.379452 
L 332.633514 -131.11945 
L 332.825929 -131.859448 
L 333.005583 -132.599446 
L 333.173997 -133.339445 
L 333.331839 -134.079443 
L 333.479106 -134.819441 
L 333.615351 -135.559439 
L 333.739932 -136.299437 
L 333.852228 -137.039435 
L 333.951814 -137.779433 
L 334.038579 -138.519431 
L 334.112768 -139.259429 
L 334.174984 -139.999427 
L 334.22613 -140.739425 
L 334.55587 -140.739425 
L 334.55587 -140.739425 
L 334.607016 -139.999427 
L 334.669232 -139.259429 
L 334.743421 -138.519431 
L 334.830186 -137.779433 
L 334.929772 -137.039435 
L 335.042068 -136.299437 
L 335.166649 -135.559439 
L 335.302894 -134.819441 
L 335.450161 -134.079443 
L 335.608003 -133.339445 
L 335.776417 -132.599446 
L 335.956071 -131.859448 
L 336.148486 -131.11945 
L 336.356127 -130.379452 
L 336.582371 -129.639454 
L 336.831342 -128.899456 
L 337.107597 -128.159458 
L 337.415711 -127.41946 
L 337.759768 -126.679462 
L 338.142843 -125.939464 
L 338.566522 -125.199466 
L 339.030534 -124.459468 
L 339.532553 -123.71947 
L 340.068199 -122.979472 
L 340.631279 -122.239474 
L 341.214232 -121.499476 
L 341.808768 -120.759478 
L 342.406629 -120.019479 
L 343.000394 -119.279481 
L 343.584244 -118.539483 
L 344.154597 -117.799485 
L 344.710519 -117.059487 
L 345.253865 -116.319489 
L 345.789101 -115.579491 
L 346.322816 -114.839493 
L 346.862958 -114.099495 
L 347.417864 -113.359497 
L 347.995201 -112.619499 
L 348.600914 -111.879501 
L 349.238331 -111.139503 
L 349.907503 -110.399505 
L 350.604884 -109.659507 
L 351.323373 -108.919509 
L 352.052714 -108.179511 
L 352.780214 -107.439512 
L 353.49169 -106.699514 
L 354.172539 -105.959516 
L 354.808833 -105.219518 
L 355.388332 -104.47952 
L 355.901335 -103.739522 
L 356.341314 -102.999524 
L 356.705284 -102.259526 
L 356.993906 -101.519528 
L 357.211307 -100.77953 
L 357.364628 -100.039532 
L 357.463303 -99.299534 
L 357.518118 -98.559536 
L 357.540067 -97.819538 
L 357.539109 -97.07954 
L 357.522906 -96.339542 
L 357.495686 -95.599544 
L 357.457366 -94.859546 
L 357.40309 -94.119547 
L 357.323281 -93.379549 
L 357.204264 -92.639551 
L 357.029452 -91.899553 
L 356.780992 -91.159555 
L 356.441685 -90.419557 
L 355.996966 -89.679559 
L 355.43668 -88.939561 
L 354.756427 -88.199563 
L 353.958293 -87.459565 
L 353.050887 -86.719567 
L 352.048678 -85.979569 
L 350.970758 -85.239571 
L 349.839199 -84.499573 
L 348.677247 -83.759575 
L 347.507571 -83.019577 
L 346.350798 -82.279579 
L 345.224444 -81.53958 
L 344.14234 -80.799582 
L 343.114521 -80.059584 
L 342.147513 -79.319586 
L 341.244904 -78.579588 
L 340.408043 -77.83959 
L 339.636754 -77.099592 
L 338.929959 -76.359594 
L 338.286128 -75.619596 
L 337.703554 -74.879598 
L 337.180456 -74.1396 
L 336.714945 -73.399602 
L 336.304922 -72.659604 
L 335.947945 -71.919606 
L 335.641131 -71.179608 
L 335.381102 -70.43961 
L 335.16401 -69.699612 
L 334.985618 -68.959613 
L 334.841436 -68.219615 
L 334.726885 -67.479617 
z
" style="stroke: #333333"/>
    </defs>
    <g clip-path="url(#p4badc2759e)">
     <use xlink:href="#mb8506fd1f6" x="0" y="360" style="fill: #e59aa7; stroke: #333333"/>
    </g>
   </g>
   <g id="FillBetweenPolyCollection_12">
    <defs>
     <path id="me2efa3fb21" d="M 392.581094 -68.875215 
L 391.946239 -68.875215 
L 391.841705 -69.377054 
L 391.710617 -69.878892 
L 391.548707 -70.380731 
L 391.351663 -70.88257 
L 391.115271 -71.384408 
L 390.835579 -71.886247 
L 390.509063 -72.388085 
L 390.132795 -72.889924 
L 389.704606 -73.391762 
L 389.223253 -73.893601 
L 388.688569 -74.395439 
L 388.101613 -74.897278 
L 387.464798 -75.399117 
L 386.781999 -75.900955 
L 386.058612 -76.402794 
L 385.30154 -76.904632 
L 384.519098 -77.406471 
L 383.720794 -77.908309 
L 382.916997 -78.410148 
L 382.118482 -78.911986 
L 381.335878 -79.413825 
L 380.579075 -79.915663 
L 379.856636 -80.417502 
L 379.175282 -80.919341 
L 378.539534 -81.421179 
L 377.951538 -81.923018 
L 377.411112 -82.424856 
L 376.916008 -82.926695 
L 376.462337 -83.428533 
L 376.045104 -83.930372 
L 375.658758 -84.43221 
L 375.297674 -84.934049 
L 374.956498 -85.435888 
L 374.630329 -85.937726 
L 374.314711 -86.439565 
L 374.005512 -86.941403 
L 373.698724 -87.443242 
L 373.390313 -87.94508 
L 373.076181 -88.446919 
L 372.752322 -88.948757 
L 372.415208 -89.450596 
L 372.06239 -89.952435 
L 371.693248 -90.454273 
L 371.309785 -90.956112 
L 370.917337 -91.45795 
L 370.525066 -91.959789 
L 370.146096 -92.461627 
L 369.797232 -92.963466 
L 369.498211 -93.465304 
L 369.270527 -93.967143 
L 369.135908 -94.468982 
L 369.1146 -94.97082 
L 369.22362 -95.472659 
L 369.475174 -95.974497 
L 369.875409 -96.476336 
L 370.423654 -96.978174 
L 371.112226 -97.480013 
L 371.926846 -97.981851 
L 372.847603 -98.48369 
L 373.850388 -98.985529 
L 374.908616 -99.487367 
L 375.995079 -99.989206 
L 377.083727 -100.491044 
L 378.151201 -100.992883 
L 379.178003 -101.494721 
L 380.14921 -101.99656 
L 381.054709 -102.498398 
L 381.889011 -103.000237 
L 382.650711 -103.502076 
L 383.34172 -104.003914 
L 383.966389 -104.505753 
L 384.530654 -105.007591 
L 385.041279 -105.50943 
L 385.505269 -106.011268 
L 385.929468 -106.513107 
L 386.320323 -107.014945 
L 386.683786 -107.516784 
L 387.025288 -108.018623 
L 387.349743 -108.520461 
L 387.66154 -109.0223 
L 387.964492 -109.524138 
L 388.261741 -110.025977 
L 388.555647 -110.527815 
L 388.847667 -111.029654 
L 389.138277 -111.531492 
L 389.426951 -112.033331 
L 389.712227 -112.53517 
L 389.991855 -113.037008 
L 390.26302 -113.538847 
L 390.522622 -114.040685 
L 390.767568 -114.542524 
L 390.995052 -115.044362 
L 391.202796 -115.546201 
L 391.389211 -116.048039 
L 391.553493 -116.549878 
L 391.695625 -117.051717 
L 391.816318 -117.553555 
L 391.916893 -118.055394 
L 391.999135 -118.557232 
L 392.528199 -118.557232 
L 392.528199 -118.557232 
L 392.61044 -118.055394 
L 392.711016 -117.553555 
L 392.831708 -117.051717 
L 392.97384 -116.549878 
L 393.138122 -116.048039 
L 393.324538 -115.546201 
L 393.532281 -115.044362 
L 393.759766 -114.542524 
L 394.004711 -114.040685 
L 394.264313 -113.538847 
L 394.535479 -113.037008 
L 394.815106 -112.53517 
L 395.100382 -112.033331 
L 395.389057 -111.531492 
L 395.679667 -111.029654 
L 395.971687 -110.527815 
L 396.265592 -110.025977 
L 396.562842 -109.524138 
L 396.865793 -109.0223 
L 397.17759 -108.520461 
L 397.502046 -108.018623 
L 397.843547 -107.516784 
L 398.20701 -107.014945 
L 398.597865 -106.513107 
L 399.022064 -106.011268 
L 399.486055 -105.50943 
L 399.996679 -105.007591 
L 400.560944 -104.505753 
L 401.185613 -104.003914 
L 401.876622 -103.502076 
L 402.638322 -103.000237 
L 403.472624 -102.498398 
L 404.378123 -101.99656 
L 405.34933 -101.494721 
L 406.376133 -100.992883 
L 407.443607 -100.491044 
L 408.532254 -99.989206 
L 409.618718 -99.487367 
L 410.676946 -98.985529 
L 411.67973 -98.48369 
L 412.600488 -97.981851 
L 413.415107 -97.480013 
L 414.10368 -96.978174 
L 414.651924 -96.476336 
L 415.052159 -95.974497 
L 415.303713 -95.472659 
L 415.412733 -94.97082 
L 415.391425 -94.468982 
L 415.256806 -93.967143 
L 415.029122 -93.465304 
L 414.730101 -92.963466 
L 414.381237 -92.461627 
L 414.002267 -91.959789 
L 413.609996 -91.45795 
L 413.217549 -90.956112 
L 412.834085 -90.454273 
L 412.464943 -89.952435 
L 412.112126 -89.450596 
L 411.775012 -88.948757 
L 411.451152 -88.446919 
L 411.13702 -87.94508 
L 410.82861 -87.443242 
L 410.521822 -86.941403 
L 410.212622 -86.439565 
L 409.897004 -85.937726 
L 409.570835 -85.435888 
L 409.22966 -84.934049 
L 408.868575 -84.43221 
L 408.482229 -83.930372 
L 408.064997 -83.428533 
L 407.611326 -82.926695 
L 407.116221 -82.424856 
L 406.575796 -81.923018 
L 405.987799 -81.421179 
L 405.352052 -80.919341 
L 404.670698 -80.417502 
L 403.948258 -79.915663 
L 403.191456 -79.413825 
L 402.408852 -78.911986 
L 401.610336 -78.410148 
L 400.806539 -77.908309 
L 400.008235 -77.406471 
L 399.225793 -76.904632 
L 398.468721 -76.402794 
L 397.745334 -75.900955 
L 397.062536 -75.399117 
L 396.425721 -74.897278 
L 395.838764 -74.395439 
L 395.30408 -73.893601 
L 394.822727 -73.391762 
L 394.394539 -72.889924 
L 394.01827 -72.388085 
L 393.691754 -71.886247 
L 393.412062 -71.384408 
L 393.17567 -70.88257 
L 392.978626 -70.380731 
L 392.816717 -69.878892 
L 392.685628 -69.377054 
L 392.581094 -68.875215 
z
" style="stroke: #333333"/>
    </defs>
    <g clip-path="url(#p4badc2759e)">
     <use xlink:href="#me2efa3fb21" x="0" y="360" style="fill: #e59aa7; stroke: #333333"/>
    </g>
   </g>
   <g id="matplotlib.axis_3">
    <g id="xtick_1">
     <g id="line2d_23">
      <defs>
       <path id="mbdbb278058" d="M 0 0 
L 0 3.5 
" style="stroke: #000000; stroke-width: 0.8"/>
      </defs>
      <g>
       <use xlink:href="#mbdbb278058" x="102.900333" y="318.04" style="stroke: #000000; stroke-width: 0.8"/>
      </g>
     </g>
     <g id="text_6">
      <text style="font-size: 10px; font-family: 'DejaVu Sans', 'Bitstream Vera Sans', 'Computer Modern Sans Serif', 'Lucida Grande', 'Verdana', 'Geneva', 'Lucid', 'Arial', 'Helvetica', 'Avant Garde', sans-serif; text-anchor: middle" x="102.900333" y="332.638438" transform="rotate(-0 102.900333 332.638438)">all</text>
     </g>
    </g>
    <g id="xtick_2">
     <g id="line2d_24">
      <g>
       <use xlink:href="#mbdbb278058" x="160.773" y="318.04" style="stroke: #000000; stroke-width: 0.8"/>
      </g>
     </g>
     <g id="text_7">
      <text style="font-size: 10px; font-family: 'DejaVu Sans', 'Bitstream Vera Sans', 'Computer Modern Sans Serif', 'Lucida Grande', 'Verdana', 'Geneva', 'Lucid', 'Arial', 'Helvetica', 'Avant Garde', sans-serif; text-anchor: middle" x="160.773" y="332.638438" transform="rotate(-0 160.773 332.638438)">VISa</text>
     </g>
    </g>
    <g id="xtick_3">
     <g id="line2d_25">
      <g>
       <use xlink:href="#mbdbb278058" x="218.645667" y="318.04" style="stroke: #000000; stroke-width: 0.8"/>
      </g>
     </g>
     <g id="text_8">
      <text style="font-size: 10px; font-family: 'DejaVu Sans', 'Bitstream Vera Sans', 'Computer Modern Sans Serif', 'Lucida Grande', 'Verdana', 'Geneva', 'Lucid', 'Arial', 'Helvetica', 'Avant Garde', sans-serif; text-anchor: middle" x="218.645667" y="332.638438" transform="rotate(-0 218.645667 332.638438)">CA1</text>
     </g>
    </g>
    <g id="xtick_4">
     <g id="line2d_26">
      <g>
       <use xlink:href="#mbdbb278058" x="276.518333" y="318.04" style="stroke: #000000; stroke-width: 0.8"/>
      </g>
     </g>
     <g id="text_9">
      <text style="font-size: 10px; font-family: 'DejaVu Sans', 'Bitstream Vera Sans', 'Computer Modern Sans Serif', 'Lucida Grande', 'Verdana', 'Geneva', 'Lucid', 'Arial', 'Helvetica', 'Avant Garde', sans-serif; text-anchor: middle" x="276.518333" y="332.638438" transform="rotate(-0 276.518333 332.638438)">DG</text>
     </g>
    </g>
    <g id="xtick_5">
     <g id="line2d_27">
      <g>
       <use xlink:href="#mbdbb278058" x="334.391" y="318.04" style="stroke: #000000; stroke-width: 0.8"/>
      </g>
     </g>
     <g id="text_10">
      <text style="font-size: 10px; font-family: 'DejaVu Sans', 'Bitstream Vera Sans', 'Computer Modern Sans Serif', 'Lucida Grande', 'Verdana', 'Geneva', 'Lucid', 'Arial', 'Helvetica', 'Avant Garde', sans-serif; text-anchor: middle" x="334.391" y="332.638438" transform="rotate(-0 334.391 332.638438)">LP</text>
     </g>
    </g>
    <g id="xtick_6">
     <g id="line2d_28">
      <g>
       <use xlink:href="#mbdbb278058" x="392.263667" y="318.04" style="stroke: #000000; stroke-width: 0.8"/>
      </g>
     </g>
     <g id="text_11">
      <text style="font-size: 10px; font-family: 'DejaVu Sans', 'Bitstream Vera Sans', 'Computer Modern Sans Serif', 'Lucida Grande', 'Verdana', 'Geneva', 'Lucid', 'Arial', 'Helvetica', 'Avant Garde', sans-serif; text-anchor: middle" x="392.263667" y="332.638438" transform="rotate(-0 392.263667 332.638438)">PO</text>
     </g>
    </g>
    <g id="text_12">
     <text style="font-size: 10px; font-family: 'DejaVu Sans', 'Bitstream Vera Sans', 'Computer Modern Sans Serif', 'Lucida Grande', 'Verdana', 'Geneva', 'Lucid', 'Arial', 'Helvetica', 'Avant Garde', sans-serif; text-anchor: middle" x="247.582" y="346.316563" transform="rotate(-0 247.582 346.316563)">region</text>
    </g>
   </g>
   <g id="matplotlib.axis_4">
    <g id="ytick_4">
     <g id="line2d_29">
      <g>
       <use xlink:href="#me75ecb4939" x="73.964" y="318.04" style="stroke: #000000; stroke-width: 0.8"/>
      </g>
     </g>
     <g id="text_13">
      <text style="font-size: 10px; font-family: 'DejaVu Sans', 'Bitstream Vera Sans', 'Computer Modern Sans Serif', 'Lucida Grande', 'Verdana', 'Geneva', 'Lucid', 'Arial', 'Helvetica', 'Avant Garde', sans-serif; text-anchor: end" x="66.964" y="321.839219" transform="rotate(-0 66.964 321.839219)">−1</text>
     </g>
    </g>
    <g id="ytick_5">
     <g id="line2d_30">
      <g>
       <use xlink:href="#me75ecb4939" x="73.964" y="214.776" style="stroke: #000000; stroke-width: 0.8"/>
      </g>
     </g>
     <g id="text_14">
      <text style="font-size: 10px; font-family: 'DejaVu Sans', 'Bitstream Vera Sans', 'Computer Modern Sans Serif', 'Lucida Grande', 'Verdana', 'Geneva', 'Lucid', 'Arial', 'Helvetica', 'Avant Garde', sans-serif; text-anchor: end" x="66.964" y="218.575219" transform="rotate(-0 66.964 218.575219)">0</text>
     </g>
    </g>
    <g id="text_15">
     <text style="font-size: 10px; font-family: 'DejaVu Sans', 'Bitstream Vera Sans', 'Computer Modern Sans Serif', 'Lucida Grande', 'Verdana', 'Geneva', 'Lucid', 'Arial', 'Helvetica', 'Avant Garde', sans-serif" transform="translate(34.944313 275.758594) rotate(-90)">pearsonr</text>
     <text style="font-size: 10px; font-family: 'DejaVu Sans', 'Bitstream Vera Sans', 'Computer Modern Sans Serif', 'Lucida Grande', 'Verdana', 'Geneva', 'Lucid', 'Arial', 'Helvetica', 'Avant Garde', sans-serif" transform="translate(46.142125 280.326563) rotate(-90)">correlation</text>
    </g>
   </g>
   <g id="line2d_31">
    <path d="M 82.103353 270.191859 
L 123.697313 270.191859 
" clip-path="url(#p4badc2759e)" style="fill: none; stroke-dasharray: 1.25,0.75; stroke-dashoffset: 0; stroke: #333333"/>
   </g>
   <g id="line2d_32">
    <path d="M 80.014556 266.95042 
L 125.786111 266.95042 
" clip-path="url(#p4badc2759e)" style="fill: none; stroke-dasharray: 2.5,1; stroke-dashoffset: 0; stroke: #333333"/>
   </g>
   <g id="line2d_33">
    <path d="M 90.532228 261.13663 
L 115.268438 261.13663 
" clip-path="url(#p4badc2759e)" style="fill: none; stroke-dasharray: 1.25,0.75; stroke-dashoffset: 0; stroke: #333333"/>
   </g>
   <g id="line2d_34">
    <path d="M 138.514773 241.422878 
L 183.031227 241.422878 
" clip-path="url(#p4badc2759e)" style="fill: none; stroke-dasharray: 1.25,0.75; stroke-dashoffset: 0; stroke: #333333"/>
   </g>
   <g id="line2d_35">
    <path d="M 138.209588 236.124845 
L 183.336412 236.124845 
" clip-path="url(#p4badc2759e)" style="fill: none; stroke-dasharray: 2.5,1; stroke-dashoffset: 0; stroke: #333333"/>
   </g>
   <g id="line2d_36">
    <path d="M 143.520775 228.138086 
L 178.025225 228.138086 
" clip-path="url(#p4badc2759e)" style="fill: none; stroke-dasharray: 1.25,0.75; stroke-dashoffset: 0; stroke: #333333"/>
   </g>
   <g id="line2d_37">
    <path d="M 196.234422 226.051594 
L 241.056912 226.051594 
" clip-path="url(#p4badc2759e)" style="fill: none; stroke-dasharray: 1.25,0.75; stroke-dashoffset: 0; stroke: #333333"/>
   </g>
   <g id="line2d_38">
    <path d="M 196.376119 221.529368 
L 240.915214 221.529368 
" clip-path="url(#p4badc2759e)" style="fill: none; stroke-dasharray: 2.5,1; stroke-dashoffset: 0; stroke: #333333"/>
   </g>
   <g id="line2d_39">
    <path d="M 200.276284 214.542926 
L 237.01505 214.542926 
" clip-path="url(#p4badc2759e)" style="fill: none; stroke-dasharray: 1.25,0.75; stroke-dashoffset: 0; stroke: #333333"/>
   </g>
   <g id="line2d_40">
    <path d="M 256.898724 256.161363 
L 296.137943 256.161363 
" clip-path="url(#p4badc2759e)" style="fill: none; stroke-dasharray: 1.25,0.75; stroke-dashoffset: 0; stroke: #333333"/>
   </g>
   <g id="line2d_41">
    <path d="M 253.481461 250.549106 
L 299.555206 250.549106 
" clip-path="url(#p4badc2759e)" style="fill: none; stroke-dasharray: 2.5,1; stroke-dashoffset: 0; stroke: #333333"/>
   </g>
   <g id="line2d_42">
    <path d="M 256.414197 247.215749 
L 296.62247 247.215749 
" clip-path="url(#p4badc2759e)" style="fill: none; stroke-dasharray: 1.25,0.75; stroke-dashoffset: 0; stroke: #333333"/>
   </g>
   <g id="line2d_43">
    <path d="M 312.796479 270.335557 
L 355.985521 270.335557 
" clip-path="url(#p4badc2759e)" style="fill: none; stroke-dasharray: 1.25,0.75; stroke-dashoffset: 0; stroke: #333333"/>
   </g>
   <g id="line2d_44">
    <path d="M 311.300729 260.943031 
L 357.481271 260.943031 
" clip-path="url(#p4badc2759e)" style="fill: none; stroke-dasharray: 2.5,1; stroke-dashoffset: 0; stroke: #333333"/>
   </g>
   <g id="line2d_45">
    <path d="M 314.596082 254.056043 
L 354.185918 254.056043 
" clip-path="url(#p4badc2759e)" style="fill: none; stroke-dasharray: 1.25,0.75; stroke-dashoffset: 0; stroke: #333333"/>
   </g>
   <g id="line2d_46">
    <path d="M 374.342845 273.605168 
L 410.184489 273.605168 
" clip-path="url(#p4badc2759e)" style="fill: none; stroke-dasharray: 1.25,0.75; stroke-dashoffset: 0; stroke: #333333"/>
   </g>
   <g id="line2d_47">
    <path d="M 369.537052 266.599881 
L 414.990281 266.599881 
" clip-path="url(#p4badc2759e)" style="fill: none; stroke-dasharray: 2.5,1; stroke-dashoffset: 0; stroke: #333333"/>
   </g>
   <g id="line2d_48">
    <path d="M 370.996628 262.604236 
L 413.530706 262.604236 
" clip-path="url(#p4badc2759e)" style="fill: none; stroke-dasharray: 1.25,0.75; stroke-dashoffset: 0; stroke: #333333"/>
   </g>
   <g id="line2d_49">
    <path d="M 73.964 214.776 
L 421.2 214.776 
" clip-path="url(#p4badc2759e)" style="fill: none; stroke: #000000; stroke-width: 0.8; stroke-linecap: square"/>
   </g>
   <g id="patch_5">
    <path d="M 73.964 318.04 
L 73.964 188.96 
" style="fill: none; stroke: #000000; stroke-width: 0.8; stroke-linejoin: miter; stroke-linecap: square"/>
   </g>
   <g id="text_16">
    <text style="font-size: 12px; font-family: 'DejaVu Sans', 'Bitstream Vera Sans', 'Computer Modern Sans Serif', 'Lucida Grande', 'Verdana', 'Geneva', 'Lucid', 'Arial', 'Helvetica', 'Avant Garde', sans-serif; text-anchor: middle" x="247.582" y="182.96" transform="rotate(-0 247.582 182.96)">Behavioral distance between subjects</text>
   </g>
  </g>
 </g>
 <defs>
  <clipPath id="p3a11166a35">
   <rect x="73.964" y="26.88" width="347.236" height="129.08"/>
  </clipPath>
  <clipPath id="p4badc2759e">
   <rect x="73.964" y="188.96" width="347.236" height="129.08"/>
  </clipPath>
 </defs>
</svg>
